<svg width="11" height="12" viewBox="0 0 11 12" fill="none" xmlns="http://www.w3.org/2000/svg">
<path d="M5.10618 11.5586L5.12056 11.5583L5.12505 11.5584L5.13142 11.558L5.14211 11.5579L5.1525 11.5572L5.16276 11.5569L5.16975 11.5564L5.17771 11.556L5.19052 11.5548L5.20039 11.554L5.20505 11.5533L5.21294 11.5527L5.22917 11.5504L5.23791 11.5496L5.24259 11.5487L5.2478 11.5482L5.26271 11.5455L5.27527 11.5436L5.27869 11.5429L5.28225 11.5425L5.3068 11.5374L5.31241 11.5363L5.31628 11.5355C5.32755 11.533 5.33874 11.5303 5.34986 11.5273L5.37388 11.5204L5.38587 11.5171L5.40167 11.512L5.41557 11.5076L5.4194 11.506L5.42209 11.5053L5.43346 11.5009L5.44766 11.496L5.45214 11.4941L5.45792 11.492L5.46652 11.4883L5.47921 11.4833L5.48728 11.4797L5.4933 11.4772L5.50038 11.4738L5.51019 11.4695L5.51939 11.465L5.52818 11.461L5.536 11.4569L5.54059 11.4547L5.54957 11.4498L5.56252 11.4433L5.56682 11.4407L5.57037 11.4389L5.5804 11.4329L5.59628 11.4241C5.60743 11.4174 5.61847 11.4105 5.6294 11.4034L5.63966 11.3963L5.65582 11.3854L5.65819 11.3835L5.66184 11.3812L5.67096 11.3743L5.68292 11.3657L5.68837 11.3613L5.69355 11.3576L5.69875 11.3532L5.7093 11.3451L5.71904 11.3367L5.72448 11.3325L5.7291 11.3283L5.73492 11.3235C5.74334 11.3162 5.75162 11.3087 5.75977 11.3011L5.78383 11.2779L9.84477 7.21697C10.219 6.84271 10.219 6.23593 9.84477 5.86168C9.47051 5.48743 8.86373 5.48743 8.48948 5.86168L6.06452 8.28668V1.01693C6.06452 0.499682 5.65474 0.0781479 5.14211 0.0592546L5.10618 0.0585938C4.57691 0.0585938 4.14785 0.487654 4.14785 1.01693V8.28684L1.72289 5.86168C1.35824 5.49702 0.77282 5.48767 0.396843 5.83363L0.367603 5.86168C-0.00664905 6.23593 -0.00664905 6.84271 0.367603 7.21697L4.42854 11.2779L4.4526 11.3011C4.46075 11.3087 4.46903 11.3162 4.47745 11.3235L4.48311 11.3283L4.48789 11.3325L4.49317 11.3367L4.50307 11.3451L4.51346 11.3532L4.51882 11.3576L4.52384 11.3613L4.52945 11.3657L4.54125 11.3743L4.55053 11.3812L4.55403 11.3835L4.55655 11.3854L4.57255 11.3963L4.58297 11.4034C4.5939 11.4105 4.60494 11.4174 4.61609 11.4241L4.63181 11.4329L4.642 11.4389L4.64539 11.4407L4.64985 11.4433L4.66264 11.4498L4.67178 11.4547L4.67621 11.4569L4.68419 11.461L4.69282 11.465L4.70218 11.4695L4.71183 11.4738L4.71907 11.4772L4.72493 11.4797L4.73316 11.4833L4.74569 11.4883L4.75445 11.492L4.76007 11.4941L4.76471 11.496L4.77875 11.5009L4.79028 11.5053L4.79281 11.506L4.7968 11.5076L4.81054 11.512L4.8265 11.5171L4.83833 11.5204L4.86251 11.5273C4.87363 11.5303 4.88482 11.533 4.89609 11.5355L4.89918 11.5361L4.90541 11.5374L4.93012 11.5425L4.93353 11.5429L4.9371 11.5436L4.9495 11.5455L4.96457 11.5482L4.96962 11.5487L4.97446 11.5496L4.98304 11.5504L4.99943 11.5527L5.00716 11.5533L5.01198 11.554L5.02169 11.5548L5.03466 11.556L5.04246 11.5564L5.04961 11.5569L5.05971 11.5572L5.07026 11.5579L5.08079 11.558L5.08732 11.5584L5.09181 11.5583L5.10618 11.5586Z" fill="white"/>
</svg>
