<svg xmlns="http://www.w3.org/2000/svg" viewBox="0 0 13.0586016 15.2785645">
  <path d="M10.1519947.89741488c.388262.13256985.9810088.81317975 1.7782404 2.0418297-.006323-.13685601.5955416 2.33886649.4594733 2.39015598-.1072947.15229927-.1561085.33306765-.1464413.54230517.0042649.09231067.0325094.23746918.0775381.41268041l.0289738.10855069.0326567.11466918.0359941.11969349.0491599.15501541.0531606.15901921.0449556.12866203.0467389.12876258.0481768.12776897c.0081302.02115125.0163058.0422155.0245198.06316996l.0496862.12422701c.0083385.02042414.016701.04069291.0250802.0607835l.0504185.11822316.025252.05716611c.1907377.42650533.259131.7363704.2051799.92959521l-.234625.45563139-.1421856.27123233-.1132285.21081129-.0593985.10697362-.0649669.11010957c-.0841474.13316507-.2495202.18418735-.4961186.15306671l-1.5457026-.51381629-.2325378-.07788679c-.47181941-.15827642-1.19144255-.21335294-1.82679798.01074189L7.868 9.557l.89764338-.03582021.6948916.05208718.73389542.09583927-.0672436.49183236-.0188735.5404665-.0764366.2091777-.04502612.1191355-.1345017-.1924135-.10769398-.1193298-.13083976-.004569-.1352607.1108456.07049119.0024616.12789105.1225629-.00875154.2506113.158141.3005154-.08227157.3040154-.0343194.982779-.0736869.2364929-.27010328-.5651822.02150609-.6158536-.34706256-.7807912-.18662415-.0065171-.00437887.1253943.09685301.4051686.06247169.3831025.11663802.349738.11323403.4941913.08087765.47452.01004184.0617294-.13175874.1075552-.37723629.1503794-.10842233.1157455-.05553697-.121471.03350349-.9594144-.16533616-.9583755.00756363-.2165941-.07643617-.4255649-.18698526.1307695.04075198.2870196.0813484.1344635.04092099.6333778-.04267266 1.2219849.0920797.5219009-.25080581.2698539-.27117818.1308894-.04166615.0378528-.02911178-.0746049.03767044-1.0787405-.09613276-.6785666.02266383-.6490071-.07505565-.6703359-.11164681-.0038988.04489822.4400739-.06535814 1.8716121.03631.4354722-.00909028.2603116.0442704.3327965-.16384767.1532426-.31879199.1455022-.10701366.0248738.02892828-.8075363-.06217945-.2371233.08569023-2.4538472-.16930368-.0059122-.01397803.4002783-.06003781.2015018-.02500407.7160229-.09581916.6624397-.02458026.7038865.0582887.4122922-.01737393.4707276-.18918914.0389266-.31676612.2586142-.06074102-.0854054.03419566-.9792356.15415615-.7635986.07311912-.4068164.05742792-1.6445206-.18617644-.0065014-.04608325 1.3196516-.11195024.4851968-.10311291.4250378-.11438076.3707847-.03984794 1.1263087-.06037216-.0157251-.34203981-.2680851-.15070163-.1237414.21490865-.433147.03702467-1.060248.06763274-.2758287.19913704-.4833496.03775784-1.081243-.18203611-.0063569-.00285995.0818983-.06856544.3025376-.0154892.4435528-.06428452.2492929-.16561224.4845203-.06158618.2760398-.03073093.8800187-.15401306.4676324-.03394076-.0280178-.31106162-.2071658.11708077-.8478893.15301722-.5947196.01425954-.4083397.10857384-.2863284.01693078-.4848342.11684138-.2095406.0109634-.3139507-.20784563-.0072582-.0109634.3139507-.17055014.3474256-.02570785.7361763-.10606734.3038445-.00723572.2072039-.06603675.1959263-.01248386.357491-.09589852.2604731-.06558152.3032404-.17963145-.0848783-.21756134-.1171066.13309851-.4784557.10394071-.5415758.07429348-.4195918.08937602-.2273961.12800222-.3224139.0296219-.8482604-.11660108-.0040718-.08629334.1391196-.02254086.6454859-.18655238.3091248-.02216093.220721-.01070046.3064209-.11760995.3480547-.09051011.3247431-.00471451.1350059-.09914724.1660116-.02269519-.0479122-.16609657-.2633249.10857193-.5466915.07335921-.4588273.10355008-.3760411.07772907-.6287023.01848527-.5293488-.14601468-.005099-.01848527.5293489-.07045982.3757996-.08979278.2751214-.08166499.2615911-.01106394.3168298-.07103567.221406-.03562042-.1523567-.13973932-.1269334.06576048-.3527824.01472356-.4216276.07592385-.354433.06983382-.2829362.08825269-.4804365-.19234542-.0753221-.00239283.0685217-.11190994.1602213-.11435356.4236919-.07144239.2328118-.02131429.6103613-.0519701.2450236-.00970948-.0088109.01354339-.3878318-.20476715-.2959845-.11665456-.4465709.00479803-.1373977-.04872097-.2337264.05018728-.118683 1.46703168-.8166534L4.561 9.657l-.11067884-.04642226-2.41110535 1.33679496-.36759747.0218527-.20827088-.1013362-.25387889-.2430524-.57416807-.78701856-.1190831-.91267866-.01397532-.3024832.27492958-.15572078.33810851.1192774.29098751 1.04623523.36789798-.02187049-.7148543-2.23575977-.3848105-1.13010011-.15987113-.574234-.0304916-.65996334-.15861142-.21271071-.15011453-.41197672L0 3.9680908l.10197787-.20922198.4019129-.15145797-.0084899-.1837564.12470296-.18694971L3.3386505.3720431l.38418185-.22216962.56006883 1.46024333.93124264 1.66677801.22376218 1.17472177.06373362.60819685.01225057-.20921174.04206253.22031823-.02447586-.52667246.09240014-1.60500289-.87540062-1.34207589L4.0666313.18476046v-.0800683c.05246189.09239513 1.90393885-.63500101 6.0853634.79272272ZM5.96521694 7.33966809l-.01514071.02484036-.77295212 1.82506365c-.09839763.29355844-.03867033.43386231.17918192.42091161.07632014-.00453702.09866131-.0552769.11423456-.1229576l.01657431-.07914677c.01996554-.08997411.05445633-.18874749.18140078-.24801908.14142353-.06603201.17814368-.05001619.20209611-.01340761l.00911795.01559605.01398359.02560068.01143366.01726358c.01496012.01980765.03648311.03785429.07391233.04789428.05881735.01577711.09852832-.02117447.1288282-.06122908l.03639524-.05188273c.02806524-.03855365.04914123-.04993588.0792314.04776733.02651821.08610502.08198639.132914.14328629.17325544l.07604664.04816497c.07000062.0455676.13549555.0998288.16356841.20952573l.0161328.06047267.01582692.05288962c.0502417.15586722.10453806.20322921.24511637.19487223.08508688-.00505818.09430865-.08876416.08801785-.1808999l-.0060918-.06427011-.00659828-.06178597c-.00417519-.04574735-.00477181-.08454232.00763252-.10542235.01084075-.01824809.03010859-.03512871.05419976-.05299331l.06082415-.04284779c.07324759-.05165805.15974828-.12048822.2031932-.24323156.02408725-.06805281.00070772-.19307379-.05500907-.35357798l-.02581435-.07089731-.02950936-.07486637-.03293971-.07845959-.03610541-.08167697-.03900646-.08451854-.06337019-.13128361-.06840885-.13556308-.04796406-.09212648-.07482168-.13987679-.07747843-.14077379-.05268717-.09372113-.07796522-.13607325c-.24793567-.42809917-.46072636-.50230232-.63837209-.22260945Zm-.4220948-2.10169372-.25732398.01529719c-.16934569.7379726-.43133751 1.0676736-.78597546.989103-.14507916-.03214252-.31721675-.0971257-.49932465-.17414265l-.12269481-.05289908-.37455797-.16639059-.12326001-.05346131-.12058844-.05017685c-.23775523-.09615594-.45273018-.16438518-.60441964-.15536767-.41714602.02479815-.88141924.57796414-1.00168396 1.03377876l-.0380452.14676649-.01437411.05961062-.01341049.06025911-.01491918.07636978-.0122854.07769219c-.04734218.34500683.00000149.73340383.38228049 1.2310263.54445797.70873503 1.47182031.67127651 2.45510433-.14594901.46499188-.32205056.75571449-.65684702.87216784-1.00438936.02629592-.0784773.05129928-.17130788.0750101-.27849173l.02000702-.09538697.01937393-.10241714.02332713-.13790761.02233794-.14889226.01715813-.12702275.01652505-.13405293.02360053-.21426098.01494233-.15162837.01430925-.15865855.01367615-.16568873.01304308-.1727189Zm3.75881947-.20555389-.10989633.02739426c-.09160942.02405399-.18316511.05110695-.27371782.08067405l-.10812105.03665629-.10679367.03888369a5.11118767 5.11118767 0 0 0-.05278515.02021894l-.1041191.04187572c-.01717675.00713129-.03426023.014336-.05124283.02161024l-.10062437.04444887c-.04964619.02261062-.09824784.04577726-.14559988.0693952l-.09469712.04871895c-.13925851.07391694-.26554106.15138568-.37299218.22941564l-.03511155.02602667c-.4822468.36506005-.83568837.4362355-1.06032471.21352633l-.02006665-.02105589.02971271.64051241.00297082.04615243.00445324.04712711c.01901712.16660746.07844865.35044539.31662921.54438049.10866302.08847731.26030354.18951856.4199582.28251917l.087669.04980634.08799769.04746844.04116511.02131738.0811853.04027814c.18703819.08995509.35445542.15003316.4421575.14481952l.08159706-.00453777.09573971-.00350082.07132025-.00080894.03782652.00026649.0798496.00223075.08526341.00496885c.15821576.01174981.3416833.03957364.54468252.09841244L9.244409 7.892404c.23456366.07459569.2836707-.02976786.29622098-.1573422l.00262831-.03525146.00372078-.1056391.00208963-.03283429.00363301-.03047475c.00848549-.05327841.02813631-.09112109.07756496-.09405948.06113268-.00363416.07971014.03777399.09049488.09917284l.0160704.11266.00634019.03381036c.02667678.12493708.09557062.2572594.35496706.29010484.2141375.02711465.2812411-.02040114.3191654-.08859035l.0111436-.02215771.0302905-.07150109.0130156-.02636072c.037943-.0696063.1057242-.13188832.2983697-.14334055.3308804-.0196699.5333314.24647314.6073531.79842911l.0063754.05096518.3628695-.02157156c.035356-.68194204-.2473882-.95627557-.4815531-1.05164381l-.0355926-.01329092-.0345294-.01065202c-.0056498-.00156571-.011243-.00302917-.0167733-.00439424l-.0323782-.00704058-.0305731-.00486422-.0284715-.00287288-.0133548-.0007475-.0360959.00023572c-.062661.00372502-.1021632-.10937667-.123864-.27778789l-.0073137-.0656267-.0057077-.07009106-.0022712-.03649439-.0035484-.07928358-.0019542-.08217881-.0004326-.08423951.0010163-.08546567.0023925-.08585729.003696-.08541437.004927-.08413692.0060851-.08202494.0071707-.07907841.0081835-.07529734.0091237-.07068175.0099912-.06523162.0107861-.05894694c.0018598-.0092544.0037498-.01821217.0056683-.02685592l.0058399-.02497181c.0631736-.25594641.0157272-.47123964-.1423392-.64587971-.2935747-.30099845-.90070435-.30191279-1.52290779-.15518751Zm-4.32382839.01367188-.28110559.01671093c-.03355006.25339221-.19268929.41210714-.47741769.47614477l-.03785071.00781582.01124998.2434958.21455322-.01275458c.37005609.04289436.56024635-.20090989.57057079-.73141274Z" fill="#ffae00" fill-rule="evenodd"/>
</svg>
