<svg width="19" height="19" viewBox="0 0 19 19" fill="none" xmlns="http://www.w3.org/2000/svg">
<path fillRule="evenodd" clipRule="evenodd" d="M9.55647 12.1208C6.08847 8.62974 2.88309 5.15054 0.583008 0.812539V0.8125C4.01219 2.72375 6.9138 4.99686 9.69895 7.52235C9.70141 7.52458 9.70382 7.52686 9.70621 7.52917C9.70802 7.53091 9.70982 7.53267 9.71162 7.53443C9.71579 7.5385 9.71996 7.54258 9.72429 7.5465C11.4111 9.07741 13.0572 10.7016 14.7513 12.3937C15.333 11.676 15.8467 10.8971 16.2761 10.0528L17.3783 11.155L14.7151 13.8182C15.7308 15.5053 17.1706 16.7691 18.8113 17.8312L17.7271 18.9152C16.6528 17.2863 15.3413 15.8952 13.7058 14.8275L11.0511 17.4822L9.94882 16.38C10.7587 15.9121 11.5359 15.395 12.2643 14.8227C11.9511 14.51 11.6386 14.199 11.3273 13.8891L11.3273 13.8891L11.3272 13.889C10.78 13.3443 10.2365 12.8033 9.69899 12.2633L9.69655 12.2657L9.55647 12.1208ZM18.8125 0.812555C15.6046 2.60044 12.8585 4.70589 10.2374 7.03833L11.1187 7.87132L13.3134 5.67655L13.8241 6.18599L11.6438 8.36639L12.5939 9.26211C14.9814 6.67687 17.137 3.97264 18.8125 0.812555ZM6.08209 5.67655L13.8301 13.4234C13.6617 13.5951 13.4886 13.7631 13.3123 13.9269L5.57138 6.18595L6.08209 5.67655ZM2.01838 11.155L3.1194 10.0528H3.11944C3.54903 10.8976 4.0633 11.6768 4.6454 12.3949C5.36226 11.6789 6.07008 10.9756 6.77627 10.2858L7.72392 11.266L5.56655 13.4234C5.73498 13.595 5.90686 13.7643 6.08321 13.928L8.22614 11.7852L9.18587 12.7763C8.81357 13.1484 8.43895 13.5213 8.06253 13.8959C7.75358 14.2034 7.44342 14.5122 7.13231 14.8227C7.86079 15.3949 8.63799 15.9121 9.4478 16.38L8.34562 17.4822L5.6909 14.8275C4.05538 15.8952 2.74378 17.2863 1.66954 18.9152L0.585403 17.8312C2.22611 16.7691 3.66477 15.5042 4.68041 13.817L2.01838 11.155Z" fill="white"/>
</svg>
