<svg width="26" height="26" viewBox="0 0 26 26" fill="none" xmlns="http://www.w3.org/2000/svg">
<path d="M22.5995 9.40137H11.7994C10.4739 9.40137 9.39941 10.4758 9.39941 11.8011V22.5999C9.39941 23.9252 10.4739 24.9996 11.7994 24.9996H22.5995C23.925 24.9996 24.9995 23.9252 24.9995 22.5999V11.8011C24.9995 10.4758 23.925 9.40137 22.5995 9.40137Z" stroke="white" stroke-width="1.5" stroke-linecap="round" stroke-linejoin="round"/>
<path d="M4.60003 16.5982H3.40002C2.7635 16.5982 2.15304 16.3454 1.70295 15.8954C1.25286 15.4453 1 14.8349 1 14.1985V3.39973C1 2.76328 1.25286 2.1529 1.70295 1.70286C2.15304 1.25283 2.7635 1 3.40002 1H14.2001C14.8366 1 15.4471 1.25283 15.8972 1.70286C16.3473 2.1529 16.6001 2.76328 16.6001 3.39973V4.59959" stroke="white" stroke-width="1.5" stroke-linecap="round" stroke-linejoin="round"/>
</svg>
