<?xml version="1.0" encoding="UTF-8"?>
<svg id="Layer_1" data-name="Layer 1" xmlns="http://www.w3.org/2000/svg" viewBox="0 0 30 30">
  <defs>
    <style>
      .cls-1 {
        fill: #92723e;
      }

      .cls-2 {
        fill: #8a6b38;
      }

      .cls-3 {
        fill: #bb9233;
      }

      .cls-4 {
        fill: #7f6035;
      }

      .cls-5 {
        fill: #7b5c31;
      }

      .cls-6 {
        fill: #8e7041;
      }

      .cls-7 {
        fill: #8c6d3f;
      }

      .cls-8 {
        fill: #8d6d3b;
      }

      .cls-9 {
        fill: #876837;
      }

      .cls-10 {
        fill: #886a3f;
      }

      .cls-11 {
        fill: #f4d387;
        opacity: .3;
      }

      .cls-12 {
        fill: #8b6d3d;
      }

      .cls-13 {
        fill: #8d6e3f;
      }

      .cls-14 {
        fill: #7b5d31;
      }

      .cls-15 {
        fill: #7e5f34;
      }

      .cls-16 {
        fill: #795a2e;
      }

      .cls-17 {
        fill: #816237;
      }

      .cls-18 {
        fill: #7f6031;
      }

      .cls-19 {
        fill: #997d52;
      }

      .cls-20 {
        font-family: FuturaBT-Heavy, 'Futura Hv BT';
        font-size: .75px;
        font-weight: 800;
        letter-spacing: -.05em;
      }

      .cls-20, .cls-21 {
        fill: #7c5e30;
      }

      .cls-22 {
        fill: #826439;
      }

      .cls-23 {
        fill: #7c5d32;
      }

      .cls-24 {
        fill: #56421a;
      }

      .cls-25 {
        fill: #866635;
      }

      .cls-26 {
        fill: #7d5e33;
      }

      .cls-27 {
        fill: #806232;
      }

      .cls-28 {
        fill: #816233;
      }

      .cls-29 {
        fill: #7c5d30;
      }

      .cls-30 {
        fill: #8b6c3a;
      }

      .cls-31 {
        fill: #7b5c2f;
      }

      .cls-32 {
        fill: #e4c368;
      }

      .cls-33 {
        fill: #7d5f35;
      }

      .cls-34 {
        fill: #8d6e3c;
      }

      .cls-35 {
        fill: #7f6138;
      }

      .cls-36 {
        fill: #8f7145;
      }

      .cls-37 {
        fill: #83653a;
      }

      .cls-38 {
        fill: #7d5e30;
      }

      .cls-39 {
        fill: #846539;
      }

      .cls-40 {
        fill: #efbf49;
      }

      .cls-41 {
        fill: #85673b;
      }

      .cls-42 {
        fill: #86683d;
      }

      .cls-43 {
        fill: #7e5f31;
      }

      .cls-44 {
        fill: #8e6f3c;
      }

      .cls-45 {
        fill: #8e6f3f;
      }

      .cls-46 {
        fill: #765b29;
      }

      .cls-47 {
        fill: #886937;
      }

      .cls-48 {
        fill: #8a6c40;
      }

      .cls-49 {
        fill: #8c6d3a;
      }
    </style>
  </defs>
  <path class="cls-24" d="M22.59,4.94v20.77c-.06,1.08-.89,1.94-1.96,2.05h-10.8c-1.06-.12-1.87-.98-1.94-2.05V4.91c.08-1.04.87-1.9,1.92-2.01h10.81c1.08.09,1.91.96,1.97,2.04Z"/>
  <path class="cls-46" d="M20.53,2.7h-10.81c-1.05.12-1.84.98-1.92,2.02v20.8c.07,1.07.88,1.93,1.94,2.04h10.8c1.07-.1,1.9-.96,1.96-2.04V4.75c-.06-1.08-.89-1.95-1.97-2.05ZM22.02,25.54c-.07.81-.68,1.45-1.49,1.54h-10.79c-.8-.11-1.4-.75-1.46-1.56V4.69c.09-.76.65-1.37,1.41-1.5h10.87c.8.11,1.4.75,1.46,1.56v20.79Z"/>
  <g>
    <path class="cls-3" d="M9.55,2.56h10.81c1.07.09,1.91.96,1.97,2.04v20.77c-.06,1.08-.89,1.95-1.96,2.05h-10.79c-1.07-.12-1.87-.98-1.94-2.05V4.57c.08-1.04.87-1.9,1.92-2.01ZM9.53,3.04c-.76.13-1.32.74-1.41,1.5v20.83c.06.81.66,1.45,1.46,1.57h10.79c.8-.09,1.41-.74,1.48-1.54V4.6c-.06-.81-.66-1.45-1.46-1.57h-10.87Z"/>
    <path class="cls-40" d="M20.4,3.03h-10.87c-.76.14-1.32.75-1.41,1.52v20.82c.06.81.66,1.45,1.45,1.57h10.8c.8-.1,1.41-.74,1.48-1.54V4.6c-.05-.81-.65-1.45-1.45-1.57ZM18.64,11.14l-.14-.11c-.04.09-.11.12-.21.11.02-.15.09-.28.06-.45.02-.02.15.05.16.06.02.03.01.08.01.11.23-.16.41.18.12.28ZM18.43,11.93s-.11-.04-.11-.09c.01-.03.16-.42.19-.49.01-.03-.01-.09.05-.07.18.08-.12.51-.13.65ZM18.66,10.11c0-.13-.11-.52-.06-.59.02-.03.05-.05.09-.04.08.39.1.78.08,1.18-.19-.03-.1-.38-.11-.55ZM18.52,9.02s-.09-.02-.12-.04c-.05-.05-.21-.45-.28-.56-.06-.09-.42-.52-.36-.58.05-.01.07,0,.11.04.12.11.72,1.05.65,1.14ZM17.78,7.68c-.02.09-.13.19-.17.27-.11.22-.21.45-.33.67l.14.26c.08-.05.1-.28.17-.32.04-.03.28-.04.3.03l.03.25c-.09.08-.19.11-.19-.04h.08v-.1c-.02-.06-.12-.06-.17-.03-.06.09-.07.28.03.34.08.04.57.05.71.08.05.01.3.09.31.12-.04.23-.66.6-.7.74-.05.15.08.34.23.26.09-.06.07-.1,0-.17l-.1.06v-.14c.24-.1.2.08.28.23l-.23.19c-.22-.11-.38-.17-.3-.46.04-.12.63-.52.7-.7-.2-.02-.83-.04-.97-.14-.05-.04-.05-.1-.1-.11l.13.25.72.09s-.04.08-.07.11c-.14.13-.31.27-.45.4-.03.03-.02.07-.02.11,0,.19.05.4.03.61-.01.17-.16.62-.08.74,0,.02.08.07.11.1.14.19.44.51.53.69,0,.02.04.11.03.12-.05,0-.11-.02-.17-.03-.31-.04-.62-.1-.93-.17-.01.02-.08.07-.11.11.13.02.32-.06.39.08.13.25.01.28-.21.38-.06-.08-.08-.14-.04-.23l.06.08c.14.02.12-.09.08-.19-.56-.06-.18.55-.14.83.01.12-.01.24,0,.35-.11-.04-.25-.06-.36-.1-.14-.06-.48-.31-.59-.32-.26-.02-.26.37-.09.33l.08-.1-.09-.06c.32-.08.19.21.01.31-.36-.07-.29-.59.06-.6.18,0,.69.37.89.43.03-.04-.19-.77-.19-.89,0-.09.03-.11.05-.18-.09.11-.09.09-.17.22l.17.68c-.17-.07-.33-.17-.5-.25-.03-.01-.06-.06-.06-.06-.18-.08-.29.11-.47.11v-.11c.37-.15.74-.43,1-.75.11-.13.38-.52.43-.66.02-.06.03-.16,0-.23-.02-.1-.2-.43-.26-.56-.09-.18-.24-.36-.29-.57-.04-.04-.05,0-.05.04-.02.11.03.19.02.28,0,.13-.04.26-.03.4.02.11.09.17.09.27l-.42-.03c.01-.09.1-.09.11-.2-.11.01-.1.21-.23.2-.01-.05-.03-.13-.07-.17-.09-.09-.37-.25-.49-.34-.06-.03-.17-.05-.21-.14-.03-.05,0-.18,0-.25-.04,0-.11-.01-.14,0-.04.01-.05.12-.14.08-.01-.08.03-.14.03-.22,0-.06-.05-.13-.03-.2l.28.11v-.37s-.06-.17-.03-.25l.69.03.26-.09.06.14.26-.02c-.05.21.13.39.21.56.07.14.09.32.22.43-.02-.24.02-.48,0-.71-.01-.05.01-.1-.01-.15s-.09-.07-.08-.13l.23-.02c-.19-.38-.47-.78-.79-1.06-.03-.02-.16-.13-.17-.14-.17-.11-.49-.13-.51-.37.02-.01.16.05.2.06v-.11c-.23.08-.24-.23,0-.17v.17c.13-.05.17-.13.17.11h-.17c.07.03.08.06.2.09-.02-.15.03-.16.16-.15l-.02.08h.05s-.02.08-.02.08c-.07.04-.12,0-.17-.01,0,.1.12.07.16.16.19-.06.39-.11.57-.17.18-.07.38-.18.55-.22.04-.01.05,0,.04.04ZM17.95,10.92c-.06-.04-.08-.09-.03-.15.06-.07.06.02.01-.14.09-.15.23-.09.19.09-.05.01-.08.02-.11.06.11.03.04.19-.06.14ZM18.04,11.11c-.08-.03-.09.08-.13.06-.14-.05-.05-.28.09-.19.02.01.05.12.04.13ZM18.23,12.28c-.07.13-.15.24-.23.35-.1.13-.31.38-.44.48-.04.03-.06.05-.12.04-.07-.08.26-.35.31-.41.13-.15.26-.32.35-.49.06-.04.13-.05.13.03ZM15.15,13.15c-.04.05-.08.09-.11.14-.18.28-.32.61-.53.87-.01.02,0,.05-.06.03-.06-.33-.1-.68-.17-1.01-.01-.03,0-.06-.01-.09l-.63-.27s-.07,0-.1.02c-.06.03-.56.34-.62.34.02-.23.1-.45.14-.68.05-.23-.1-.15-.14-.2.1.18.01.35-.03.55,0,.04-.04.07-.04.1-.03.1.01.28-.07.4.04-.02.15-.02.17-.03.02-.01.1-.09.15-.12.09-.05.51-.27.57-.27.03,0,.26.07.26.08.01.02.07.27.07.3,0,.11-.1.1-.18.15-.02.01-.02.05-.02.05-.04.03-.26-.14-.26-.21.04-.1.1-.14.2-.09l-.08.09c.07.11.14.07.23,0-.01-.13-.09-.28-.24-.26-.11.01-.45.28-.59.32-.08.03-.1-.01-.11-.01s-.15.16-.25.11c-.01-.15.01-.29.03-.43.05-.27.34-.8-.17-.72l-.03.16.11.03v-.09l.08.05c.05.26-.33.1-.33,0-.01-.05.06-.25.1-.27l.33-.03s.1.13.1.14c0-.01.01-.06-.02-.1-.19-.23-.51-.64-.54-.94-.28-.07-.55-.17-.82-.26-.09-.03-.21-.04-.3-.08-.03-.02-.05.01-.04-.06l.96-.42c0-.1.05-.3.06-.41,0-.09,0-.17,0-.25-.01-.04-.4-.36-.46-.42-.03-.03-.08-.06-.07-.11.16-.05.69,0,.79-.13.03-.04.06-.16.09-.21-.01.01-.11.12-.11.13-.14.1-.67.1-.87.15-.04.01-.07,0-.1.05,0,.06.64.54.67.65.02.04.02.26,0,.29l-.29.17c-.07-.05-.25-.14-.23-.22.01-.03.09-.21.11-.22l.15.02.02.14-.1-.06c-.14.08-.01.22.09.19.13-.05.19-.18.14-.31,0-.03-.41-.33-.47-.4-.05-.05-.22-.26-.23-.31-.01-.06,0-.03.04-.04.16-.06.32-.1.48-.12.28-.03.72.09.53-.38-.05-.02-.15-.03-.17.03v.1h.08l-.03.11-.16-.03.04-.31.03-.02c.25-.07.39.09.38.33.06.01.07-.04.1-.08.2-.26.37-.48.62-.7.03-.3-.02-.59-.02-.88v-.22s-.02-.08.04-.07c.2.12.57.68.73.75.07.04.17-.03.25-.04l-.22-.25.06-.23c.17-.06.4-.06.32.17l-.13.03.05-.11-.14-.03c-.07.19,0,.2.13.29.02.01,0,.07.07.05v-.06c.21-.11.26-.46.38-.68.02-.04.16-.25.17-.25.09-.02.21.19.25.26.04.09.08.18.11.25.04.08.12.34.17.38.14.11.42-.04.29-.22h-.13s.03.12.03.12c-.08.02-.13-.06-.14-.13-.01-.16.24-.08.34-.09l.05.28-.22.22.28.07.03.13c-.41-.13-.83-.2-1.26-.17-.2,0-.67.11-.86.17-.08.03-.59.4-.68.48-.35.3-.68.79-.81,1.23-.02.08-.01.08.05.04.01-.02.35-.17.41-.23.06-.06.12-.33.19-.1.05.12.02.23.16.32-.01.11-.1.03-.17.04-.05,0-.19.04-.25.06-.03,0-.07.04-.11.05-.01.06.02.15.05.2.06.1.19.28.26.38.04.07.31.34.25.41-.02.01-.07-.01-.08,0-.03.01-.05.05-.1.06-.25.1-.39.14-.54.39l-.04-.22c-.1-.01-.06-.12-.17-.12.02.12.05.21.08.31.18.6.54,1.07,1.02,1.45.01-.03.03-.04.03-.09-.01-.08-.12-.17-.14-.25.19.05.27-.1.42-.16,0-.04-.13-.24-.16-.29-.05-.08-.11-.21-.15-.26,0-.01-.16-.05-.1-.14.04-.06.31-.13.38-.19.07-.04.1-.13.16-.18l.16.34c-.15-.01-.27.03-.4.09,0,.15.42.63.43.72,0,.1-.31.13-.4.2,0,0-.11.11-.12.12,0,.03-.03.07-.05.1.04.02.09.08.11.1.14.08.47.21.63.26.61.18,1.2.12,1.8-.06l-.02.11c-.28.1-.56.18-.86.17ZM15.86,13.3l-.14.07c-.03-.07-.08-.11,0-.19l.08-.03.06.06v.09ZM15.43,13.26l-.02.14-.17-.06.03-.1.16.02ZM14.36,14.02c-.06.01-.11.01-.17,0-.16-.03-1.18-.41-1.18-.52,0-.04.08-.04.12-.03.09.01.37.19.49.24.14.05.64.18.7.23.03.03.05.04.04.08ZM11.65,11.82l.11.03c-.03-.08.16-.2.2-.17,0,.17.13.25.17.4-.21-.04-.35.11-.55,0l.07-.26ZM11.51,11.74l-.2-.71s.07,0,.1.03c.05.03.19.57.18.61-.01.01-.06.06-.08.07ZM11.96,12.31s0,.05,0,.06c.1.11.17.22.26.33.07.08.47.4.38.51-.05.01-.06-.03-.1-.06-.09-.08-.24-.23-.32-.32-.05-.06-.42-.51-.37-.56.04.01.11.02.14.04ZM12.44,11.76s-.17.07-.16-.06c0-.17.23-.05.16.06ZM12.47,11.98c-.11.06-.17-.12-.11-.16.1-.06.25.08.11.16ZM12.33,11.59c-.13.08-.16-.1-.11-.19l.13.05s0,.13-.02.14ZM11.39,10.67l-.09.08s-.04-.06-.05-.1c-.04-.4.04-.83.09-1.23.21.07.04.5.03.69-.01.18-.01.38.02.56ZM11.51,9c.09-.34.31-.64.5-.93l.15-.15c.01.21-.19.4-.31.59-.02.04-.25.58-.34.49ZM12.81,8.19c.07-.05.13.01.17.01,0-.04-.07-.13,0-.18.12-.09.29.21,0,.18.01.16-.07.14-.17.12,0,.04.01.13-.03.15h-.11c-.08-.19-.01-.18.14-.15,0-.03-.06-.09,0-.13ZM12.72,7.51c-.27,0,.02-.18.12-.25.05-.04.33-.23.37-.19.09.1-.46.36-.49.44ZM12.78,7.82c.03.1-.12.11-.17.16-.01.01-.11.22-.17.17l-.05-.23-.09-.02-.03-.26h.24l.05.11s.22.06.22.07ZM13.46,6.99c-.09-.09.28-.2.33-.22.3-.1.65-.17.97-.18,0,.05.01.09-.05.11-.12.04-.33.04-.47.07-.27.06-.51.18-.78.22ZM14.87,11.31s-.08-.04-.13-.05c-.15-.01-.27.02-.4.05v.23c.15,0,.26.02.35-.11l.07.04-.03.35c-.08,0-.1-.09-.19-.11-.06,0-.14,0-.2,0,0,.08,0,.17.08.22.01.01.06,0,.08.02.08.05.27.16.32.21v-.28l.18.05.34-.9.07.02.28.88.13-.02.07-.2.11-.02s-.04-.11-.05-.12c-.04-.06-.18-.11-.14-.23.18-.04.43-.16.52-.34l.18.34c-.18-.03-.26.03-.39.11,0,.09.1.11.08.2.08.01.19.06.28.03l.03.2c-.06.01-.1-.04-.14,0,.06.01.15.29.14.31-.1.02-.17.09-.25.14-.05.03-.12.04-.17.1-.06.06-.04.14-.11.13.01-.12-.1-.19-.12-.29l.03.14h-.31c.05-.09.02-.2-.03-.29-.3-.05-.45-.06-.42.29l-.37.03s.01-.04,0-.05c-.01-.02-.02-.05-.03-.06-.04-.05-.32-.23-.39-.28-.13-.09-.28-.07-.17-.31-.11-.03-.14.07-.23.08v-.37c.09,0,.12.12.23.09,0-.06-.03-.1-.03-.16-.01-.04.03-.06.03-.07-.01-.05-.06-.15-.03-.22l.68-.03s.05-.02.05-.04-.06-.06-.07-.1c-.07-.23-.12-.53-.19-.77-.05-.15-.15-.53-.22-.65-.01-.02-.05-.07-.08-.08l-.04.17c-.06-.14-.2-.06-.29-.06-.1,0-.22-.02-.32-.03-.1.12-.03.25-.03.34.09-.01.24.03.32,0,.05-.02.1-.18.16-.14.06.05-.02.15-.03.19,0,.03.03.07.03.09v.23c-.1.02-.12-.08-.17-.14-.08.02-.22-.01-.31,0v.23c.23.03.4.26.58.36.05.03.2.03.18.1-.12.05-.12.23-.25.21.01-.14-.11-.13-.16-.18-.13-.1-.21-.17-.35-.27-.02,0-.06,0-.09-.03-.25-.16-.14-.15-.14-.39-.03-.01-.11.01-.14,0l-.14.11.03-.2-.06-.25c.09-.01.15,0,.17.1l.12-.02c-.01-.1.01-.22,0-.34-.01-.06-.06-.16-.03-.25.25-.01.53.04.78,0,.06-.01.1-.06.16-.06s.04.05.07.06c.06.01.36-.02.37,0,.02.12-.12.12-.11.25,0,.01.02.13.03.15,0,0,.04.01.05.04l.23.63c.08-.23.17-.45.23-.7,0-.04.02-.06.02-.12.01-.15-.07-.12-.11-.25h.54c.01.08-.1.11-.13.17-.02.03-.01.07-.01.08-.23.5-.34,1.06-.56,1.54-.02.04,0,.09-.04.13.01.03,0,.1,0,.14ZM15.58,8.8c-.09-.07-.2-.08-.17-.24-.18-.06-.09.13-.09.22,0,.12-.07.2.06.33h-.28c.04-.16.02-.31.03-.47,0-.04.03-.08.03-.1l-.29.06c0,.17-.01.34.03.51h-.22c.1-.27-.02-.57.05-.85-.01,0-.04-.07-.13-.08-.18-.04-.14.05-.15.05.01.31-.03.61.06.91l-.26-.03.03-.91c-.13-.02-.19-.07-.31.06v-.21l.04-.04h.89c0,.08-.02.16-.03.25v.17l.29-.06s0-.07,0-.11c0-.03-.07-.21-.06-.23l.24-.02c.02.07-.05.18-.04.25,0,.08.06.13.14.11-.01-.04-.03-.09-.03-.14v-.22c.2-.02.42.04.61-.06v.25c-.08-.01-.32-.07-.4-.05-.05.02-.04.08-.04.08v.14c.07-.03.14.01.18,0,.06-.02.08-.12.16-.11l-.03.34c-.11-.05-.17-.12-.31-.08-.02.08.05.15.11.19.05.04.21.13.26.16.03.01.07.01.11.01.03.03-.08.25-.17.2,0,0-.01-.06-.04-.08-.08-.08-.18-.14-.27-.2ZM16.01,13.87c.05-.06.43-.18.55-.24.11-.04.46-.29.55-.2.01.08-.03.05-.06.07-.33.22-.69.38-1.08.47,0-.04.02-.07.04-.1ZM16.99,7.16s.49.32.53.36c.02.04.05.06.04.1l-.09.03c-.04-.09-.58-.38-.48-.49ZM16.52,7.02s.21-.07.25-.09l.05.24c-.02.06-.08.03-.11.05.1.08.02.17.03.28-.03.03-.18-.14-.2-.14-.03-.02-.23-.02-.23-.07.02-.06.19-.15.2-.17.01-.03-.01-.08.01-.1ZM16.48,6.89l-.12.06c-.35-.13-.71-.22-1.09-.25l-.03-.11c.15-.06,1.24.21,1.24.3ZM10.63,22.4c0,.13-.03.27-.02.41.08.03.2-.03.27-.02.05,0,.14.09.23.05,0-.08.04-.24.03-.34-.01-.17-.17-.11-.12-.25h.41c-.02.09-.05.15-.06.25-.01.08-.01.19,0,.27,0,.06.06.25.05.28-.02.09-.21.02-.28.02-.16-.01-.34-.03-.51-.03,0,0-.02.02-.04.03-.35,0-.21-.28-.21-.5,0-.13-.04-.33-.03-.46.01-.08.03-.26.07-.31.06-.07.29-.18.37-.23.11-.09.33-.26.41-.38.03-.05.02-.15.09-.08.05.05.1.15.14.21.02.04.08.02.05.11-.28,0-.51.27-.73.42,0,.1-.11.08-.13.11-.06.09.02.35.01.44ZM14.68,22.19c-.16.15-.27.36-.46.45-.05.08-.04.11-.14.17.01.06-.03.06-.05.09-.05.04-.03.03-.09.05l-.1.2c-.06.01-.05-.12-.07-.17-.02-.07-.06-.14-.06-.22.34-.02.43-.41.68-.57,0-.06.04-.11.02-.17-.02-.04-.14-.1-.19-.15-.02-.03-.18-.26-.22-.22.02.21-.03.42-.03.61,0,.08.03.15.02.22-.02.12-.22.17-.3.25.01.11-.1.22-.06.34-.26-.09-.51-.18-.76-.26-.1-.03-.18-.07-.29-.05.01-.21.03-.42.03-.63-.01.02-.04.02-.05.03-.12.12-.16.45-.29.55l-.19.47c-.08.01-.05-.01-.06-.04-.17-.31-.33-.63-.48-.95,0-.02-.05-.03-.05-.07l.47-1.05.1-.09c.1-.01.06.13.09.19.03.08.16.25.21.35.09.17.14.37.25.53,0-.17.02-.43,0-.59-.01-.1-.09-.16-.08-.26h.42c.01.1-.1.16-.11.26-.03.17.03.37.03.55,0,.21-.01.36,0,.58l.58.17s.18-.04.21-.06c.01-.01.04-.09.05-.1.08-.43,0-.83.03-1.26.01-.08.03-.16.03-.25.09,0,.11.1.17.16.17.17.37.33.54.5.04.05.07.14.11.17.07.07.2.07.17.22,0,.04-.07.03-.08.05ZM14.68,14.08l.02-.11h.62v.11c-.22.03-.42.03-.64,0ZM15.47,13.84s-.08-.16-.06-.18c.17.03.29-.06.45-.06-.03.08.01.19-.08.21v.04l.05.05-.08.21-.22-.09c.03-.18-.01-.1-.06-.18ZM16.34,22.84l-.03.03s-.07.22-.1.23c-.09.02-.07-.06-.09-.12-.03-.05-.06-.11-.06-.17-.01.01-.04,0-.06,0,.01.11.03.19.09.29l-.4-.03.07-.13c.04-.15-.01-.3-.01-.45.02-.36.01-.71.03-1.06,0-.07,0-.15.03-.21,0-.04-.03-.05.04-.05.06.11.37.27.6.39.12.07.22.13.23.17.03.13-.07.11-.11.15-.01,0,0,.03-.01.05-.04.04-.2.14-.21.19,0,.04.03.1.05.13.08.11.32.16.28.36-.04.01-.08.01-.11.03-.07.06-.13.13-.23.2ZM18.08,23.09s-.07-.02-.1-.02c-.07-.01-.15,0-.23,0,.04-.16.03-.26-.04-.4-.03-.06-.02-.06-.1-.05-.02.06-.16.13-.21.19h-.04s-.01-.05-.03-.07c-.04-.02-.11-.08-.14-.1-.03-.01-.05-.03-.08-.02.03.1-.06.16-.08.22-.02.08.11.25-.02.25-.03,0-.11-.02-.16-.02-.05-.01-.18.03-.17-.05.22-.29.27-.67.39-1.02.08-.25.16-.54.26-.79.01-.04.04-.12.1-.12l.69,1.94-.04.06ZM19.55,23.07c-.11-.01-.22-.03-.33-.03,0,0-.02.03-.06.03-.16-.01-.08-.11-.11-.17-.04-.06-.29-.3-.36-.41-.03-.04-.03-.1-.03-.1,0-.01-.11,0-.08-.09.11-.19.21-.39.31-.59.03-.07.09-.13.08-.23-.13,0-.29-.02-.42-.02-.13.15-.03.41-.03.58-.01.29-.06.59.01.89,0,.04.1.15,0,.14-.11-.01-.2-.04-.32,0-.01-.08.04-.13.05-.21.03-.22-.03-.6-.02-.82,0-.17.06-.41.02-.58-.01-.06-.09-.15-.14-.19l.05-.04,1.11.03-.03.22-.39.79s.05.17.05.18c.01,0,.04-.01.06.02.16.21.34.43.59.54v.06Z"/>
    <path class="cls-9" d="M17.61,7.95c-.11.22-.21.45-.33.67l.14.26c.08-.05.1-.28.17-.33.05-.03.28-.04.31.03l.03.25c-.09.09-.19.12-.2-.04h.08s0-.1,0-.1c-.02-.06-.12-.06-.17-.03-.06.09-.07.28.03.34.08.04.57.05.71.08.05,0,.3.09.3.12-.04.24-.66.61-.7.74-.05.16.08.34.23.26.09-.05.08-.1,0-.17l-.1.06v-.14c.24-.1.19.08.28.23l-.23.18c-.22-.11-.38-.17-.3-.46.04-.12.62-.52.7-.7-.2-.03-.84-.04-.98-.14-.05-.04-.05-.1-.1-.11l.13.25.72.09c0,.05-.04.08-.07.11-.14.13-.31.27-.45.4-.02.04-.01.07-.01.11h-.11c-.01-.1-.05-.21-.06-.31,0-.01,0-.07.06-.08,0,.04.05.08.03.14.05.05.35-.23.4-.28l-.41-.06-.04.06s.02.07.02.11c-.18-.1-.15.12-.31.08,0-.05,0-.1,0-.15-.02-.05-.09-.07-.08-.13h.23c-.19-.4-.47-.79-.79-1.07.05.01.08-.05.08-.06.06-.03.51-.19.54-.17l-.21.37-.02-.11-.2-.03c.03.13.15.21.28.19l.29-.48h.11Z"/>
    <path class="cls-34" d="M17.7,9.5s0,.02,0,.03c-.05.01-.05.07-.06.08,0,0-.05-.01-.06.02.06.46.03.93.03,1.4.04,0,.04-.05.05-.08.08-.31.08-.71.04-1.02h.11c0,.19.04.4.03.61-.01.18-.16.62-.09.75l-.06.11s-.05-.03-.08-.03c-.01.04.03.07.03.08,0,0-.04,0-.06,0,0,0-.02-.06-.06-.06.02-.06.03-.16.02-.23-.03-.11-.2-.43-.26-.56-.09-.19-.24-.37-.29-.57-.04-.04-.05,0-.06.04-.01.11.03.19.03.28,0,.12-.05.25-.03.4.01.11.09.16.09.27l-.42-.03c.02-.09.11-.09.11-.2,0-.05-.03-.1-.03-.11.02-.32.06-.82.03-1.13.27-.03.18.03.25.19.1.24.27.47.36.72l.1.03c.03-.07-.02-.15-.03-.2-.02-.23.02-.47,0-.71.17.03.13-.18.31-.08Z"/>
    <path class="cls-34" d="M17.64,11.45c.15.1.25.29.37.42l-.42-.06c0-.05.07-.02.09-.1,0-.04-.02-.21-.03-.27Z"/>
    <path class="cls-30" d="M13.4,7.22l.03.76s.05,0,.06-.04c.02-.17,0-.36-.03-.52.15.02.17.23.31.25,0,.06-.08,0-.13.06-.02.01-.08.16-.07.17.1-.03.22-.06.25-.17,0,0,.09,0,.08.08-.08.03-.59.4-.68.48-.35.3-.68.79-.81,1.23-.02.07,0,.08.05.04,0,0-.06.22-.06.23.1,0,.19-.05.28-.08,0,.06.03.15.06.2-.16.1.07.29.14.39.09.14.14.31.29.4-.02.01-.05.05-.09.06-.25.1-.4.13-.54.39l-.04-.23c.15,0,.24-.13.37-.17l-.08-.17s.07-.06.11-.07l-.54-.75c-.08.32-.06.61-.03.93,0,.04,0,.08,0,.11.02.11.05.21.08.31h-.06s0,.09,0,.14c-.28-.06-.55-.16-.82-.25,0-.04.03-.08.03-.11.24.08.57.09.73.28l-.03-.16-.53-.12.4-.2-.05.14.17.12s-.05-.26-.06-.31c0-.05-.03-.18-.03-.2,0-.1.05-.3.06-.41,0-.08,0-.17,0-.25-.01-.03-.4-.35-.46-.41-.03-.03-.08-.06-.07-.11.16-.05.69,0,.79-.13.03-.04.06-.16.09-.21,0-.01,0-.04,0-.06.06,0,.07-.04.1-.08.2-.26.38-.48.63-.7.02-.3-.03-.59-.02-.88.05,0,.1.01.14.03ZM12.36,9.31c-.12,0-.24.02-.35.03-.04,0-.08-.02-.07.04.04.05.3.29.34.27l.09-.34Z"/>
    <path class="cls-28" d="M13.26,7.19c0-.07,0-.14,0-.21,0-.04-.02-.08.04-.07.2.11.57.68.72.75.07.03.18-.04.25-.04l-.22-.25.07-.23c.16-.06.4-.06.32.17l-.14.03.06-.11-.14-.03c-.08.2,0,.21.13.29.02.01,0,.07.07.05v-.06c.21-.11.26-.45.38-.68.02-.04.16-.25.17-.26.08-.01.21.19.24.27.04.09.08.17.12.25s.11.33.16.37c.15.11.42-.04.29-.21h-.12s.03.11.03.11c-.08.02-.14-.05-.14-.13-.01-.16.24-.08.34-.09l.06.29-.22.22.28.07.03.13c-.41-.13-.83-.2-1.26-.17-.2.01-.67.11-.86.17,0-.08-.08-.08-.08-.08,0-.01,0-.06-.03-.1-.04-.05-.32-.39-.35-.4-.02-.01-.04,0-.05,0-.04-.02-.09-.02-.14-.03ZM15.52,7.53s-.08,0-.11-.04c-.06-.08-.14-.32-.19-.43-.02-.04-.21-.42-.24-.4,0,.14-.1.1-.11.11,0,0,.03.06.02.11-.02.07-.26.54-.3.6-.03.04-.08.03-.08.07.07,0,.14.02.2-.04.09-.1.23-.5.28-.64.07-.01.04.01.06.04.08.13.1.29.15.41,0,.01.12.18.12.19.04.04.17.08.2.01ZM15.04,7.13c-.06-.01-.04,0-.06.04-.02.04-.15.35-.13.36h.34s-.14-.4-.14-.4ZM14.39,7.58h-.06s.04.06.04.06v-.06Z"/>
    <path class="cls-49" d="M17.22,12.1c.13.02.32-.06.39.08.13.25.01.28-.2.38-.06-.07-.09-.13-.04-.23l.06.08c.14.02.13-.1.08-.19-.55-.06-.17.55-.14.83.01.11,0,.23,0,.35-.11-.04-.25-.06-.36-.11-.14-.06-.48-.31-.59-.32-.26-.02-.26.37-.09.33l.07-.11-.08-.06c.31-.08.19.21,0,.31-.36-.06-.29-.59.06-.59.17,0,.69.37.89.43.03-.04-.19-.77-.2-.89,0-.08.03-.11.06-.18.04-.04.06-.08.08-.11Z"/>
    <path class="cls-25" d="M12.56,8.85s0,.05,0,.06c0,0-.1.12-.11.13-.13.1-.67.1-.86.15-.04,0-.07,0-.1.04,0,.07.64.54.67.66.01.04.02.26,0,.29l-.3.17c-.07-.05-.24-.14-.22-.22,0-.03.08-.2.1-.21l.15.02.02.14-.1-.06c-.13.08,0,.22.1.18.13-.04.18-.18.14-.31-.01-.03-.41-.33-.48-.4-.05-.05-.22-.26-.23-.31-.01-.06.01-.03.04-.04.15-.05.32-.09.48-.11.28-.03.71.08.52-.38-.05-.02-.15-.03-.17.03v.1s.08,0,.08,0l-.03.11-.16-.03.04-.31.03-.02c.26-.07.39.09.38.34Z"/>
    <path class="cls-44" d="M14.62,9.5s.02.13.03.14c-.07.02-.05.05-.04.11.02.12.09.35.13.46.03.09.11.32.2.31.04,0,.25-.66.26-.76,0-.06.03-.12-.05-.15,0-.04.03-.06.03-.11h.28c-.23.49-.33,1.05-.56,1.53-.02.04,0,.1-.04.13,0,0-.09-.04-.06-.11,0,0,.05-.02.05-.04,0-.02-.06-.06-.07-.1-.07-.23-.12-.53-.19-.77-.05-.15-.15-.54-.21-.65h.23Z"/>
    <path class="cls-38" d="M15.72,9.5s-.06-.17-.03-.25l.69.03.26-.09.06.14.27-.03c-.06.21.12.39.21.57.07.14.09.32.22.42,0,.05.05.13.03.2l-.1-.03c-.09-.25-.25-.48-.36-.72-.07-.16.03-.22-.25-.19,0-.02-.03-.05-.03-.08l-.03.11c-.07,0-.08-.07-.16-.08-.16-.03-.37.03-.52.03-.07,0-.17-.05-.25-.03Z"/>
    <path class="cls-43" d="M13.6,12.67c.14.08.47.22.63.26.61.18,1.2.12,1.8-.06l-.02.12c-.28.1-.57.17-.87.17-.03.05-.07.09-.1.14h-.14s.04-.09.06-.13c0-.03-.04-.02-.06,0-.1.08-.19.4-.31.49l-.06-.4.09.05s.24-.12.19-.17l-.3-.03c0,.09-.07.08-.07.09l-.06-.14h-.03c0,.07-.01.12-.09.11,0-.03,0-.06-.01-.08l-.63-.28s-.06,0-.09.02c-.06-.01-.04-.06-.06-.08,0,0,0-.02,0-.03l.11-.06Z"/>
    <path class="cls-43" d="M13.38,9.5c0-.06-.06-.16-.03-.25.25-.01.53.04.78,0,.07,0,.11-.06.17-.06.05,0,.04.05.06.06.07.02.36-.02.38,0,.02.12-.12.12-.11.25h-.23s-.05-.07-.08-.08l-.04.17c-.06-.14-.2-.06-.29-.06-.1,0-.22-.02-.32-.03-.09,0-.19,0-.28,0Z"/>
    <path class="cls-49" d="M15.75,12.16c.05.04,0,.05.11.06,0,.02,0,.04,0,.06l.03.14h-.31c.05-.09.02-.21-.03-.3-.3-.04-.45-.06-.43.3l-.37.03s0-.04,0-.06c.07,0,.07-.03.08-.08,0-.02,0-.1,0-.11.04.01.09-.03.11-.03,0,0,.03.04.05.03.05-.04.24-.68.29-.8.01-.03.02-.08.07-.07.06.01.15.44.18.53.02.04.12.28.13.29.02.03.06.02.07.03ZM15.38,11.57c-.08-.01-.04,0-.06.04-.04.1-.07.22-.11.33l.28.03c0-.14-.13-.25-.11-.4Z"/>
    <path class="cls-49" d="M15.58,8.23v.14c.07-.04.14,0,.18,0,.06-.02.08-.12.16-.11l-.03.34c-.11-.05-.17-.12-.31-.08-.02.09.05.15.11.2l-.11.03v.05c-.09-.07-.2-.08-.17-.24-.18-.06-.09.13-.09.22,0,.12-.07.2.06.33h-.28c.04-.16.02-.31.03-.47,0-.04.03-.08.03-.1,0-.06,0-.11,0-.17,0-.04,0-.08,0-.11h.14c0,.08.07.13.14.11,0-.05-.03-.09-.03-.14.04,0,.15.01.17,0Z"/>
    <path class="cls-27" d="M14.82,12.16v-.28s.18.06.18.06l.34-.9.07.02.29.88.12-.02.07-.2.08.17c-.17.06-.08.14-.08.28h-.14s-.04,0-.07-.03c-.01-.02-.12-.25-.13-.29-.03-.08-.12-.51-.18-.53-.05-.01-.06.04-.07.07-.05.12-.23.76-.29.8-.02.01-.05-.03-.05-.03v-.06s-.11.08-.11.08c0,0-.02-.02-.03-.03Z"/>
    <path class="cls-25" d="M13.54,12.47h-.08c0-.08-.12-.17-.14-.25.19.05.28-.1.42-.16,0-.03-.13-.24-.16-.29-.05-.08-.12-.21-.15-.26.09.02.14-.06.2-.08,0,.15.42.63.43.72,0,.1-.31.13-.39.2,0,0-.11.11-.12.12Z"/>
    <path class="cls-38" d="M17.59,11.45c-.02.1-.09.25-.14.34-.03.06-.08.14-.11.2-.01.02-.08.07-.11.11-.03.04-.05.07-.08.11-.1.11-.1.09-.17.23,0,.02-.07.02-.08.03-.04.02-.3.18-.31.2-.03.04.03.07.06.08l-.06.06c-.18-.08-.28.11-.47.11v-.11c.37-.16.74-.44,1-.75.11-.13.37-.52.42-.66.03,0,.05.05.06.06Z"/>
    <path class="cls-30" d="M14.45,13.21s.05.45.06.52c0,.04,0,.07.04.1.11-.18.25-.35.35-.54h.14c-.19.27-.32.61-.53.87-.02.02,0,.05-.06.04-.06-.34-.1-.68-.17-1.02.07,0,.09-.05.09-.11h.03s.06.14.06.14Z"/>
    <path class="cls-2" d="M12.92,12.3c.1.18,0,.35-.03.55,0,.04-.04.07-.05.1-.02.11.02.28-.06.4.04-.02.15-.02.17-.03v.03s-.15.17-.25.11c-.01-.15.01-.29.04-.43.05-.27.33-.8-.17-.72l-.03.16.11.03v-.08s.08.05.08.05c.05.26-.33.1-.34,0,0-.05.06-.25.1-.26l.33-.03s.1.12.1.14Z"/>
    <path class="cls-43" d="M12.41,11.11c.18.59.53,1.06,1.02,1.44,0,.03,0,.07-.03.08-.06-.05-.16-.09-.23-.11-.04-.01-.08-.02-.11-.03.04-.23-.1-.15-.14-.2,0,0,0-.06-.03-.1-.19-.24-.51-.64-.54-.95,0-.05,0-.09,0-.14h.06Z"/>
    <path class="cls-44" d="M15.97,9.53c-.05.09-.03.21-.03.31,0,.16,0,.11.03.23,0,.03-.08.12.03.23-.11,0-.08.12-.08.2-.05-.04-.17-.05-.21-.14-.02-.05.01-.18.01-.25,0-.09,0-.14,0-.23,0-.12,0-.26,0-.37.09-.02.18.03.25.03Z"/>
    <path class="cls-34" d="M13.66,9.5c-.1.12-.03.25-.03.34,0,.08,0,.15,0,.23,0,.07,0,.15,0,.23,0,.05-.06.14,0,.23-.02-.01-.06,0-.09-.03-.24-.16-.14-.15-.13-.39,0-.1-.03-.18-.03-.25,0-.1.01-.22,0-.34.09,0,.19,0,.28,0Z"/>
    <path class="cls-38" d="M16,10.3c.23.11.43.33.68.4,0,.01.03.06.03.11-.11,0-.1.21-.23.2-.01-.05-.04-.13-.07-.17-.09-.09-.37-.26-.49-.34,0-.08-.03-.2.08-.2Z"/>
    <path class="cls-49" d="M12.95,13.32s.1-.09.15-.12c.09-.05.51-.27.57-.27.03,0,.26.08.26.09,0,.01.06.27.06.29,0,.12-.1.11-.18.15-.02.01-.02.05-.02.05-.04.02-.25-.15-.25-.21.03-.1.1-.15.2-.1l-.08.1c.07.11.14.07.23,0,0-.13-.09-.28-.24-.26-.11,0-.44.29-.58.33-.08.02-.11-.02-.11-.02v-.03Z"/>
    <path class="cls-38" d="M13.63,10.3c.23.04.4.26.58.36.05.03.2.03.18.1-.12.05-.12.23-.25.21.01-.14-.11-.13-.16-.18-.12-.11-.2-.18-.35-.27-.06-.09,0-.17,0-.23Z"/>
    <path class="cls-43" d="M16.62,8.03c.18-.07.38-.11.57-.18.17-.06.37-.17.55-.22.04,0,.05,0,.04.04-.03.09-.13.19-.17.27h-.11l-.04-.05c-.18.08-.38.13-.56.2-.04.02-.09,0-.08.08,0,0-.03.07-.08.06-.03-.02-.15-.13-.17-.14.02-.01.04-.05.06-.06Z"/>
    <path class="cls-49" d="M14.34,11.31c0,.08,0,.15,0,.23,0,.06,0,.11,0,.17,0,.08,0,.17.08.23-.07,0-.09.05-.08.11-.12-.08-.27-.07-.17-.31-.11-.03-.13.07-.23.08v-.37c.09.01.12.12.23.08,0-.05-.03-.1-.03-.16,0-.04.03-.07.03-.07.05,0,.12.01.17,0Z"/>
    <path class="cls-29" d="M13.06,9.59l-.07-.2-.18.25s-.07.04-.11.06c-.09.03-.18.09-.28.08,0,0,.05-.22.06-.23.01-.02.34-.17.41-.23.07-.06.12-.33.2-.1.04.13.02.23.16.32-.02.12-.1.04-.17.04Z"/>
    <path class="cls-31" d="M14.28,8.2c-.13-.03-.19-.07-.31.06v-.21s.05-.04.05-.04h.89c0,.08-.02.16-.03.25-.04,0-.11.01-.14,0-.01,0-.04-.07-.13-.08-.18-.03-.14.05-.15.05-.04.03-.13-.02-.17-.03Z"/>
    <path class="cls-49" d="M16.12,11.45c0,.08.1.11.08.2-.04,0-.06,0-.08.04.02.07.11.24.18.24.05,0,.05-.04.07-.06.06.01.15.29.14.31-.1.02-.17.09-.25.14.01-.08-.05-.13-.11-.17.22-.1.03-.14-.03-.3-.04-.02-.1,0-.14.02l-.08-.17h.11c-.06-.04-.04-.12-.06-.14.05-.06.11-.08.17-.11Z"/>
    <path class="cls-28" d="M15.16,9.62c.08.03.06.09.05.15-.01.09-.22.75-.26.76-.1.01-.17-.22-.2-.31-.04-.12-.11-.34-.13-.46,0-.05-.03-.08.04-.11,0,0,.04.01.05.05l.23.63c.08-.24.17-.46.23-.71Z"/>
    <path class="cls-18" d="M14.36,14.02c-.06,0-.12,0-.18,0-.16-.03-1.18-.41-1.18-.52,0-.04.08-.04.12-.04.09.02.37.19.49.24.14.06.64.18.7.23.03.03.05.04.04.08Z"/>
    <path class="cls-43" d="M12.16,10.44s.02.15.03.2l-.03-.03-.62.23s.03.05.03.06c0,.03-.02.08-.03.11-.09-.03-.21-.04-.3-.08-.03-.01-.05.01-.04-.06l.96-.42Z"/>
    <path class="cls-44" d="M14.45,8.23c0,.3-.03.61.06.9l-.25-.03.03-.9s.13.05.17.03Z"/>
    <path class="cls-43" d="M18.52,9.02s-.08-.02-.11-.05c-.05-.05-.22-.44-.29-.55-.05-.09-.42-.52-.36-.58.06-.01.07,0,.11.04.12.11.72,1.05.65,1.14Z"/>
    <path class="cls-43" d="M14.76,6.59s0,.09-.05.11c-.12.04-.33.04-.47.07-.27.06-.52.18-.78.22-.09-.08.28-.2.33-.22.3-.1.65-.18.97-.18Z"/>
    <path class="cls-38" d="M15.95,11.57c-.04-.05-.17-.1-.14-.23.19-.04.44-.17.52-.34l.18.34c-.18-.03-.26.03-.4.11-.06.03-.12.05-.17.11Z"/>
    <path class="cls-49" d="M11.34,9.42c.21.07.04.5.03.69-.01.18,0,.38.02.56l-.09.07s-.04-.06-.04-.1c-.05-.4.04-.83.09-1.23Z"/>
    <path class="cls-21" d="M17.76,11.28s.08.06.11.1c.14.19.44.51.54.69.01.02.04.11.03.12-.06,0-.11-.02-.17-.03,0-.06-.06-.12-.11-.14,0-.1-.1-.14-.14-.19-.08-.11-.21-.35-.31-.43l.06-.11Z"/>
    <path class="cls-18" d="M15.27,6.7l-.03-.11c.15-.06,1.24.21,1.24.3l-.12.06c-.35-.13-.72-.22-1.09-.25Z"/>
    <path class="cls-28" d="M11.96,11.68c0,.17.13.25.17.4-.21-.04-.35.12-.55,0l.07-.26.11.03c-.04-.08.16-.2.2-.17Z"/>
    <path class="cls-27" d="M17.11,13.43c.02.08-.02.05-.06.07-.33.22-.69.38-1.07.47,0-.04.01-.07.03-.09.05-.07.43-.19.55-.24.11-.05.46-.3.55-.2Z"/>
    <path class="cls-47" d="M15.86,13.6c-.03.08,0,.19-.09.21v.04s.06.04.06.04l-.09.21-.22-.09c.04-.18,0-.1-.06-.18-.02-.03-.08-.16-.06-.18.17.03.29-.06.45-.06Z"/>
    <path class="cls-21" d="M14.82,11.06c-.03.08.05.11.06.11.01.03,0,.1,0,.14-.05.01-.08-.04-.13-.05-.15-.02-.27.02-.41.05-.05.01-.12,0-.17,0,0-.05-.05-.15-.03-.23l.68-.03Z"/>
    <path class="cls-29" d="M13.43,11.51s-.16-.05-.1-.14c.04-.06.31-.13.38-.18.07-.05.09-.13.16-.18l.16.34c-.14-.01-.27.03-.4.08-.06.03-.11.1-.2.08Z"/>
    <path class="cls-28" d="M18.51,10.75s0,.07,0,.11c.23-.16.41.18.12.28l-.14-.11c-.04.09-.11.12-.21.11.02-.16.08-.28.06-.45.02-.02.15.04.16.06Z"/>
    <path class="cls-28" d="M18,12.63c-.1.13-.31.38-.44.48-.04.03-.06.05-.11.04-.07-.08.25-.34.31-.41.12-.15.25-.32.35-.49.06-.04.12-.05.13.03-.07.12-.15.23-.23.35Z"/>
    <path class="cls-44" d="M14.87,8.26c0,.06,0,.11,0,.17s0,.11,0,.17c0,.17-.02.34.03.51h-.23c.11-.27-.02-.56.06-.85.03.01.1,0,.14,0Z"/>
    <path class="cls-2" d="M13.18,12.53l-.1.45.41-.23s0,.07.06.08c-.06.03-.6.37-.62.34.01-.23.1-.45.14-.68.04.01.08.02.11.03Z"/>
    <path class="cls-43" d="M12.16,7.92c.01.21-.19.4-.31.58-.03.05-.25.59-.34.49.09-.34.3-.64.5-.93l.15-.14Z"/>
    <path class="cls-49" d="M18.69,9.48c.08.39.1.79.08,1.19-.19-.03-.1-.38-.11-.55-.01-.13-.11-.52-.06-.6.02-.03.05-.05.09-.04Z"/>
    <path class="cls-30" d="M17.44,11.79c.08,0,.07,0,.09.06.03.07.49.11.61.17.05.03.11.08.11.14-.31-.04-.63-.1-.93-.17.04-.05.08-.14.11-.2Z"/>
    <path class="cls-43" d="M11.96,12.31s0,.05.02.06c.1.11.17.22.26.32.07.09.47.4.38.51-.05.01-.07-.03-.1-.06-.1-.08-.24-.23-.33-.32-.05-.06-.41-.5-.37-.55.04,0,.11.02.13.04Z"/>
    <path class="cls-40" d="M16.09,22.22c.09.09.18.21.28.3,0,.02-.06.1-.08.12-.01.01-.21.16-.23.17-.01,0-.04,0-.06,0-.02-.21.03-.43.03-.62.02.01.04.02.06.03Z"/>
    <path class="cls-21" d="M12.75,9.9c.06.1.18.28.25.38.05.07.31.34.26.41-.02,0-.07,0-.08,0-.15-.09-.2-.26-.29-.4-.06-.1-.29-.28-.14-.39Z"/>
    <path class="cls-21" d="M15.41,8.23c0-.08,0-.15,0-.23.2-.01.42.04.61-.06v.25c-.08,0-.31-.07-.39-.05-.06.02-.04.08-.05.08-.02.01-.13,0-.17,0Z"/>
    <path class="cls-29" d="M13.63,9.84c.09-.01.24.02.32,0,.05-.02.1-.18.16-.14.06.05-.02.15-.03.18,0,.03.03.07.03.1-.08-.03-.12.07-.17.08-.08.02-.22-.01-.31,0,0-.08,0-.14,0-.23Z"/>
    <path class="cls-29" d="M12.39,7.92l-.09-.02-.03-.27h.24s.05.11.05.11c.04-.05.22.06.23.07.03.09-.12.11-.17.16-.12,0-.08-.16-.23-.11v.06Z"/>
    <path class="cls-43" d="M16.54,7.36s-.23-.02-.23-.07c.02-.05.18-.15.19-.16.02-.03,0-.08,0-.1,0-.01.21-.07.25-.09l.05.24c-.02.06-.08.04-.11.05-.08.03-.2.03-.17.14Z"/>
    <path class="cls-29" d="M14.42,11.93s.05,0,.08.02c.08.05.26.16.31.21,0,0,.03.03.03.03,0,.02,0,.09,0,.11l-.11.03s-.32-.23-.4-.28c0-.07.01-.12.08-.11Z"/>
    <path class="cls-18" d="M15.18,9.5c0-.15-.08-.13-.11-.25h.54c0,.08-.1.11-.13.17-.02.03,0,.07-.01.08h-.28Z"/>
    <path class="cls-31" d="M12.78,10.58l.08.17c-.13.04-.22.17-.37.17-.1,0-.06-.11-.17-.11,0-.04,0-.08,0-.11.16.08.31-.03.45-.11Z"/>
    <path class="cls-18" d="M14.34,11.54c.15,0,.26.02.35-.11l.07.04-.03.35c-.08,0-.11-.09-.19-.11-.07-.02-.14,0-.21,0,0-.06,0-.11,0-.17Z"/>
    <path class="cls-43" d="M16.14,12.16c.07.04.12.09.11.17-.05.03-.12.04-.17.1-.06.06-.03.14-.11.13.02-.12-.09-.19-.11-.28,0-.02,0-.04,0-.06.09,0,.2-.02.28-.06Z"/>
    <path class="cls-43" d="M16.99,7.16s.49.32.52.37c.02.03.05.05.04.1l-.09.03c-.05-.1-.58-.39-.48-.49Z"/>
    <path class="cls-47" d="M11.59,11.67s-.06.06-.08.06l-.2-.71s.07,0,.1.03c.04.03.19.57.17.62Z"/>
    <path class="cls-27" d="M15.69,8.71s.21.13.26.15c.03.02.07.02.11.02.03.03-.08.25-.17.19,0,0-.02-.06-.04-.08-.08-.07-.18-.13-.27-.2v-.05s.11-.03.11-.03Z"/>
    <path class="cls-27" d="M13.21,7.07c.1.1-.45.35-.48.44-.27,0,.01-.18.12-.25.05-.04.33-.23.36-.19Z"/>
    <path class="cls-25" d="M15.32,13.97v.11c-.22.03-.42.03-.65,0l.03-.11h.62Z"/>
    <path class="cls-28" d="M18.43,11.93s-.11-.05-.11-.09c0-.03.16-.42.19-.49.01-.03,0-.08.05-.06.18.07-.12.51-.13.65Z"/>
    <path class="cls-34" d="M16.26,7.78c.08.03.08.06.2.08,0,.1.12.08.17.17-.02,0-.04.04-.06.06-.17-.11-.49-.14-.51-.37.02-.02.17.04.2.06Z"/>
    <path class="cls-29" d="M16.2,11.65c.07,0,.19.05.28.03l.03.2c-.06.01-.1-.04-.14,0-.02.02-.02.06-.07.06-.07,0-.16-.17-.18-.24.02-.03.04-.05.08-.04Z"/>
    <path class="cls-43" d="M13.15,10.01l-.06-.25c.08-.01.15,0,.17.1h.11c0,.06.03.14.03.24-.04,0-.11.01-.14,0,0,0-.05-.1-.11-.08Z"/>
    <path class="cls-31" d="M15.72,9.87c0,.09,0,.13,0,.23-.04,0-.11-.01-.14,0,0-.07-.06-.11-.11-.14,0-.05-.05-.13-.03-.2l.28.11Z"/>
    <path class="cls-21" d="M15.16,8.37c0,.06,0,.11,0,.17l-.28.06c0-.06,0-.11,0-.17l.28-.06Z"/>
    <path class="cls-29" d="M15.16,8.26s-.07-.22-.06-.23l.24-.03c.03.07-.04.19-.04.25h-.14Z"/>
    <path class="cls-28" d="M17.95,10.92c-.06-.03-.09-.09-.04-.14.07-.08.06.02.01-.15.09-.14.24-.08.19.09-.05.01-.07.02-.11.06s-.06.09-.06.14Z"/>
    <path class="cls-1" d="M16.71,7.22c.1.09.02.18.03.28-.03.04-.18-.13-.2-.14-.03-.11.09-.11.17-.14Z"/>
    <path class="cls-8" d="M12.39,7.92v-.06c.14-.04.11.1.23.11-.02.01-.11.22-.17.17l-.06-.23Z"/>
    <path class="cls-30" d="M13.06,9.59c-.06,0-.19.04-.25.06l.18-.25.07.2Z"/>
    <path class="cls-30" d="M15.72,13.37c-.03-.08-.09-.12-.02-.2l.08-.02.06.05v.09s-.12.07-.12.07Z"/>
    <path class="cls-18" d="M12.98,8.2s-.07-.13,0-.19c.12-.09.29.21,0,.19Z"/>
    <path class="cls-9" d="M12.81,8.32s.01.13-.03.16h-.12c-.07-.2,0-.19.14-.16Z"/>
    <path class="cls-44" d="M18,10.98s.04.12.03.14c-.07-.03-.08.07-.13.06-.14-.05-.05-.28.09-.19Z"/>
    <path class="cls-29" d="M16.26,7.67c-.22.08-.24-.22,0-.17,0,.06,0,.11,0,.17Z"/>
    <path class="cls-30" d="M16.46,7.87c-.01-.14.03-.15.17-.14l-.03.07h.05s-.03.08-.03.08c-.07.04-.12,0-.17-.01Z"/>
    <path class="cls-1" d="M14.11,9.98c0,.08,0,.15,0,.23-.1.02-.12-.08-.17-.14.05-.01.09-.11.17-.08Z"/>
    <path class="cls-47" d="M12.98,8.2c.01.15-.07.13-.17.11,0-.03-.06-.09,0-.13.07-.04.13.01.17.02Z"/>
    <path class="cls-25" d="M12.36,11.82c.1-.07.25.08.11.15-.12.06-.17-.11-.11-.15Z"/>
    <path class="cls-27" d="M12.33,11.59c-.12.08-.16-.1-.11-.19l.13.06s0,.13-.02.14Z"/>
    <polygon class="cls-8" points="15.41 13.4 15.24 13.34 15.27 13.24 15.43 13.26 15.41 13.4"/>
    <path class="cls-49" d="M16.26,7.67c.13-.05.17-.13.17.11h-.17s0-.08,0-.11Z"/>
    <path class="cls-2" d="M13.54,12.47s-.03.07-.05.1c.04.02.09.08.11.1l-.11.06s-.07-.07-.08-.08c.04-.02.02-.06.03-.08s.03-.03.03-.08h.08Z"/>
    <path class="cls-2" d="M12.44,11.76s-.17.07-.16-.06c.01-.17.23-.05.16.06Z"/>
    <path class="cls-44" d="M15.58,10.1s-.05.12-.14.08c0-.08.03-.15.03-.23.05.03.11.07.11.14Z"/>
    <path class="cls-34" d="M13.26,10.1l-.14.11.03-.2c.06-.02.1.08.11.08Z"/>
    <path class="cls-47" d="M17.95,10.92c0-.05.02-.1.06-.14.11.03.04.2-.06.14Z"/>
    <path class="cls-27" d="M14.84,12.3c0,.06-.01.08-.08.08,0-.02-.02-.05-.03-.06l.11-.03Z"/>
    <path class="cls-40" d="M17.64,9.62c.01.1.04.21.06.31.05.31.04.71-.04,1.02,0,.03,0,.09-.05.08,0-.46.03-.94-.03-1.4,0-.03.05-.01.06-.02Z"/>
    <path class="cls-40" d="M16.82,8.18c-.01-.07.03-.06.08-.08.18-.07.38-.13.56-.2l.04.05-.29.48c-.13.02-.24-.07-.28-.19l.2.03.02.11.21-.37s-.47.14-.54.17Z"/>
    <path class="cls-40" d="M17.7,9.5s0-.07-.02-.11l.04-.06.41.06c-.04.06-.35.33-.4.28.02-.06-.02-.1-.03-.14,0,0,0-.02,0-.03Z"/>
    <path class="cls-40" d="M16.71,9.56c.04.31-.01.81-.03,1.13-.25-.06-.44-.29-.68-.4-.11-.11-.02-.2-.03-.23.09-.01.23.02.31,0,.05.06.07.16.17.14,0-.08,0-.17,0-.25s-.04-.16,0-.25l-.2.16-.31-.02c0-.1-.02-.22.03-.31.16,0,.36-.06.52-.03.07.01.08.09.16.08l.03-.11s.03.06.03.08Z"/>
    <path class="cls-40" d="M17.7,11.4c.1.08.23.32.31.43.04.05.14.09.14.19-.12-.06-.58-.09-.61-.17-.03-.06-.01-.07-.09-.06.05-.09.12-.24.14-.34.01,0,.05,0,.06,0,0,.06.04.23.03.27-.01.08-.08.04-.09.1l.42.06c-.11-.14-.22-.32-.37-.42,0-.02-.04-.05-.03-.08.03,0,.06,0,.08.03Z"/>
    <path class="cls-40" d="M12.33,10.69c-.03-.32-.05-.61.03-.93l.54.75s-.08.05-.11.07c-.14.08-.29.19-.45.11Z"/>
    <path class="cls-40" d="M11.57,10.89s-.04-.05-.03-.06l.62-.23.03.03c0,.06.09.27.06.31l-.17-.12.05-.14-.4.2.53.12.03.16c-.17-.2-.5-.2-.73-.28Z"/>
    <path class="cls-40" d="M13.4,7.22s.03,0,.05,0c.02.02.31.35.35.4.03.04.02.09.03.1-.03.11-.15.14-.25.17-.01-.01.05-.16.07-.17.05-.05.12,0,.13-.06-.14-.02-.16-.24-.31-.25.02.16.05.36.03.52,0,.04-.02.09-.06.04l-.03-.76Z"/>
    <path class="cls-40" d="M12.36,9.31l-.09.34s-.3-.22-.34-.27c-.01-.07.03-.04.07-.04.12-.01.23-.03.35-.03Z"/>
    <path class="cls-40" d="M15.52,7.53c-.02.07-.16.03-.2-.01,0,0-.12-.17-.12-.19-.05-.12-.08-.28-.15-.41-.02-.03.01-.06-.06-.04-.05.14-.19.54-.28.64-.06.06-.12.04-.2.04,0-.04.05-.03.08-.07.05-.07.28-.53.3-.6.02-.06-.02-.11-.02-.11.02-.01.12.03.11-.11.02-.02.22.36.24.4.05.11.13.36.19.43.03.04.06.05.11.04Z"/>
    <path class="cls-40" d="M15.04,7.13l.14.4h-.34s.11-.32.13-.36c.02-.03,0-.05.06-.04Z"/>
    <polygon class="cls-32" points="14.39 7.58 14.38 7.64 14.34 7.58 14.39 7.58"/>
    <path class="cls-40" d="M14.45,13.21s.07,0,.07-.09l.3.03c.05.04-.18.14-.19.17l-.09-.05.06.4c.12-.1.21-.41.31-.49.02-.02.05-.03.06,0-.02.04-.04.09-.06.13-.11.18-.24.36-.35.54-.04-.03-.04-.06-.04-.1-.01-.07-.07-.5-.06-.52Z"/>
    <path class="cls-40" d="M16.09,21.63c.05.07.15.11.23.14,0,0,.02,0,.03,0,0,.03-.1.16-.11.17-.01,0-.05-.01-.08,0-.03.02-.04.12-.12.11,0-.11-.01-.36-.03-.45.04-.01.07.02.08.03Z"/>
    <path class="cls-40" d="M15.97,11.88s.1-.04.14-.02c.06.16.25.2.03.3-.08.04-.19.06-.28.06-.1,0-.06-.02-.11-.06h.14c0-.14-.08-.23.08-.28Z"/>
    <path class="cls-40" d="M15.38,11.57c-.02.15.1.25.11.4l-.28-.03c.04-.1.07-.22.11-.33.01-.03-.02-.05.06-.04Z"/>
    <path class="cls-40" d="M14.84,12.19l.11-.08v.06s-.07.04-.11.03Z"/>
    <path class="cls-47" d="M16.96,12.44l.17.68c-.17-.07-.33-.17-.5-.25-.04-.02-.06-.06-.06-.06l.06-.06s.05,0,.08.02c.04.02.27.17.29.15l-.11-.45s.07-.01.08-.03Z"/>
    <path class="cls-40" d="M16.88,12.47l.11.45s-.24-.13-.29-.15c-.03-.02-.07,0-.08-.02-.02-.01-.09-.05-.06-.08.01-.01.27-.18.31-.2Z"/>
    <path class="cls-31" d="M15.95,9.84l.31.02.2-.16c-.04.1,0,.17,0,.25-.08,0-.11.1-.17.11-.08.02-.22-.01-.31,0-.03-.12-.03-.06-.03-.23Z"/>
    <rect class="cls-40" x="9.59" y="20.69" width="10.87" height="3.43"/>
    <g>
      <g>
        <path class="cls-8" d="M15,18.72c-.19.14-.26.56-.48.68l-.31.6c-.12.02-.07-.02-.1-.05-.27-.39-.54-.8-.79-1.2l.81-1.21c.12-.02.13.17.17.22.09.13.25.29.33.42.11.16.15.4.35.53ZM13.74,18.83c-.03.31,0,.21.18.45.08.11.06.29.28.26l.41-.63-.09-.15c.04-.07.11-.14.08-.22-.02-.05-.31-.49-.36-.54-.04-.04-.12-.06-.19-.06-.02.19-.38.46-.41.63-.01.08.1.13.09.26Z"/>
        <path class="cls-34" d="M16.95,17.69c.11,0,.12-.02.2.04.39.31.77.62,1.15.93.05.05.09.09.19.09-.26.19-.43.45-.74.57.06-.06.29-.28.3-.32.06-.14-.02-.18-.03-.25s.07-.14.03-.21c-.03-.06-.23-.13-.31-.2-.04-.03-.3-.33-.37-.27.04.26-.04.52-.05.77,0,.1.06.19.04.28-.03.14-.37.21-.5.31,0-.02-.02-.03-.05-.04.02-.01.08-.11.08-.13.13-.53.01-1.04.06-1.58Z"/>
        <path class="cls-8" d="M15.46,17.83c-.05.22.05.47.05.7,0,.26-.01.46,0,.73,0,.04-.1.18,0,.28-.16-.04-.3-.09-.47-.07.01-.26.04-.52.05-.78,0-.04,0-.07,0-.11,0-.22.04-.54,0-.75h.37Z"/>
        <path class="cls-21" d="M11.37,18.65c0-.09.05-.33.12-.39.09-.09.47-.22.6-.29.19-.11.55-.33.68-.48.05-.06.04-.19.14-.1.08.07.16.19.23.27.03.04.13.02.09.13-.46,0-.83.34-1.21.53-.02,0-.13,0-.16.03l-.49.29Z"/>
        <path class="cls-43" d="M15.09,18.58s0,.07,0,.11c-.03.01-.07.02-.09.04-.2-.13-.25-.37-.35-.53-.09-.13-.24-.29-.33-.42-.04-.05-.05-.24-.17-.22l-.81,1.21s-.08-.04-.09-.1l.77-1.32.17-.12c.16,0,.1.16.14.25.05.1.28.31.36.44.14.22.22.47.41.66Z"/>
        <path class="cls-34" d="M12.02,18.33c0,.12-.18.1-.21.14-.09.1.03.43.02.55,0,.16-.05.33-.05.52,0,.1-.02.2.05.28,0,0-.04.03-.08.03-.58.02-.34-.35-.34-.62,0-.16-.07-.42-.05-.59l.49-.29s.15-.02.16-.03Z"/>
        <path class="cls-31" d="M16.95,17.69c0-.11.05-.21.05-.32.14,0,.19.13.28.2.28.22.61.42.88.64.07.06.12.17.18.21.11.08.33.08.28.28-.01.04-.11.04-.14.06-.09,0-.13-.04-.19-.09-.37-.32-.76-.63-1.15-.93-.08-.06-.09-.05-.2-.04Z"/>
        <path class="cls-29" d="M16.81,19.4s.04.02.05.04c.03.14-.15.27-.09.43-.42-.11-.83-.22-1.25-.32-.1-.1,0-.25,0-.28l.96.21c.07,0,.31-.05.34-.07Z"/>
        <path class="cls-27" d="M17.74,19.32c-.09.1-.08.13-.23.21-.03.02-.13-.04-.09.11-.07.05-.04.04-.14.07-.09.03-.19.04-.28.04-.04-.09-.1-.18-.09-.28.54-.02.7-.51,1.11-.71,0,.08.08.12.03.25-.02.04-.25.26-.3.32Z"/>
        <path class="cls-44" d="M13.04,19.15c-.01.1,0,.24,0,.34,0,.08.1.31.09.35-.04.11-.35.03-.46.02.05-.09-.04-.23-.05-.28,0-.11.06-.3.05-.43h.37Z"/>
        <path class="cls-31" d="M12.62,19.57c0,.05.09.19.05.28-.27-.01-.57-.03-.84-.04-.07-.09-.04-.19-.05-.28.14.03.33-.04.44-.03.09,0,.24.12.39.07Z"/>
        <path class="cls-21" d="M15.09,17.83c-.02-.12-.15-.2-.14-.32h.7c.01.12-.16.2-.19.32h-.37Z"/>
        <path class="cls-31" d="M12.67,19.15c-.02-.22-.29-.15-.21-.32h.67c-.02.12-.08.19-.09.32h-.37Z"/>
        <path class="cls-34" d="M17.27,19.72l-.16.25c-.1,0-.09-.15-.12-.21.09,0,.19-.01.28-.04Z"/>
        <path class="cls-34" d="M17.51,19.54c0,.07-.05.08-.09.11-.04-.15.06-.09.09-.11Z"/>
        <path class="cls-40" d="M13.74,18.83c.01-.13-.1-.18-.09-.26.03-.18.39-.44.41-.63.07,0,.14.02.19.06.05.05.35.49.36.54.02.08-.04.15-.08.22-.11.19-.28.37-.37.57l-.42-.5Z"/>
        <path class="cls-38" d="M14.53,18.75l.09.15-.41.63c-.22.03-.2-.15-.28-.26-.18-.24-.21-.14-.18-.45l.42.5c.09-.2.26-.38.37-.57Z"/>
      </g>
      <g>
        <path class="cls-8" d="M14.32,22.46l.42-1.38.08-.04.48,1.43c-.07,0-.13,0-.2,0,.03-.13.02-.22-.04-.34-.02-.06-.02-.06-.09-.05,0-.02,0-.07,0-.1,0,0,.04-.02.02-.08l-.2-.51s-.17.47-.18.53c0,.02.02.03.02.03,0,.05-.02.1-.02.15-.02-.02-.04-.03-.07-.02.03.09-.05.14-.06.2-.02.07.09.22-.02.22-.03,0-.1-.02-.14-.02Z"/>
        <path class="cls-27" d="M14.32,22.46s-.16.03-.15-.04c.19-.26.24-.59.34-.89.07-.22.14-.47.22-.69.01-.04.04-.1.09-.11l.6,1.69-.04.06s-.06-.02-.08-.02l-.48-1.43-.08.04-.42,1.38Z"/>
        <path class="cls-8" d="M15.8,21.06c-.11.14-.03.36-.03.51,0,.26-.05.52.01.78,0,.03.09.13,0,.12-.1,0-.17-.03-.28,0,0-.07.04-.11.05-.18.02-.19-.03-.51-.03-.71,0-.14.05-.35.02-.5.08,0,.16,0,.25,0Z"/>
        <path class="cls-49" d="M13.59,21.18c.01.08.02.3.02.39,0,0-.02.03-.02.06s.02.05.02.06c0,.17-.04.36-.02.54,0,.09.02.16.07.25l-.34-.02c.13-.16.05-.34.05-.5.01-.31,0-.62.02-.92.09-.02.18.06.2.15Z"/>
        <path class="cls-34" d="M16.41,21.09l-.34.68s.04.15.05.15c-.07-.02-.06.04-.05.08.03.14.25.29.32.43,0,0-.02.02-.06.02-.14,0-.07-.09-.1-.14-.03-.06-.25-.27-.31-.36-.02-.03-.02-.08-.02-.09.05-.15.25-.39.27-.53.01-.08-.01-.06-.07-.06.03-.06.08-.11.07-.2.08,0,.15-.04.25,0Z"/>
        <path class="cls-16" d="M15.55,21.06s-.09-.12-.12-.16l.04-.03.97.02-.02.2c-.09-.04-.17,0-.25,0-.11,0-.25-.02-.37-.02-.08,0-.16,0-.25,0Z"/>
        <path class="cls-31" d="M14.08,21.43c-.06-.05-.13-.07-.2-.1,0,0-.02,0-.02,0,0-.1-.13-.1-.2-.12-.02,0-.04-.04-.07-.02-.01-.08-.11-.17-.2-.15,0-.06.01-.13.03-.18,0-.03-.02-.04.04-.04.08.14.69.38.72.48.03.11-.06.09-.09.13Z"/>
        <path class="cls-8" d="M14.08,21.43s0,.03,0,.04c-.04.04-.18.12-.19.17,0,.03.03.08.05.11l-.05.13.19.21c-.06.05-.11.11-.2.17,0-.07,0-.12-.05-.17.02-.02.08-.09.07-.11-.08-.08-.16-.19-.24-.26.11-.04.29-.15.12-.25,0,0,.09-.13.1-.15.07.03.14.04.2.1Z"/>
        <path class="cls-29" d="M16.12,21.92s.03,0,.05.02c.14.18.3.38.52.47v.05c-.1,0-.21-.02-.29-.02-.06-.14-.29-.29-.32-.43,0-.04-.02-.1.05-.08Z"/>
        <path class="cls-27" d="M14.99,21.97s0,.08,0,.1c-.02.06-.14.12-.19.17h-.03s0-.05-.03-.06c-.03-.02-.09-.07-.12-.09,0-.05.02-.1.02-.15l.18-.1.16.12Z"/>
        <path class="cls-43" d="M16.09,21.28c.06,0,.09-.02.07.06-.02.14-.22.38-.27.53,0-.01-.09,0-.07-.08.09-.17.18-.34.27-.51Z"/>
        <path class="cls-21" d="M13.93,21.75c.07.1.28.14.24.32-.03,0-.07,0-.1.03l-.19-.21.05-.13Z"/>
        <path class="cls-38" d="M13.88,22.27s-.02.02-.02.02c-.05.03-.11.07-.17.1-.02-.05-.05-.09-.05-.15.01,0,.18-.14.2-.15.05.05.06.11.05.17Z"/>
        <path class="cls-8" d="M13.86,22.29s-.06.19-.09.2c-.08.02-.06-.05-.09-.1.06-.02.12-.06.17-.1Z"/>
        <path class="cls-40" d="M14.99,21.97l-.16-.12-.18.1s-.02-.02-.02-.03c0-.06.14-.53.18-.53l.2.51c.01.05-.02.07-.02.08Z"/>
        <path class="cls-29" d="M13.78,21.48c.17.1-.01.21-.12.25-.01-.01-.04-.01-.05-.02,0,0-.02-.03-.02-.06s.02-.05.02-.06c.07.01.08-.08.11-.09.02-.02.06,0,.07,0Z"/>
        <path class="cls-8" d="M13.86,21.33c-.07-.03-.15-.06-.2-.12.07.02.19.02.2.12Z"/>
      </g>
    </g>
    <path class="cls-40" d="M13.4,12.64s.08.07.08.08c0,0,0,.02,0,.03l-.41.23.1-.45c.07.02.17.07.23.11Z"/>
    <path class="cls-1" d="M16.46,9.96c0,.08,0,.17,0,.25-.1.02-.12-.08-.17-.14.05-.01.09-.12.17-.11Z"/>
  </g>
  <circle class="cls-40" cx="14.89" cy="10.74" r="5.3"/>
  <g>
    <path class="cls-45" d="M18.05,8.81c.1.02.08.15.21.13.01.04.01.09.03.13-.08-.01-.05.03-.05.08,0,.06.05.24.07.29.01.04.06,0,.08.02.05.03.06.76.05.87,0,.13-.04.28-.06.41s-.13.35-.04.46h-.05s0,.11,0,.11l-.02.02c-.07-.07-.11,0-.07.07,0,.01.05.02.07.04.13.16.26.32.39.48l-.48-.08.09-.11-.08-.3c-.07-.01-.04,0-.05.04-.03.06-.04.09-.08.14-.05-.01,0-.08.01-.11.01-.03.13-.23.01-.21.08-.22-.16-.56-.26-.76-.05-.1-.04-.25-.18-.28.02-.04-.04-.19-.07-.25-.06-.11-.18-.16-.16-.32-.04-.04-.05,0-.05.04-.02.11.03.22.03.34,0,.15-.04.34-.03.49,0,.14.09.19.11.32-.09.02-.18-.02-.27-.02s-.23.09-.25-.05c-.18.12-.14-.07-.27-.18-.21-.17-.47-.29-.69-.43s-.11-.21-.1-.43c-.14-.02-.19,0-.26.12h-.07c-.03-.12.02-.21.01-.32.13-.01.15.18.29.13.09-.03.02-.16.02-.2,0-.1-.05-.25-.05-.27.01-.11.04-.09.02-.25.17-.02.34.03.51.03.05,0,.09-.03.1-.03h.41s.06-.09.1-.08c.05.02.03.08.04.1v.16c-.09,0-.14-.09-.22-.1-.07,0-.12.03-.18.03-.07,0-.36-.04-.4-.02-.04.05-.07.14-.07.21,0,.09.02.14.02.19,0,.02-.07.15,0,.2.02.01.34.04.38.02.08-.04.11-.15.21-.16,0,0,.02.03.02.06,0,.05-.03.31-.03.33-.02.03-.04.03-.06.03l-.12-.18h-.39c-.07,0-.03.19.01.23-.07-.02-.06.04-.05.09.03.17.28.25.41.34.04.03.07.08.12.11.08.05.21.11.29.16,0,.02,0,.07,0,.1h.04s.06-.14.07-.18c0-.06-.03-.1-.03-.1.02-.36.08-1.13,0-1.45.12-.06.22.03.34-.03,0,.02,0,.03,0,.05,0,0-.03.04-.02.07,0,.17.19.42.26.56.08.16.11.36.24.48.09-.02.08-.12.04-.18,0-.09,0-.18,0-.27,0-.23,0-.46,0-.69.05,0,.14.01.15-.04l-.05-.19s.04,0,.05,0ZM18.2,9.17l-.05.04.04,1.7c.08-.28.07-.58.12-.87l-.1-.87Z"/>
    <path class="cls-22" d="M12.92,6.11s-.07-.21-.05-.23c.03,0,.05,0,.08.01.1.05.62.61.74.74.05.05.1.18.18.18s.19-.08.27-.08l-.28-.28.1-.34s.3.02.33.04c.12.06.04.31-.13.25l.05-.13-.16-.03-.05.17c0,.07.19.13.22.19.03.06-.07.17.04.16v-.21s.16-.04.16-.04c.17-.32.27-.78.53-1.05.03-.03.05-.06.09-.05.05.15.21.27.27.42.04.12.06.16.11.28.03.06.15.4.17.41.01,0,.2.05.23.04s.21-.12.21-.13c-.02-.04-.03-.08-.05-.11.1,0,.11.11.18.1,0,.02,0,.04,0,.05-.16.02-.1.06-.15.14-.03.05-.11.05-.1.12.08.03.28.06.33.11.03.04.05.13,0,.15-.03,0-.5-.16-.6-.17-.58-.1-1.31-.01-1.87.15,0-.1-.12-.12-.16-.16-.17-.15-.37-.38-.52-.54-.03-.03-.06-.16-.16-.16ZM15.04,5.59c-.08-.02-.08.1-.11.12-.02.01-.06,0-.07,0,0,0,.03.05.02.1-.02.09-.31.67-.37.77-.02.04-.06.02-.06.06.06,0,.14.02.19-.03.1-.09.26-.63.36-.78l.11.17c.07.12.21.61.33.63.04,0,.08,0,.12,0l-.52-1.06ZM14.81,6.63h.41c-.06-.14-.11-.29-.17-.44-.01-.03.01-.07-.05-.06l-.19.49Z"/>
    <path class="cls-13" d="M12.63,8.81v.03l.03.03s0,.02,0,.03c0,.09,0,.17.03.26-.01,0-.2.03-.21.03-.03,0-.22.08-.23.08-.06.05,0,.16.03.22-.07-.02-.06.05-.05.09.02.13.23.35.31.47.03.04.03.1.06.15.06.09.18.18.2.3-.24.11-.47.17-.65.38-.07.08-.06.17-.18.14l-.03-.29s.07,0,.1-.01c.04-.02.37-.23.38-.24.04-.05-.06-.11-.09-.13.02-.02.11-.09.1-.12-.12-.08-.12-.21-.18-.31-.03-.06-.17-.16-.21-.21-.02-.03-.21-.41-.26-.35-.05.39-.08.75-.03,1.14,0,.03,0,.06,0,.08,0,.03.04.03.05.05-.02.09,0,.2.03.29-.04.02-.03.1-.02.14.04.18.18.54.26.71l-.3-.6c-.37-.11-.73-.22-1.1-.33,0-.09.1-.09.16-.13l.23.05.04-.1.43-.18-.05.18.2.13-.05-.36c-.06.03-.07.04-.1-.03.09-.04.11-.16.05-.23.04-.09.03-.7.08-.73.01,0,.06.02.08-.02.03-.05.07-.24.07-.29,0-.04-.02-.05-.02-.06,0-.07-.02-.13.03-.21l.16-.03c-.04.1-.06.2-.1.3h.05s-.03.19-.03.19c.04.04.48-.23.53-.29.09-.08.1-.24.22-.23ZM11.28,10.78c-.05,0-.1-.02-.16-.03v.04s.12.03.16.04c.13.05.29.09.4.16v-.11c-.13-.01-.26-.07-.4-.09Z"/>
    <path class="cls-45" d="M14.55,8.96c0,.05,0,.12,0,.18,0,.22.07.45.14.67.03.08.11.31.16.36.02.03.04.04.08.03s.25-.65.27-.74c.02-.12.03-.2.03-.32,0-.05,0-.14,0-.18h.34c-.11.42-.28.83-.42,1.25-.06.18-.1.44-.17.61-.03.07-.09.09-.11.19-.07.02-.07-.07-.08-.08.1-.09-.03-.14-.05-.23-.02-.07,0-.14-.01-.22-.03-.13-.15-.32-.19-.46-.07-.27-.11-.56-.21-.83-.03-.08-.1-.14-.12-.23h.34Z"/>
    <path class="cls-45" d="M12.99,8.96c.23.02.46-.01.68-.02.04,0,.1.03.16.03.11,0,.25-.09.31-.08.03,0,0,.05.01.05v.21c-.06,0-.07-.05-.12-.07-.12-.05-.18,0-.28,0-.06,0-.34-.04-.38-.02-.13.13-.05.25-.05.4,0,.04-.09.18.04.21.05,0,.29,0,.33,0,.04-.01.1-.09.14-.13.02-.02.06-.02.06-.03.04.04.02.4,0,.41-.09.05-.14-.18-.19-.18h-.38c-.01.09.02.17.03.26,0,.03-.07.08,0,.17l.78.5s-.1.22-.16.18c-.02-.08-.07-.16-.13-.22,0,0-.12-.1-.14-.11-.14-.1-.66-.34-.68-.49l.03-.27c-.06,0-.12,0-.17.02-.06.03-.08.13-.12.11-.09-.09,0-.22-.01-.34.09.02.2.16.29.13.07-.02.02-.14.02-.21-.01-.18-.03-.34-.05-.52Z"/>
    <path class="cls-48" d="M17.66,12.2c.15-.06.31,0,.47.01.04.09.14.29.08.36-.01.02-.25.17-.27.17-.09-.05-.17-.23-.05-.28.06-.03.02.08.08.1l.11-.03-.05-.19c-.15-.04-.33.01-.38.17-.02.05.17.62.19.75.03.16.03.34.03.5-.02.02-.41-.11-.47-.14-.12-.05-.63-.38-.7-.38-.16.01-.24.17-.25.31l.18.12.08-.13-.1-.06c.12-.13.2-.03.26.1-.06.06-.21.26-.28.24-.04-.01-.28-.17-.28-.21l.08-.4c.1,0,.15-.08.2-.11.03-.02.06-.02.08-.03l1.09.52-.23-1.08c0-.08.04-.13.07-.19.02-.04.05-.09.08-.13Z"/>
    <path class="cls-45" d="M15.9,12.2l.06.13s.08,0,.13,0c-.01.07,0,.12.03.18-.03.15-.29.05-.39.08-.01-.15.06-.36-.13-.39l-.05-.21s.06.02.05-.04c-.02-.1-.14-.28-.14-.4l-.19.4v.03s.05,0,.05,0l-.03.18c-.13.03-.08.1-.09.14-.02.1-.06.13-.02.25h-.4s-.03.04-.06.02c-.07-.17-.23-.24-.36-.35,0,0,.02-.04.07,0,.04.02.05.06.07.08.05.03.22.13.26.14.06.01.06-.14.06-.18.03,0,.04-.02.05-.03.06-.01.15-.02.18-.07l.38-1.05c.09-.02.11.25.12.29.04.13.09.29.14.41.02.05.15.36.17.38.02.01.04,0,.05.01Z"/>
    <path class="cls-22" d="M18.18,8.36s.07.09.1.1c.41.03.83.03,1.2.2-.16.36-.52.58-.8.86-.02.02-.07.04-.08.04,0,.01.03.21.04.23.06.14.26.15.35.04l-.09-.14-.12.05c-.03-.17.09-.19.23-.18l.13.32c-.1.08-.22.23-.36.19-.03-.01-.29-.17-.3-.2-.05-.1-.02-.3.05-.39.13-.18.48-.43.65-.6.05-.05.09-.12.14-.17l-1.15-.13s-.03-.06-.04-.08l.05-.13Z"/>
    <path class="cls-33" d="M13.28,12.85c.77.45,1.67.58,2.54.38.15-.03.29-.11.44-.12,0,.04,0,.08,0,.11-.02.07-.45.17-.53.19-.17.04-.35.06-.53.06-.02.05-.09.07-.09.07-.03-.02-.15-.02-.16-.03,0,0,0-.05-.01-.05-.04,0-.06.04-.09.05-.02,0-.06,0-.08,0,.04-.05.01-.07-.04-.08-.06-.01-.23-.04-.29-.03s-.03.02-.04.05c-.13.02-.13-.12-.29-.05l-.04-.07-.76-.29c-.07-.08-.12-.11-.03-.21Z"/>
    <path class="cls-15" d="M18.07,11.29c.11-.02,0,.17-.01.21-.01.03-.06.09-.01.11-.04.06-.06.12-.1.18-.04.05-.08.06-.13.18,0,.02,0,.07,0,.08,0,.01-.12.11-.16.16-.02.04-.06.09-.08.13-.06.04-.12.1-.17.15-.03.03-.03.08-.04.08-.01.01-.07.05-.1.08-.07.06-.23.13-.3.21-.02.02-.05.03-.04.06l.41.27v.1s-.06,0-.1-.02c-.11-.06-.37-.23-.47-.25-.09-.02-.09.05-.13.07-.02,0-.05.01-.08.03l-.24.08s-.05-.08-.02-.12c.02-.03.42-.22.5-.28.51-.33.99-.89,1.21-1.46,0-.02.05-.04.05-.04Z"/>
    <path class="cls-12" d="M13.07,6.26l.03.91h.08s-.05-.67-.05-.67c.03-.04.32.29.36.32.03.07-.1.02-.14.06-.02.02-.08.19-.06.21l.28-.13-.03-.09.05-.07s.16.05.16.16c-.11.03-.68.42-.8.52.02-.05-.02-.11-.03-.13-.04-.39.04-.85,0-1.24.1,0,.12.12.16.16Z"/>
    <path class="cls-39" d="M18.33,11.19s.04,0,.06.03c.25.31.53.64.75.96.02.02.09.11.07.13-.4-.06-.81-.14-1.22-.21-.03-.07-.07-.12-.05-.21l-.13.08c.05-.12.09-.13.13-.18l.16.05-.05.08.78.16-.57-.75.02-.02v-.11s.06,0,.06,0Z"/>
    <path class="cls-41" d="M17.97,8.29c.11.03.07-.06.11-.12.03-.04.07-.03.08-.04-.01.11-.03.14.03.23l-.05.13s-.07-.09-.1-.09l.17.29.86.11s-.09.13-.12.16c-.17.17-.38.32-.56.49-.02,0-.06.02-.08-.02-.02-.05-.06-.23-.07-.29,0-.05-.03-.1.05-.08.02.05.07.11.05.18.02,0,.04,0,.06,0,.02,0,.31-.25.34-.28.02-.03.05-.04.04-.08l-.54-.03s.02.06.03.08c-.13.02-.11-.11-.21-.13l-.31-.62c0-.05.03-.08.08-.1.02.04.13.2.16.21Z"/>
    <path class="cls-7" d="M14.11,13.42c.15-.07.16.07.29.05,0,.02,0,.06,0,.08h-.07s.11.75.11.75l.51-.78s.13,0,.16.03c-.01.02-.03.09-.06.14-.22.33-.41.7-.64,1.02-.02.02,0,.05-.06.03l-.23-1.32Z"/>
    <path class="cls-13" d="M15.71,7.43c0,.07,0,.14,0,.21,0,.07-.03.14-.03.21,0,.08.04.16.1.21-.08,0-.11.03-.1.1,0,0-.07,0-.11-.03-.15-.09-.04-.25-.07-.28-.22.04-.13.15-.13.3,0,.13-.05.17.02.32.02.04.08.03.06.11-.13-.02-.23-.04-.36,0,.11-.23.08-.48.08-.73,0-.06,0-.12,0-.18,0-.07,0-.14,0-.21h.18c-.02.1.07.23.18.21,0-.05-.04-.08-.04-.12,0-.03.02-.08.02-.11.07,0,.14,0,.21,0Z"/>
    <path class="cls-10" d="M12.4,12.28c-.01.1.11.18.14.26.03.09-.07.47-.09.6,0,.02-.04.02-.05.04-.03.14,0,.37-.08.51h.14c.07.14-.15.15-.25.14v-.43c0-.15.18-.55.2-.73.02-.19-.22-.29-.38-.24l-.04.18.12.05s.01-.12.06-.1l.09.09c-.02.05-.08.16-.14.16-.03,0-.26-.12-.27-.14-.06-.07.04-.29.07-.38l.48-.02Z"/>
    <path class="cls-13" d="M16.67,11.24c-.11,0-.2.15-.31.13-.03.03.05.17.08.21-.19-.03.01.24.05.27.07.06.11.03.18.04.03.07.2.36.15.41-.13,0-.21.12-.32.19-.05.03-.12.03-.17.06-.07.05-.07.17-.12.19-.06.03-.08-.18-.09-.21.09,0,.37-.1.36-.19l-.05-.12s.08-.06.08-.09c-.14-.13-.09-.3-.34-.25l-.08-.21s.07.02.1.01c-.06-.07-.11-.16-.15-.25.06.01.09-.01.13-.03s.33-.18.34-.2c.03-.03.05-.05.04-.1l.1.13Z"/>
    <path class="cls-14" d="M12.99,8.96c0-.06,0-.13,0-.19.03-.1.4,0,.5-.02.07,0,.12-.04.16-.05.09,0,.22.04.33.02.06-.01.08-.08.13-.08.04,0,.07.06.11.07.16.05.29,0,.45,0,.03.14-.12.14-.13.23h-.34s-.04-.02-.05-.03c0,0,.01-.05-.01-.05-.06,0-.2.08-.31.08-.06,0-.12-.03-.16-.03-.23,0-.46.04-.68.02Z"/>
    <path class="cls-37" d="M11.98,8.42s-.03,0-.04,0c-.03.03-.05.11-.14.11l-1.07.14s-.01.04-.02.05c-.01.02-.02.04-.05.05-.03-.04-.1-.08-.1-.14.01-.05.32-.13.38-.14.16-.03.78-.04.86-.09,0,0,.1-.16.1-.17,0-.06-.06-.17-.05-.24h-.23s0,.15,0,.15l.13-.03c-.03.19-.17.18-.28.06.03-.08.03-.32.12-.34.08-.02.28-.05.33.02.05.06.14.28.14.35,0,.04-.05.14-.07.19Z"/>
    <path class="cls-17" d="M14.86,12.23c-.08-.06-.06-.22-.1-.31.12-.08.17.12.27.05l.39-1.11c.1-.02.14.33.16.39.08.25.2.49.27.75.19.03.19-.17.18-.31.03,0,.05,0,.08,0l.08.21s-.09.05-.1.06c-.07.08.01.21,0,.3-.07.02-.11-.04-.16-.06-.02,0-.02.01-.03.01-.02,0-.04,0-.05-.01-.02-.01-.15-.33-.17-.38-.05-.12-.1-.28-.14-.41-.01-.04-.03-.31-.12-.29l-.38,1.05s-.12.05-.18.07Z"/>
    <path class="cls-14" d="M15.84,8.96c0-.06-.02-.13-.03-.19.02-.08.44.02.53.01.13-.01.25-.02.39-.03.12-.01.35-.19.28.05h.36c-.03.07,0,.16,0,.21-.12.05-.22-.03-.34.03,0-.02-.02-.03-.03-.05-.01-.03.01-.08-.04-.1-.04-.01-.09.08-.1.08h-.41s-.06.03-.1.03c-.17,0-.34-.05-.51-.03Z"/>
    <path class="cls-41" d="M12.03,8.36c.05.16.07.04.09.03.02-.01.04,0,.04,0-.06.15-.15.29-.21.44l-.16.03v-.05s-.52.02-.52.02c-.05.05.38.36.4.41.04-.04,0-.2.09-.18,0,0,.02.01.02.06,0,.05-.05.24-.07.29-.02.04-.07.01-.08.02-.16-.24-.46-.39-.64-.62-.02-.03-.05-.03-.04-.08l.91-.1s.08-.16.1-.21c.02-.02.04-.03.05-.05Z"/>
    <path class="cls-22" d="M10.71,8.73c.05.09.16.11.23.16.02.02.03.06.06.08.12.11.45.37.52.49.05.08.08.32.02.4-.01.01-.3.19-.32.19-.07,0-.29-.15-.3-.22.05-.14.07-.38.27-.29.09.04.07.11.07.2l-.16-.08-.05.12.16.12c.19-.1.22-.19.2-.4-.29-.2-.55-.43-.75-.72.03,0,.04-.03.05-.05Z"/>
    <path class="cls-10" d="M13.71,13.29c0,.13.09.3.05.42-.02.05-.26.19-.33.16-.02,0-.2-.2-.21-.21-.03-.1.17-.21.26-.14l-.1.12.14.09.12-.08c0-.16-.08-.31-.25-.33-.11-.01-.63.39-.81.43-.09.02-.1-.07-.05-.13.03-.04.73-.39.81-.41.14-.03.25.04.38.09Z"/>
    <path class="cls-15" d="M11.83,10.9c.13.48.46,1.06.8,1.41.07.08.45.37.47.4.01.02.04.15,0,.16-.09-.08-.25-.13-.31-.18,0,0-.08-.08-.1-.1-.08-.08-.21-.22-.29-.31-.13-.15-.25-.34-.34-.52s-.22-.53-.26-.71c0-.04-.02-.12.02-.14Z"/>
    <path class="cls-15" d="M16.96,7.25c.21-.08.48-.14.7-.22.09-.03.66-.29.7-.25.02.1-.1.2-.13.26-.06.03-.13.01-.18.03-.21.05-.54.19-.75.27-.04.02-.12.03-.1.09-.04,0-.09,0-.13.03-.04-.03-.15-.1-.21-.13.03,0,.1-.08.1-.08Z"/>
    <path class="cls-6" d="M14.31,7.43l.06,1.17c-.1-.04-.2-.03-.3-.03l.05-1.14c.06,0,.12,0,.18,0Z"/>
    <path class="cls-35" d="M14.18,14.38s.03.11.03.15c-.37-.04-.74-.18-1.08-.33-.14-.06-.36-.16-.49-.26-.03-.02-.07-.03-.06-.08.19-.08.34.09.5.16.17.08.35.16.53.22.1.03.53.11.57.14Z"/>
    <path class="cls-33" d="M14.73,5.49c0,.23-.17.16-.32.18-.28.04-.55.11-.82.19-.11.04-.31.16-.42.13-.09-.03-.1-.07-.02-.12.16-.09.52-.2.71-.25.28-.07.57-.11.86-.14Z"/>
    <path class="cls-45" d="M13.33,11.37s.04.16.05.18c-.07-.02-.06.04-.05.09.03.13.17.24.24.35.06.09.11.24.17.33-.1.05-.31.11-.38.16-.07.06-.11.24-.24.22,0-.07,0-.12-.03-.18.15,0,.26-.13.38-.21v-.04s-.07-.12-.07-.12c.01,0,.08-.06.08-.06-.09-.11-.15-.24-.23-.36-.04-.06-.17-.29-.18-.31.08-.04.18-.05.26-.08Z"/>
    <path class="cls-26" d="M14.83,7.46c-.08.01-.16-.02-.23-.03-.09,0-.19,0-.29,0-.06,0-.12,0-.18,0-.07,0-.18-.01-.24,0-.06.02-.08.11-.15.1.01-.07-.04-.31.04-.33.02,0,.13.02.18.03.26,0,.52,0,.75.02.04,0,.18-.06.2.02,0,.04-.08.11-.08.19Z"/>
    <path class="cls-6" d="M10.63,8.93s.06.12.08.14c-.09.46-.14.94-.07,1.4l-.16.07c-.07-.53-.03-1.07.1-1.59l.05-.02Z"/>
    <path class="cls-17" d="M18.99,7.86s.06.02.08.07c.07.13.17.34.2.48.01.06-.11.04-.14,0-.07-.08-.11-.27-.16-.36-.07-.13-.16-.27-.23-.39-.13-.2-.3-.38-.4-.59.02-.15.08-.09.15-.01.23.24.35.53.51.8Z"/>
    <path class="cls-15" d="M11.57,10.15c.06.07.04.2-.05.23,0,0-.03-.02-.04-.02-.21.11-.48.22-.66.33-.06.04-.16.04-.16.13-.09-.03-.19-.05-.29-.08l.03-.06,1.17-.53Z"/>
    <path class="cls-6" d="M14.83,7.46c0,.08.03.18.03.29,0,.05-.07.13.03.21-.01,0-.03.03-.05.03.03.2-.01.39.05.59-.1-.03-.18-.03-.28,0-.01-.08.04-.14.05-.22.02-.18.02-.57,0-.75,0-.07-.03-.1-.05-.17.08,0,.15.04.23.03Z"/>
    <path class="cls-33" d="M16.8,5.9c-.17.1-.34-.03-.52-.08-.2-.05-.43-.12-.63-.15-.08-.01-.26.02-.31-.04l-.06-.12c.46,0,1.04.1,1.45.3.04.02.09.03.08.09Z"/>
    <path class="cls-36" d="M19.45,8.99c.1.42.18.93.13,1.36-.01.09-.07.12-.13.05-.05-.06-.02-.55-.03-.67-.01-.2-.06-.43-.1-.62,0-.04.1-.14.13-.11Z"/>
    <path class="cls-45" d="M14.24,11.19c-.02.09-.05.22-.05.31,0,.07,0,.16,0,.23,0,.06.06.2.05.21,0,0-.08-.04-.05.09.02.08.1.09.1.17-.06-.03-.3-.16-.32-.21-.04-.09,0-.18.01-.26,0-.1,0-.13,0-.23,0-.11-.02-.23-.03-.34.1-.02.2.02.29.03Z"/>
    <path class="cls-17" d="M11.57,7.12c0,.06,0,.12-.01.18-.03.09-.33.47-.41.61-.06.1-.17.4-.22.46-.03.04-.12.05-.17.05-.08-.08.55-1.06.65-1.18.02-.02.13-.15.15-.12Z"/>
    <path class="cls-33" d="M16.18,14.46c.03-.24.39-.27.59-.36.12-.05.58-.32.64-.32.04,0,.07,0,.09.04.02.08-.39.28-.46.32-.27.14-.56.25-.86.32Z"/>
    <path class="cls-35" d="M11.34,12.53c.1.11.18.24.28.35.1.12.41.37.47.47.03.06.03.11.02.17-.05.01-.07-.01-.1-.04-.18-.13-.43-.42-.57-.6-.06-.08-.29-.37-.31-.44-.02-.06.11-.04.14-.03.07.02.05.08.08.11Z"/>
    <path class="cls-4" d="M13.07,11.45s-.16-.04-.09-.16c.04-.06.42-.18.5-.25.07-.06.07-.25.18-.18-.02.19.15.24.16.4-.12,0-.23.01-.34.04-.08.02-.11.05-.16.07-.08.03-.18.04-.26.08Z"/>
    <path class="cls-17" d="M18.9,12.33v.11c-.23.31-.51.76-.83.99-.04.03-.05.05-.1.04-.03-.2.21-.34.34-.48.08-.1.46-.64.5-.65.03-.02.06,0,.1,0Z"/>
    <path class="cls-26" d="M14.78,10.93s0,.1.08.08c0,.02,0,.05,0,.08-.05.02-.14.04-.13.1-.14-.03-.35,0-.49,0-.08,0-.19-.05-.29-.03,0-.05-.04-.21.02-.23.07-.02.23.02.33.02.07,0,.45-.05.48-.03Z"/>
    <path class="cls-17" d="M12.92,7.35s.05.08.03.13c-.14.12-.37.36-.49.51-.09.11-.19.31-.29.4,0,0-.02,0-.04,0-.01,0-.04.12-.09-.03.06-.08.12-.24.2-.34.18-.25.42-.51.69-.68Z"/>
    <path class="cls-5" d="M13.36,10c.19.05.35.2.51.31.04.02.09.03.12.06.08.05.13.17.28.13.03.14-.06.09-.13.18l-.78-.5c-.06-.09,0-.14,0-.17Z"/>
    <path class="cls-22" d="M14.55,9.14c.1.12.12.31.17.47.05.14.12.28.18.42l.32-.88c0,.12,0,.2-.03.32-.02.09-.23.73-.27.74-.04,0-.05,0-.08-.03-.04-.05-.13-.29-.16-.36-.08-.22-.15-.45-.14-.67Z"/>
    <path class="cls-26" d="M16.05,11.45s-.11-.08-.08-.18c.17,0,.25-.11.37-.18.11-.07.24-.04.22-.23.11-.03.09.08.13.16.04.07.09.13.15.19l-.04.06s-.1-.03-.14-.02l-.1-.13s0,.07-.04.1c-.02.02-.3.18-.34.2s-.08.05-.13.03Z"/>
    <path class="cls-15" d="M15.51,7.43c0-.05-.07-.21.02-.23.05,0,.1.02.15.03.09,0,.27,0,.36,0,.08,0,.13-.06.19-.07.05-.01.03,0,.04.04,0,.04,0,.29-.04.3-.15-.09-.34-.06-.5-.05-.07,0-.14,0-.21,0Z"/>
    <path class="cls-45" d="M17.19,7.43c.23-.04.42-.17.65-.21l-.21.44c-.09.02-.03-.07-.08-.12-.03-.02-.19-.05-.21-.04l.16.21c-.05,0-.1,0-.16,0-.04-.04-.24-.23-.29-.26.04-.03.09-.02.13-.03Z"/>
    <path class="cls-23" d="M11.9,9.14c.13-.13.37-.19.51-.31.12-.1.18-.46.27-.04l-.05.02c-.12,0-.13.15-.22.23-.05.05-.49.32-.53.29l.03-.18Z"/>
    <path class="cls-26" d="M12.27,9.48c.09.18.35.55.48.72.06.08.18.14.17.26-.04,0-.09.01-.13.03-.03-.12-.14-.21-.2-.3-.03-.04-.03-.11-.06-.15-.08-.12-.29-.34-.31-.47,0-.04-.02-.11.05-.09Z"/>
    <path class="cls-4" d="M10.92,12.17s-.06,0-.08-.04c.05-.13.06-.35.24-.24-.06-.08.13-.23.18-.23.04,0,.06.07.07.11.02.05.02.1.04.14.03.06.14.15.16.21.02.06-.07.03-.1.04l-.17-.26c-.11,0-.17.18-.19.19-.05.03-.16-.02-.16.09Z"/>
    <path class="cls-22" d="M17.97,8.29c.04-.16.07-.4.27-.42.3-.02.34.14.27.4-.1.06-.19.06-.23-.05-.03-.07.11-.02.13-.04.03-.14-.06-.2-.19-.15-.05.02-.05.08-.07.1,0,0-.05,0-.08.04-.04.06,0,.15-.11.12Z"/>
    <path class="cls-7" d="M12.79,12.69c.01.17-.11.33-.12.49,0,.04.02.05.02.05,0,.04,0,.09,0,.13-.03.01-.2.21-.21.09l.21-.87s.09.1.1.1Z"/>
    <path class="cls-23" d="M13.33,9.45c.12-.04.25.03.37,0,.09-.03.1-.2.23-.18.02.07.03.18-.03.23,0,0-.04,0-.06.03-.04.03-.1.11-.14.13-.05.01-.28.01-.33,0-.13-.02-.04-.16-.04-.21Z"/>
    <path class="cls-15" d="M15.79,8.05s.09.03.14.06c.13.09.23.17.38.22l-.16.25c-.07,0-.08-.09-.14-.16-.06-.06-.26-.22-.32-.26,0-.08.02-.11.1-.1Z"/>
    <path class="cls-26" d="M14.19,11.5c.19,0,.35.03.45-.16.12.02.02.14.01.19,0,.08.04.2,0,.3h-.08c.01-.15-.28-.15-.39-.1,0-.07,0-.16,0-.23Z"/>
    <path class="cls-23" d="M11.72,6.99c-.01-.07-.06-.15,0-.22.14-.02.34-.05.31.14.03-.06.28.07.28.08.04.07-.07.12-.13.13-.23.03-.16-.1-.22-.13-.06-.02-.17,0-.24,0Z"/>
    <path class="cls-5" d="M14.24,11.94c.17,0,.44.31.57.31,0,.04,0,.19-.06.18-.04,0-.22-.11-.26-.14-.02-.01-.03-.05-.07-.08-.05-.03-.07,0-.07,0-.03,0-.04-.02-.05-.03,0-.08-.09-.09-.1-.17-.03-.13.04-.08.05-.09Z"/>
    <path class="cls-15" d="M17.89,10c.04.06.05.17-.04.18-.14-.13-.16-.32-.24-.48-.07-.15-.26-.4-.26-.56,0-.03.02-.06.02-.07.2.23.27.54.41.79.03.06.08.1.11.14Z"/>
    <path class="cls-35" d="M17.4,6.19s.07.02.11.04c.11.06.53.37.59.47.04.05,0,.1-.05.11-.06.02-.24-.18-.31-.23-.14-.11-.35-.17-.35-.39Z"/>
    <path class="cls-15" d="M16.8,6.42s-.09-.02-.14-.03c-.04,0-.08.02-.07-.04,0-.05.1-.14.14-.17.03-.02.08-.02.09-.03.02-.02-.02-.1.02-.13.02-.02.28-.11.29-.1l.08.31s-.06,0-.08,0c0-.07.02-.09-.06-.08-.14.02-.27.11-.27.26Z"/>
    <path class="cls-6" d="M18.23,7.04c-.15.3-.28.61-.46.9-.02.06.02.09.05.14-.04.02-.08.05-.08.1-.09-.04-.13-.17-.18-.23.05,0,.09.02.13-.02.02-.02.32-.53.33-.57.02-.08-.02-.06-.07-.06.03-.06.07-.17.1-.23.05-.01.13,0,.18-.03Z"/>
    <path class="cls-39" d="M15.69,14.33s-.06.04-.1.02l-.11-.28c.21.03.35-.04.54-.1l-.03.29s-.06,0-.08,0c-.08.02-.15.05-.23.08Z"/>
    <path class="cls-17" d="M17.94,7.3c.06,0,.1-.02.07.06-.01.04-.31.55-.33.57-.04.03-.09.01-.13.02-.04-.05-.17-.19-.21-.23.05,0,.1,0,.16,0s.12,0,.11.05h.05c.07-.14.16-.28.24-.42.01-.02.04-.04.05-.04Z"/>
    <path class="cls-48" d="M10.89,11.65s-.1.1-.12.08c-.1-.28-.19-.56-.23-.86.22,0,.22.35.27.52.02.06.12.2.09.25Z"/>
    <path class="cls-4" d="M15.22,8.96c-.02-.08-.12-.11-.15-.18-.05-.14.17-.03.24-.03.12,0,.29-.05.43-.03.04.03-.17.19-.18.23h-.34Z"/>
    <path class="cls-37" d="M15.4,14.46v.16s-.76,0-.76,0c-.09-.02-.01-.15.02-.15h.74Z"/>
    <path class="cls-5" d="M12.32,10.33s.13.08.09.13c-.01.02-.34.23-.38.24-.03.01-.07.02-.1.01-.02,0-.11-.08-.13-.1-.01-.02-.04-.02-.05-.05,0-.03,0-.06,0-.08.09,0,.17.05.27.02.02,0,.28-.16.3-.18Z"/>
    <path class="cls-42" d="M19.08,11.99l-.05-.14c.11-.19.15-.41.22-.62.04-.12.15.01.14.11,0,.07-.19.55-.23.6-.02.03-.03.05-.07.04Z"/>
    <path class="cls-23" d="M19.06,10.7c0-.07,0-.14,0-.21l.22.08-.02.1.16-.08.2.22v.06s-.07.02-.07.02c-.06,0-.08-.06-.12-.07-.05-.01-.09.02-.12.02s-.14-.2-.25-.15Z"/>
    <path class="cls-39" d="M13.28,12.85c-.09.09-.04.13.03.21-.17.09-.34.19-.51.28-.04.02-.1.02-.11.03,0-.04,0-.09,0-.13l.49-.26s-.06-.09-.08-.1c.04,0,.01-.13,0-.16h.03s.11.1.16.13Z"/>
    <path class="cls-4" d="M13.38,11.55c.05.09.19.27.26.38.04.05.23.27.23.29.03.11-.09.09-.13.11-.06-.1-.11-.25-.17-.33-.07-.11-.21-.22-.24-.35-.01-.04-.02-.11.05-.09Z"/>
    <path class="cls-48" d="M16.78,7.09c.06.04.14.1.18.16,0,0-.07.07-.1.08-.1-.06-.51-.25-.54-.3-.02-.03-.06-.15,0-.14.09.01.36.15.45.21Z"/>
    <path class="cls-7" d="M19.55,10.9s-.08.1-.15.13l-.13-.13h-.04c-.05.14-.15.1-.26.1,0-.12.06-.18.08-.31.11-.05.22.15.25.15s.07-.03.12-.02c.04.01.07.08.12.07Z"/>
    <path class="cls-45" d="M15.92,14.25l.11.09-.13.29-.28-.13.08-.18c.08-.03.15-.06.23-.08Z"/>
    <path class="cls-45" d="M16.8,6.42c0-.15.14-.24.27-.26.08-.01.06.01.06.08,0,0-.03.03-.05.03-.02.07.05.03.05.09,0,.09-.05.16-.05.25,0,0-.12-.04-.13-.05-.04-.03-.07-.1-.16-.13Z"/>
    <path class="cls-45" d="M12.19,7.12l-.25.29c-.06-.08-.15-.18-.09-.28h-.13s0-.09,0-.13c.07.01.18-.02.24,0,.07.02,0,.16.22.13Z"/>
    <path class="cls-15" d="M16.44,11.58s.06.1.07.1l.29-.03.03.26c-.06.02-.11-.02-.16-.03-.07-.01-.11.02-.18-.04-.04-.03-.24-.3-.05-.27Z"/>
    <path class="cls-23" d="M13.41,12.17l.08.12v.04c-.13.07-.24.22-.39.21-.03-.09-.14-.14-.13-.23.19.07.29-.03.44-.13Z"/>
    <path class="cls-39" d="M13.98,11.5c0,.1,0,.13,0,.23-.15-.03-.15.11-.26.13-.02-.09.02-.19.02-.27,0-.04-.11-.27.02-.22.07.03.08.17.22.13Z"/>
    <path class="cls-17" d="M16.16,6.42c-.07,0-.08-.11-.18-.1-.01-.02-.02-.05-.03-.08l-.15.03.05.13h-.11c-.2-.28.11-.29.32-.27.04.09.11.2.1.3Z"/>
    <path class="cls-26" d="M15.71,7.64c.08,0,.13.04.21.02s.08-.15.18-.15c-.01.14,0,.24-.08.36l-.33-.02c0-.07.02-.14.03-.21Z"/>
    <path class="cls-45" d="M11.44,12.15c-.08.01-.22,0-.23,0,0,0,0,.05-.03.06-.05.04-.2-.01-.26-.04,0-.11.11-.06.16-.09.02-.02.08-.2.19-.19l.17.26Z"/>
    <path class="cls-10" d="M11.75,11.58c.06.02.11.03.14.08v.18c.12-.05.16.15.06.19-.18.09-.29-.12-.1-.21-.25-.04-.17-.08-.1-.25Z"/>
    <path class="cls-5" d="M16.44,12.23l.05.12c0,.1-.28.18-.36.19,0,0-.02-.02-.03-.03-.02-.06-.04-.11-.03-.18.1,0,.28-.05.36-.1Z"/>
    <path class="cls-26" d="M13.04,9.48c0,.06.05.18-.02.21-.09.03-.21-.1-.29-.13,0-.04-.09-.21-.01-.23.13.02.17.17.32.16Z"/>
    <path class="cls-5" d="M15.56,9.56s-.09-.21-.01-.23c.13-.03.16.22.32.15,0,.04.08.17-.02.2-.14.05-.16-.14-.29-.13Z"/>
    <path class="cls-23" d="M15.17,7.66c0,.06,0,.12,0,.18-.09.06-.21.07-.29.1-.1-.08-.03-.16-.03-.21l.31-.08Z"/>
    <path class="cls-35" d="M12.47,6.29s0,.07,0,.1c-.02.08-.27.29-.37.21l-.02-.06c.1-.07.2-.15.3-.22.03-.02.08-.02.09-.02Z"/>
    <path class="cls-37" d="M12.47,6.29s.03-.06.06-.08c.09-.06.35-.29.27-.02-.02.05-.26.21-.33.2,0-.03,0-.07,0-.1Z"/>
    <path class="cls-14" d="M15.17,7.46c0-.07-.06-.18-.05-.19.02-.06.1-.01.14-.02.04,0,.08-.02.13-.02.11,0-.03.21-.04.23h-.18Z"/>
    <path class="cls-23" d="M15.53,11.99l.05.21c-.08-.01-.24-.04-.31-.03l.03-.18c.08,0,.16,0,.23,0Z"/>
    <path class="cls-35" d="M18.77,10.54s-.02,0-.03,0c-.04,0-.11-.02-.13.03,0,0-.02,0-.03,0l-.05-.16c.01-.17.37-.12.23.14Z"/>
    <path class="cls-42" d="M12.32,7.59s.03.02.03.03c.02.08,0,.21-.11.2-.2-.02-.13-.35.09-.23Z"/>
    <path class="cls-10" d="M16.75,6.91c.06-.02.1-.09.19-.03.02.02.07.2,0,.21h-.16c-.03-.06-.02-.12-.03-.18Z"/>
    <path class="cls-35" d="M16.52,6.81c-.26.12-.28-.24-.07-.21.14.02.07.14.07.21Z"/>
    <path class="cls-41" d="M15.89,13.47c.21-.07.22.29,0,.22-.1-.03-.08-.2,0-.22Z"/>
    <path class="cls-15" d="M12.55,7.46c-.01-.06-.11-.12,0-.22h.18s-.02.19-.02.19c-.04.05-.11.04-.16.04Z"/>
    <path class="cls-37" d="M11.75,11.58c-.05-.01-.12.03-.17-.05-.05-.08.03-.07.04-.1.02-.06-.03-.12.11-.08.13.04.05.16.02.23Z"/>
    <path class="cls-48" d="M18.67,11.01l-.1-.03-.04.08c-.27-.22.19-.41.14-.05Z"/>
    <path class="cls-10" d="M15.38,13.78v-.07s-.08-.02-.08-.02c-.02-.13.04-.17.16-.14.14.04.05.25-.09.23Z"/>
    <path class="cls-48" d="M16.73,6.73c0,.07.02.12.03.18-.07.03-.09.07-.17.03-.06-.03-.06-.08-.06-.14.08-.04.07-.09.21-.08Z"/>
    <path class="cls-4" d="M18,8.81l.05.19c-.02.05-.11.04-.15.04,0-.12-.11-.19-.1-.22.01-.05.16-.02.21-.01Z"/>
    <path class="cls-41" d="M12.55,7.46c.02.11-.1.24-.21.16,0,0-.02-.02-.03-.03-.02-.24.11-.14.23-.13Z"/>
    <path class="cls-7" d="M18.59,10.57s.02,0,.03,0c.12,0,.15.09.06.18l-.14.02c-.07-.08-.07-.18.05-.2Z"/>
    <path class="cls-48" d="M15.69,13.72s0-.03-.01-.04c-.04-.02-.09,0-.12-.05.01-.08.07-.13.14-.14.14.02.09.28,0,.23Z"/>
    <path class="cls-17" d="M12.66,8.88c.06,0,.21.21.21.25-.02.08-.16.01-.18.01-.03-.09-.02-.17-.03-.26Z"/>
    <path class="cls-42" d="M12.22,7.15s.2.09.23.12l-.12.14c-.07.02-.09-.21-.12-.26Z"/>
    <path class="cls-36" d="M16.8,6.5s-.2.22-.23.18l.05-.22.18.04Z"/>
    <path class="cls-42" d="M18.77,10.54c.08,0,.16,0,.23-.03l-.04.21s-.23-.12-.22-.18c0,0,.02,0,.03,0Z"/>
    <path class="cls-10" d="M16.96,6.55l-.05.23c-.07,0-.12-.04-.18-.05.01-.09.15-.18.23-.18Z"/>
    <path class="cls-36" d="M15.71,13.78l-.05.23h-.07c-.02-.07-.07-.13-.05-.21l.18-.03Z"/>
    <path class="cls-48" d="M18.98,10.88c-.08,0-.15.03-.23,0l.02-.18s.25.15.21.18Z"/>
    <path class="cls-48" d="M11.64,11.79c-.06,0-.13,0-.19,0-.04,0-.08.02-.06-.04l.17-.14.09.18Z"/>
    <path class="cls-48" d="M15.87,13.73l.05.19s-.13.07-.18.07l.05-.26h.08Z"/>
    <path class="cls-10" d="M12.19,7.28l.05.26-.18-.12c0-.07.05-.16.13-.14Z"/>
    <path class="cls-36" d="M11.72,11.86s-.13.15-.17.16-.08-.09-.09-.12c-.01-.05,0-.03.04-.04.07,0,.15,0,.22,0Z"/>
    <path class="cls-19" d="M18,12.1c-.06,0-.14,0-.18-.05,0,0,0-.06,0-.08l.13-.08c-.02.08.03.14.05.21Z"/>
    <path class="cls-45" d="M14.86,11.09c0,.06,0,.12,0,.18h-.04s-.06-.07-.09-.08c-.01-.06.08-.09.13-.1Z"/>
    <path class="cls-17" d="M12.66,8.86l-.03-.03s.02.01.03.03Z"/>
    <path class="cls-5" d="M16.18,9.97c.07.07.12.02.13.03,0,0-.01.05.02.08.02.02.13.05.17.08.13.09.27.22.41.29.04.02.08.05.13.04,0,0,.03.05.03.1,0,.04-.1.07-.1.08-.09-.05-.22-.11-.29-.16-.05-.03-.08-.08-.12-.11-.13-.09-.38-.17-.41-.34,0-.05-.02-.1.05-.09Z"/>
    <path class="cls-5" d="M16.16,9.45l.34.02c.13-.02.14-.22.28-.2-.03.08-.02.15-.03.23-.1.01-.13.13-.21.16-.04.02-.36,0-.38-.02-.07-.05,0-.17,0-.2Z"/>
    <path class="cls-42" d="M14.76,13.52s.06,0,.08,0l-.31.57s-.05-.04-.05-.07c-.02-.14-.03-.31-.05-.45.13.12.22,0,.34-.05Z"/>
    <path class="cls-7" d="M17.37,12.56l.21.86s-.21-.12-.23-.13v-.1l.05-.04-.13-.51s.09-.07.1-.08Z"/>
  </g>
  <text class="cls-20" transform="translate(13.17 25.86)"><tspan x="0" y="0">0.999 FINE</tspan></text>
  <path class="cls-11" d="M21.85,8.95c0,5.48,0,10.97,0,16.45-.07.8-.68,1.44-1.48,1.54h-6.61s6.29-13.79,8.09-17.99Z"/>
</svg>