<svg width="13.367" height="13" viewBox="0 0 13.367 13" xmlns="http://www.w3.org/2000/svg">
    <path d="M3.632 0a2.24 2.24 0 0 0-1.05.265C1.225.951.06 2.813.003 4.367l1.179.4C1.304 3.025 2.507 1.153 4.04.38c.124-.063.248-.118.37-.164l-.626-.21A2.363 2.363 0 0 0 3.632 0zm1.671.568c-.295-.002-.643.088-1.025.28-1.358.686-2.524 2.55-2.578 4.096l4.406 1.499C6.216 4.69 7.424 2.8 8.968 2.02c.12-.061.241-.114.361-.16L5.541.593A1.236 1.236 0 0 0 5.303.57zm4.927 1.643c-.295-.003-.643.087-1.025.28-1.368.69-2.541 2.576-2.58 4.129l1.302.442c.11-1.75 1.318-3.64 2.86-4.418a3.62 3.62 0 0 1 .382-.167l-.748-.25a1.261 1.261 0 0 0-.19-.016zm1.79.62c-.29.002-.622.094-.995.282-1.328.67-2.472 2.467-2.573 3.992l4.915-2.076c-.011-1.099-.302-1.726-.687-2.002a1.015 1.015 0 0 0-.213-.116l-.133-.044a1.22 1.22 0 0 0-.314-.036zM0 4.92 0 10.202l1.442.408v-5.29l-1.44-.397zm1.697.578v5.293l4.4 1.53V6.997l-.818-.278v3.363l-2.845-.96V5.75l-.737-.251zm11.664.104L8.464 7.67V13l4.898-2.07V5.603zM2.96 5.929v2.814l1.793.605v-2.81l-1.793-.61zm1.108.81c.398 0 .72.222.72.495 0 .179-.138.335-.344.422v.803h-.767v-.81c-.199-.087-.33-.24-.33-.415 0-.273.322-.494.72-.494zm2.556.436v5.33l1.441.457v-5.34l-1.442-.447z" fill="#FFF" fillRule="nonzero"/>
</svg>
