<svg width="23" height="27" viewBox="0 0 23 27" fill="none" xmlns="http://www.w3.org/2000/svg">
<path fill-rule="evenodd" clipRule="evenodd" d="M21.7539 11.9992H19.6281V4.9966C19.6281 2.78641 17.8368 0.995117 15.6266 0.995117H7.87373C5.66354 0.995117 3.87225 2.78641 3.87225 4.9966V11.9992H1.74646C1.19313 11.9992 0.746094 12.4462 0.746094 12.9996V25.004C0.746094 25.5573 1.19313 26.0044 1.74646 26.0044H21.7539C22.3072 26.0044 22.7542 25.5573 22.7542 25.004V12.9996C22.7542 12.4462 22.3072 11.9992 21.7539 11.9992ZM12.7832 19.4082V21.0651C12.7832 21.2026 12.6632 21.3151 12.5165 21.3151H11.1831C11.0364 21.3151 10.9164 21.2026 10.9164 21.0651V19.4082C10.3518 19.0281 10.1133 18.3497 10.3263 17.7292C10.5392 17.1088 11.1548 16.6881 11.8498 16.6881C12.5448 16.6881 13.1604 17.1088 13.3733 17.7292C13.5862 18.3497 13.3478 19.0281 12.7832 19.4082ZM6.12309 11.9992H17.3773V4.9966C17.3773 4.03062 16.5926 3.24595 15.6266 3.24595H7.87374C6.90775 3.24595 6.12309 4.03062 6.12309 4.9966V11.9992Z" fill="white"/>
</svg>
