<svg width="18" height="11" viewBox="0 0 18 11" fill="none" xmlns="http://www.w3.org/2000/svg">
<path id="Vector" d="M12.5345 2.63902L13.529 3.81171C13.6428 3.94531 13.7418 4.04921 13.7863 4.11354C14.0832 4.41042 14.2514 4.81121 14.2514 5.22685C14.2217 5.71671 13.9051 6.05317 13.6082 6.41438L12.9105 7.23081L12.5493 7.65634C12.5345 7.67119 12.5295 7.69098 12.5246 7.71077C12.5196 7.73056 12.5246 7.75035 12.5345 7.7652C12.5443 7.78499 12.5542 7.79984 12.574 7.80973C12.5889 7.81963 12.6087 7.82457 12.6285 7.82457H16.2603C16.8145 7.82457 17.5122 8.28969 17.4726 8.99726C17.4726 9.31889 17.339 9.62566 17.1114 9.85327C16.8788 10.0809 16.5671 10.2095 16.2405 10.2095H10.5503C10.1742 10.2095 9.16978 10.2491 8.88774 9.39311C8.82836 9.21498 8.81847 9.022 8.863 8.83892C8.94712 8.56678 9.07577 8.30948 9.244 8.08187C9.53099 7.65634 9.83777 7.23576 10.1445 6.82507C10.5404 6.28573 10.9412 5.76619 11.342 5.21695C11.3568 5.19716 11.3618 5.17737 11.3618 5.15263C11.3618 5.12789 11.3519 5.1081 11.342 5.0883L9.89714 3.39112C9.88725 3.38123 9.87735 3.37133 9.86251 3.36143C9.84766 3.35649 9.83282 3.35154 9.81797 3.35154C9.80313 3.35154 9.78829 3.35649 9.77344 3.36143C9.7586 3.36638 9.7487 3.37628 9.73881 3.39112C9.35286 3.90572 7.65568 6.18677 7.29447 6.65189C6.93326 7.11206 6.04261 7.14174 5.54781 6.65189L3.28655 4.41537C3.2717 4.40053 3.25191 4.39063 3.23212 4.38568C3.21233 4.38073 3.19254 4.38568 3.17274 4.39063C3.15295 4.40053 3.13811 4.41042 3.12821 4.43021C3.11832 4.44506 3.10842 4.46485 3.11337 4.48464V8.7845C3.11832 9.09128 3.02925 9.38816 2.85112 9.64051C2.67299 9.89286 2.42559 10.0809 2.13365 10.1848C1.94563 10.2491 1.74771 10.2689 1.55473 10.2392C1.36176 10.2095 1.17373 10.1403 1.01539 10.0265C0.852109 9.91265 0.72346 9.76421 0.634395 9.59103C0.54533 9.41785 0.49585 9.22487 0.49585 9.0319V1.2981C0.510694 1.02101 0.609655 0.753814 0.787785 0.531152C0.965915 0.313437 1.20342 0.1551 1.47556 0.0808789C1.70812 0.0215023 1.95552 0.0215023 2.18808 0.0808789C2.42064 0.145204 2.63341 0.263957 2.80659 0.437139L6.28507 3.86614C6.29496 3.87603 6.30981 3.88593 6.3197 3.89088C6.33455 3.89582 6.34939 3.89583 6.36424 3.89583C6.37908 3.89583 6.39392 3.89088 6.40382 3.88098C6.41866 3.87603 6.42856 3.86614 6.43846 3.85129L8.90753 0.481671C9.02134 0.343126 9.16483 0.234269 9.32812 0.160048C9.4914 0.0858272 9.66953 0.0412951 9.84766 0.0412951H16.2702C16.4484 0.0412951 16.6215 0.0808801 16.7799 0.150153C16.9382 0.224373 17.0817 0.328282 17.2005 0.456931C17.3143 0.58558 17.4033 0.73897 17.4528 0.907204C17.5023 1.07544 17.5171 1.24862 17.4924 1.4218C17.4479 1.71868 17.2945 1.99083 17.0619 2.1838C16.8294 2.37677 16.5325 2.48563 16.2257 2.48068H12.6285C12.6087 2.48068 12.5938 2.48563 12.579 2.49553C12.5641 2.50542 12.5493 2.52027 12.5443 2.53511C12.5345 2.54996 12.5345 2.56975 12.5345 2.58459C12.5196 2.60439 12.5246 2.62418 12.5345 2.63902Z" fill="#BFBDBE"/>
</svg>
