<?xml version="1.0" encoding="UTF-8"?>
<svg width="17.700718px" height="15.2785645px" viewBox="0 0 17.700718 15.2785645" version="1.1" xmlns="http://www.w3.org/2000/svg" xmlns:xlink="http://www.w3.org/1999/xlink">
    <title>raids icon</title>
    <g id="Page-1" stroke="none" stroke-width="1" fill="none" fill-rule="evenodd">
        <g id="Screen-1-Copy" transform="translate(-514.7889, -373.7642)" fill="#220D05">
            <g id="raids-icon" transform="translate(514.7889, 373.7642)">
                <path d="M0,1.96180017 C0.292614995,5.40477228 2.5474415,8.78447075 6.18825794,11.165122 C6.89782757,10.8833056 7.60143111,10.5696191 8.18053697,10.2371216 C5.8575943,8.79197187 2.88185864,6.29398456 0,1.96180017 Z M17.700718,1.96180017 C12.9278458,9.13663442 7.89669331,11.2817196 6.00196578,11.9424394 C6.12749074,12.1513046 6.23891044,12.3691867 6.34614202,12.5810834 C6.49936386,12.8838097 6.64567136,13.1738268 6.7880278,13.3967226 C7.48939988,13.1712816 8.17785094,12.9086564 8.850359,12.6099996 L8.85699677,12.6129534 C8.98448501,12.5534691 9.11160589,12.4932259 9.23835242,12.4322271 C14.2035619,10.0949891 17.3512869,6.07342074 17.700718,1.96180017 Z M3.8883104,11.204532 C3.85737366,11.2037547 3.82612083,11.2041299 3.79447289,11.2055814 L3.82829391,11.904312 C4.07958089,11.8925745 4.25556079,11.998212 4.46480857,12.2401131 C4.67413536,12.4819366 4.87255725,12.8505794 5.06694906,13.2346519 C5.26126185,13.6187245 5.45047779,14.0166333 5.70393785,14.340386 C5.95739791,14.6640221 6.34408747,14.9407082 6.8090079,14.8802329 L6.71576304,14.1867103 C6.55400693,14.2077368 6.44788164,14.1439967 6.26735802,13.9134444 C6.0867949,13.6828532 5.90089785,13.312578 5.70362176,12.9227922 C5.50638519,12.5330063 5.29678182,12.1219998 5.00649795,11.7865873 C4.73434941,11.4721624 4.35236159,11.2158031 3.88834991,11.204532 L3.8883104,11.204532 Z M13.8124076,11.204532 C13.3483564,11.2158031 12.9663686,11.4721235 12.6942596,11.7865873 C12.4039362,12.1219998 12.1943328,12.5330063 11.9970962,12.9227922 C11.7998202,13.3126169 11.6139231,13.6828532 11.43336,13.9134444 C11.2527969,14.1439967 11.1467111,14.2077368 10.9849155,14.1867103 L10.8917101,14.8802329 C11.3566305,14.9407082 11.7433201,14.6640221 11.9967802,14.340386 C12.2502402,14.0166333 12.4394562,13.6187245 12.6338085,13.2346519 C12.8281608,12.8505794 13.0265431,12.4819366 13.2358699,12.2400743 C13.4451572,11.998212 13.6210976,11.8925745 13.8724241,11.904312 L13.9062451,11.2055814 C13.874989,11.2041397 13.8436894,11.2037691 13.8124076,11.204532 Z M11.653213,11.9082763 C11.0863599,12.4280376 10.4306444,12.8913697 9.72891518,13.3360479 C10.1296174,13.5391425 10.5350411,13.7266158 10.9446264,13.898209 C11.0908233,13.6002153 11.241078,13.2124858 11.3984334,12.8077652 C11.508558,12.5244244 11.6229836,12.2331856 11.7518544,11.9539496 C11.7206105,11.9397644 11.6861205,11.9235008 11.6532536,11.9082763 L11.653213,11.9082763 Z M4.19370998,12.8166106 L2.93097023,13.3056494 L3.29167478,14.8065432 L4.95390943,14.2534929 C4.88919801,14.1205567 4.82567312,13.9866285 4.76192005,13.8539757 C4.57718675,13.4698592 4.38912204,13.0999621 4.19370998,12.8166106 Z M13.7785244,12.8166106 C13.5831123,13.0999621 13.3950476,13.4698592 13.21036,13.8539757 C13.1465156,13.9866285 13.0830364,14.1205567 13.0183249,14.2534929 L14.6805596,14.8065432 L15.0412641,13.3056494 L13.7785244,12.8166106 L13.7785244,12.8166106 Z M2.00716604,13.2888248 C1.98649312,13.289276 1.9658758,13.2911521 1.9454605,13.2944397 C1.9260873,13.2975598 1.90704303,13.3024624 1.88856986,13.3090853 C1.34892685,13.5056549 0.714995901,14.1531973 0.876598975,14.7047711 C1.02011111,15.1947677 1.79633877,15.3298537 2.30199699,15.2623341 C2.48094306,15.2384707 2.69536981,15.0863527 2.87389516,14.9307722 L2.4941256,13.4031355 C2.34276004,13.3430089 2.15689547,13.2848475 2.00716604,13.2888248 L2.00716604,13.2888248 Z M16.0066906,13.2888248 C15.8569612,13.2848475 15.6710966,13.3430089 15.5197778,13.4031355 L15.1399615,14.9307722 C15.3184868,15.0863527 15.5329136,15.2384707 15.7118596,15.2623341 C16.2175179,15.3298537 16.9937455,15.1947677 17.1372576,14.7047711 C17.2988607,14.1531973 16.6649298,13.5056549 16.1252868,13.3090853 C16.1068121,13.3024783 16.0877678,13.2975914 16.0683961,13.2944865 C16.047983,13.2911675 16.0273657,13.2892601 16.0066906,13.288778 L16.0066906,13.2888248 Z" id="Shape" fill-rule="nonzero"></path>
                <path d="M10.9281889,0.506322428 C11.1508802,0.581118482 11.4908557,0.965119312 11.9481153,1.65832492 C11.9444887,1.58111061 12.2896938,2.97791588 12.2116505,3.00685347 C12.1501106,3.09278087 12.122113,3.19477059 12.1276577,3.31282262 C12.1301039,3.36490439 12.1463038,3.44680298 12.1721305,3.54565734 L12.1887487,3.60690176 L12.2074792,3.67159823 L12.228124,3.73912942 L12.2563201,3.82658928 L12.2868108,3.91630809 L12.3125955,3.98889934 L12.339403,4.06154733 L12.3810989,4.16927528 L12.4095969,4.23936429 L12.4239818,4.27365841 L12.4528998,4.34036004 L12.4673834,4.37261322 C12.5767827,4.61324798 12.6160104,4.78807418 12.5850662,4.89709182 L12.4504949,5.15415954 L12.368943,5.30718911 L12.3039997,5.42612906 L12.2699311,5.48648369 L12.2326687,5.54860763 C12.1844053,5.6237395 12.0895541,5.6525263 11.9481153,5.63496803 L11.0615632,5.34507233 L10.9281889,5.30112852 C10.6575725,5.2118288 10.2448259,5.18075457 9.88041188,5.30718911 L9.61741753,5.392 L10.1320807,5.37256143 L10.5306513,5.40217648 L10.9516068,5.45648973 L10.9131999,5.73396572 L10.9025515,6.03889748 L10.8587797,6.15689322 L10.8333421,6.22455411 L10.755788,6.11549027 L10.6939813,6.04812777 L10.618937,6.04550716 L10.5413947,6.10800349 L10.5818255,6.10941537 L10.6552172,6.17860861 L10.6502796,6.32000378 L10.7410396,6.4894942 L10.6939916,6.66111233 L10.6746286,7.21559733 L10.6319695,7.34921142 L10.4773412,7.03003448 L10.4894749,6.68256921 L10.2901631,6.24192382 L10.183123,6.2381859 L10.1806525,6.30893347 L10.2363346,6.53756624 L10.2722901,6.75373787 L10.3393018,6.95110247 L10.4044082,7.22996831 L10.4509503,7.49772483 L10.4564764,7.53219827 L10.3811951,7.59319759 L10.1648811,7.67792039 L10.1019052,7.7429523 L10.0708407,7.67463643 L10.0897434,7.13333382 L9.99460235,6.59255246 L9.99886976,6.47034984 L9.95489105,6.23021587 L9.84768872,6.30393663 L9.87115562,6.46588997 L9.91785672,6.54178249 L9.9415336,6.89915549 L9.91745764,7.58860066 L9.96995703,7.88243234 L9.82667904,8.03526678 L9.67118807,8.1090277 L9.64710934,8.13031613 L9.63058154,8.08826862 L9.65183524,7.47964211 L9.59647701,7.096755 L9.60926397,6.73058449 L9.56599715,6.35234813 L9.50196109,6.35011194 L9.52785601,6.59842173 L9.49098088,7.65438728 L9.51194854,7.90009799 L9.50681979,8.04696604 L9.53237291,8.23537588 L9.43839514,8.32115636 L9.25560014,8.40314643 L9.19383956,8.41667168 L9.21055897,7.96153301 L9.17481868,7.82772482 L9.2231652,6.44326164 L9.12605949,6.43987063 L9.11817307,6.66570807 L9.08380428,6.7793783 L9.06969696,7.18335916 L9.01495629,7.55708462 L9.00108809,7.95421813 L9.03465402,8.18685756 L9.02447612,8.45278298 L8.91634655,8.47434341 L8.7347504,8.62015333 L8.69988464,8.57194676 L8.71917787,8.01946098 L8.80734457,7.58867942 L8.84914911,7.35917241 L8.88155,6.43133218 L8.77476677,6.42760322 L8.74876655,7.17215202 L8.68471609,7.44586957 L8.62571462,7.68564759 L8.56023279,7.89481156 L8.53749041,8.52983436 L8.50311426,8.52138396 L8.30685052,8.37001536 L8.22029648,8.30062482 L8.34349456,8.05583294 L8.36438392,7.45763989 L8.40308451,7.30203596 L8.51714138,7.02938912 L8.53844439,6.41935066 L8.43403588,6.41570464 L8.4324223,6.46191172 L8.39319548,6.63258481 L8.38445645,6.88283777 L8.34766757,7.02347097 L8.25283916,7.29678928 L8.21760663,7.45251432 L8.20026821,7.9490218 L8.11133116,8.21176786 L8.09261117,8.19699644 L7.91381665,8.07979431 L7.98100948,7.60165792 L8.06857808,7.26615964 L8.07662332,7.03577397 L8.13880217,6.87425933 L8.14835453,6.6007154 L8.21530027,6.48252808 L8.22148583,6.30539676 L8.10227403,6.30123379 L8.09608847,6.47836511 L7.99838319,6.67433129 L7.9838788,7.08968274 L7.92314326,7.26108095 L7.91906086,7.37798562 L7.88124957,7.48850813 L7.87420616,7.69020492 L7.81928879,7.83713581 L7.78223655,8.00815859 L7.67871866,7.96025835 L7.55407722,7.89412648 L7.63008078,7.62420713 L7.689519,7.31867723 L7.73199292,7.08196258 L7.78318013,6.95369204 L7.8564903,6.77182388 L7.87320301,6.29323446 L7.80632537,6.29089904 L7.75687741,6.36936389 L7.74415983,6.73354768 L7.637264,6.9078989 L7.62462568,7.0324252 L7.61858848,7.20530816 L7.55124713,7.4016466 L7.49944124,7.58484118 L7.49678131,7.66101165 L7.44086054,7.75509058 L7.42693739,7.72760499 L7.33158709,7.57897959 L7.39367985,7.27056492 L7.43560512,7.01171273 L7.49487331,6.79957949 L7.53924945,6.4448832 L7.54967886,6.14622401 L7.46593078,6.14329946 L7.45550137,6.44195866 L7.41521195,6.6539665 L7.36380128,6.80916411 L7.31704788,6.95673039 L7.31080559,7.13548608 L7.26900662,7.26079185 L7.24965575,7.17440978 L7.16848062,7.10218692 L7.20706876,6.90372399 L7.21537581,6.66584123 L7.25880609,6.46589049 L7.29876678,6.3062772 L7.34922711,6.0352377 L7.23888321,5.99267725 L7.23753317,6.03133726 L7.17339975,6.12169959 L7.1079508,6.36071451 L7.06705115,6.49204655 L7.0550256,6.83641302 L7.02486341,6.97409673 L7.0273677,6.75085191 L6.90982731,6.58378694 L6.84277457,6.33178802 L6.84548163,6.25426808 L6.81746153,6.12238085 L6.8462076,6.05543476 L7.68735404,5.5951476 L7.72041753,5.448 L7.6579408,5.42229818 L6.27502881,6.17651934 L6.06418984,6.18884862 L5.94473414,6.13167464 L5.79911953,5.99454423 L5.46980007,5.55050751 L5.40149884,5.03557324 L5.39348317,4.8649119 L5.5511716,4.77705407 L5.74509689,4.84435051 L5.91199549,5.43463754 L6.12300682,5.42229818 L5.71299546,4.16088014 L5.4922838,3.52327646 L5.40058822,3.19929302 L5.38309948,2.82694101 L5.29212642,2.7069294 L5.20602683,2.4744917 L5.10541753,2.23880105 L5.16390789,2.12075779 L5.3944288,2.03530504 L5.38955933,1.93162948 L5.46108388,1.82615226 L7.02033171,0.209907114 L7.2406828,0.0845587796 L7.56191551,0.908429615 L8.09603842,1.84882754 L8.22437932,2.51160681 L8.26093433,2.85475213 L8.26796076,2.73671464 L8.29208612,2.86101842 L8.27804775,2.56386926 L8.33104472,1.65832492 L7.82895052,0.901124273 L7.4378719,0.104242049 L7.4378719,0.059067428 C7.46796191,0.111196857 8.52989381,-0.299200818 10.9281889,0.506322428 Z M8.52682343,4.14104854 L8.51813934,4.1550635 L8.07480543,5.18476635 C8.01836854,5.35039234 8.0526257,5.42955193 8.17757689,5.42224513 C8.22135102,5.41968534 8.23416501,5.39105784 8.24309719,5.35287232 L8.25260354,5.30821763 C8.26405496,5.25745414 8.28383748,5.2017261 8.35664765,5.168285 C8.43776243,5.13102967 8.45882363,5.14006581 8.47256176,5.16072041 L8.47779145,5.16951972 L8.48581187,5.18396365 L8.49236975,5.19370378 C8.50095027,5.20487928 8.51329498,5.21506121 8.53476286,5.22072578 C8.5684981,5.22962725 8.59127469,5.20877913 8.60865348,5.18618027 L8.6295283,5.15690798 C8.64562538,5.13515597 8.65771372,5.1287341 8.67497221,5.18385836 C8.69018198,5.23243891 8.72199627,5.25884858 8.7571554,5.28160926 L8.80077266,5.30878399 C8.84092217,5.33449328 8.8784874,5.36510751 8.89458885,5.42699863 L8.90384197,5.46111737 L8.91291965,5.49095775 C8.94173624,5.57889821 8.97287843,5.60561989 9.05350843,5.60090487 C9.10231081,5.59805105 9.10760004,5.55082404 9.10399189,5.49884096 L9.10049788,5.4625797 L9.09671338,5.42771998 C9.09431866,5.40190928 9.09397646,5.38002112 9.10109108,5.36824058 C9.10730889,5.35794499 9.11836015,5.34842092 9.13217786,5.3383417 L9.16706412,5.31416693 C9.20907596,5.2850214 9.25868924,5.24618735 9.28360748,5.17693543 C9.29742294,5.13853996 9.2840134,5.06800299 9.25205651,4.97744635 L9.23725045,4.93744601 L9.22032508,4.89520633 L9.2014322,4.85093935 L9.18072361,4.80485711 L9.15835109,4.75717166 L9.12200452,4.68310131 L9.08276799,4.60661648 L9.05525776,4.55463862 L9.01234308,4.47571999 L8.9679046,4.39629527 L8.93768539,4.3434177 L8.8929677,4.26664503 C8.75076189,4.02511103 8.6287138,3.98324553 8.52682343,4.14104854 Z M8.28472701,2.95527071 L8.13713644,2.9639014 C8.04000664,3.38026633 7.88973879,3.56628398 7.68633288,3.52195436 C7.60312137,3.50381952 7.50439024,3.46715594 7.39994056,3.42370289 L7.3295678,3.39385718 L7.11473658,3.29997943 L7.04403965,3.26981651 L6.97487502,3.24150667 C6.83850829,3.18725539 6.7152074,3.14876038 6.62820449,3.15384807 C6.3889465,3.16783921 6.12265826,3.47993605 6.0536793,3.73710714 L6.03185812,3.81991295 L6.015922,3.88754358 L6.00736497,3.9306315 L6.00031857,3.97446551 C5.97316502,4.16911873 6.00031942,4.38825273 6.21957911,4.66901186 C6.53185807,5.06888091 7.0637554,5.04774678 7.62772713,4.58666727 C7.89442757,4.404966 8.06117424,4.21607349 8.12796714,4.01998973 C8.14304941,3.97571275 8.15739033,3.92333764 8.17098989,3.86286439 L8.1824651,3.80904697 L8.1935772,3.75126311 L8.20695669,3.67345549 L8.21976883,3.58945032 L8.22961003,3.51778394 L8.23908813,3.44215114 L8.25262443,3.32126486 L8.26119475,3.23571598 L8.26940195,3.14620065 L8.27724604,3.0527189 L8.28472701,2.95527071 Z M10.440633,2.83929699 L10.377601,2.85475285 C10.3250575,2.86832414 10.2725449,2.88358745 10.2206076,2.90026924 L10.1585937,2.92095076 L10.0973412,2.94288898 L10.0670658,2.95429653 L10.0073473,2.97792285 C9.99749542,2.98194634 9.98769704,2.98601124 9.97795651,2.99011537 L9.92024246,3.01519347 C9.89176742,3.02795041 9.8638915,3.04102105 9.83673229,3.05434632 L9.78241787,3.0818336 C9.70254485,3.12353762 9.63011431,3.16724557 9.56848472,3.21127015 L9.54834616,3.22595442 C9.27174901,3.43192169 9.06902929,3.47207896 8.94018702,3.34642621 L8.92867761,3.33454645 L8.94571961,3.69592423 L8.94742355,3.72196348 L8.94997775,3.74855265 C8.96088519,3.84255276 8.99497271,3.94627431 9.13158339,4.0556927 C9.19390808,4.10561169 9.28088292,4.16261928 9.37245434,4.21509032 L9.42273771,4.24319111 L9.47320961,4.26997285 L9.49682024,4.28200014 L9.54338483,4.30472511 C9.65066233,4.35547787 9.74668605,4.38937398 9.79698839,4.38643244 L9.84378915,4.38387222 L9.89870156,4.38189706 L9.9613037,4.38159101 L10.0071022,4.3828496 L10.0560058,4.38565303 C10.1467519,4.39228229 10.2519815,4.40798052 10.3684136,4.44117743 L10.4076347,4.45290273 C10.5421708,4.4949897 10.5703366,4.43610767 10.577535,4.36413009 L10.5790425,4.34424118 L10.5811766,4.28463949 L10.5823751,4.26611435 L10.5844588,4.24892046 C10.5893258,4.21886073 10.6005967,4.19750985 10.6289469,4.195852 C10.6640102,4.1938016 10.6746654,4.21716413 10.6808511,4.25180543 L10.6900685,4.31536832 L10.6937049,4.33444416 C10.7090056,4.40493379 10.7485203,4.47959019 10.8972996,4.49812162 C11.0201202,4.51341973 11.058608,4.48661127 11.0803599,4.44813885 L11.0867514,4.43563744 L11.1041248,4.39529645 L11.11159,4.38042371 C11.1333526,4.34115176 11.1722291,4.30601218 11.2827228,4.29955082 C11.4725023,4.28845304 11.58862,4.43861122 11.6310758,4.75002537 L11.6347325,4.77877998 L11.8428597,4.76660928 C11.8631384,4.38185685 11.7009679,4.22707759 11.5666604,4.17327072 L11.5462459,4.16577197 L11.5264412,4.15976209 L11.5168208,4.15728286 L11.49825,4.15331055 L11.4807145,4.15056615 L11.4643844,4.14894527 L11.4360214,4.14865653 C11.4000817,4.15075819 11.3774248,4.0869461 11.3649781,3.9919283 L11.3607832,3.95490165 L11.3575096,3.9153562 C11.3570387,3.90857799 11.3566047,3.90171177 11.3562069,3.89476603 L11.3541717,3.85003415 L11.3530508,3.80366877 L11.3533856,3.70792093 L11.3568777,3.61128928 L11.3597036,3.56381914 L11.3631938,3.51754058 L11.3673066,3.47292446 L11.3720004,3.43044162 L11.3772334,3.3905629 L11.3829639,3.35375915 L11.3891503,3.32050123 C11.3902171,3.31527988 11.3913011,3.3102259 11.3924015,3.30534908 L11.395751,3.29125996 C11.4319848,3.14685473 11.4047715,3.02538606 11.314111,2.92685395 C11.1457285,2.7570303 10.7975036,2.75651443 10.440633,2.83929699 Z M7.96066087,2.84701067 L7.79943013,2.856439 C7.78018718,2.99940316 7.68891139,3.08895029 7.52560276,3.12508039 L7.50389313,3.12949008 L7.51034566,3.26687067 L7.63340466,3.25967452 C7.84565379,3.28387557 7.95473919,3.14632095 7.96066087,2.84701067 Z" id="Combined-Shape-Copy-3"></path>
            </g>
        </g>
    </g>
</svg>