<?xml version="1.0" encoding="UTF-8"?>
<svg width="67.4044923px" height="19.8152px" viewBox="0 0 67.4044923 19.8152" version="1.1" xmlns="http://www.w3.org/2000/svg" xmlns:xlink="http://www.w3.org/1999/xlink">
    <title>REAVERS Copy 3</title>
    <g id="Page-1" stroke="none" stroke-width="1" fill="none" fillRule="evenodd">
        <g id="Layer-nav" transform="translate(-57,1062, -20,5053)" fill="#FFFFFF" fillRule="nonzero">
            <g id="Group-2" transform="translate(19, 14,25)">
                <g id="REAVERS-Copy-3" transform="translate(38,1062, 6,2553)">
                    <path d="M0.0496,0.4712 C0,0.5704 0,0.6696 0,0.7688 C0,1.24 0.3968,1.5872 0.4712,2.108 C0.4712,2.1824 0.496,2.2568 0.496,2.356 C0.496,2.6536 0.4464,3.0504 0.4464,3.3728 C0.4464,3.4968 0.4712,3.596 0.4712,3.8688 C0.4712,4.3152 0.372,5.1088 0.372,5.7536 C0.3968,6.6464 0.5208,7.9856 0.62,8.3576 C0.7192,8.7296 0.744,10.292 0.744,11.1352 C0.744,11.7304 0.8184,12.4744 0.8184,12.896 C0.8184,13.0696 0.7936,13.1936 0.7688,13.2432 C0.6696,13.4168 0.5456,14.136 0.5208,14.632 L0.5208,15.1032 C0.5208,15.5744 0.5456,16.1448 0.5704,16.4424 C0.5704,16.8144 0.4216,16.9632 0.4216,17.2608 C0.4216,17.3352 0.4464,17.4592 0.4712,17.5584 C0.62,18.104 0.5456,18.228 0.6696,18.6992 C0.7688,19.096 0.9176,19.2944 1.1904,19.2944 C1.612,19.2944 2.1824,18.8976 2.4056,18.5504 C2.5048,18.4016 2.5544,18.0048 2.5544,17.608 C2.5544,17.36 2.5048,17.1368 2.5048,16.7152 C2.5048,16.3928 2.5296,16.0456 2.5296,15.6488 L2.5296,15.0288 C2.5296,14.0616 2.604,12.1272 2.6536,11.8296 C2.6784,11.7056 2.6784,11.4576 2.6784,11.1848 C2.6784,10.6144 2.6536,9.8952 2.6536,9.5976 C2.6536,9.176 2.5048,8.928 2.5048,8.184 L2.5048,7.7128 C2.5048,6.9192 2.4304,6.1008 2.4304,5.2328 C2.4304,4.6376 2.3808,4.0672 2.3808,3.5216 C2.3808,3.0256 2.4056,2.5544 2.4552,2.1576 C2.5296,1.6368 2.5544,1.5376 2.6288,1.5376 C3.0752,1.5376 3.472,1.2896 4.0176,1.2648 L4.34,1.2648 C5.084,1.2648 5.58,1.4384 6.1752,1.9096 C6.6216,2.2568 6.7456,3.1992 6.82,3.3728 C6.8448,3.4472 6.8696,3.6456 6.8696,3.9184 C6.8696,4.34 6.82,4.8856 6.7704,5.2328 C6.6712,5.8032 6.3984,6.5968 6.3984,6.944 C6.3984,7.2912 6.1256,7.3408 6.0016,7.7624 C5.8776,8.184 5.2576,9.4488 5.1088,9.6472 C4.96,9.8456 4.9104,10.3168 4.8608,10.5896 C4.8112,10.8624 4.5632,10.9864 4.3648,11.036 C4.1664,11.0856 3.72,12.0528 3.4968,12.3504 C3.3976,12.4744 3.3728,12.5984 3.3728,12.7224 C3.3728,12.896 3.4224,13.0696 3.4968,13.2432 C3.6208,13.5656 4.0424,14.0864 4.3648,14.3592 C4.6872,14.632 4.836,15.0288 5.1832,15.4008 C5.5304,15.7728 5.6048,15.8224 5.8776,16.244 C6.1504,16.6656 6.6712,16.9632 6.7952,17.1368 C7.3408,17.8808 6.9936,17.9056 7.812,18.6 C8.1344,18.8728 8.6056,19.3192 8.7792,19.3192 C8.9776,19.3192 9.3248,18.972 9.3496,18.6744 C9.3744,18.476 9.4984,18.228 9.4984,17.9552 C9.4984,17.7816 9.3744,17.608 9.3248,17.4344 C9.176,17.0376 8.7048,16.3928 8.4568,15.996 C8.2088,15.5992 7.8368,15.2024 7.5888,15.0288 C7.3408,14.8552 6.9688,13.9624 6.6216,13.5656 C6.2744,13.1688 4.9104,12.1768 4.9104,12.0776 C4.9104,12.0032 5.0592,11.8792 5.3568,11.6064 C5.6792,11.3088 5.6296,11.1104 6.0016,10.7384 C6.3736,10.3664 6.5472,10.1432 6.7456,9.796 C7.068,9.2504 7.5144,8.6552 7.688,7.9608 C7.7872,7.5392 8.2336,6.944 8.3824,6.7704 C8.5312,6.5968 8.8536,5.8032 8.928,5.456 C8.9776,5.1832 9.0768,4.4888 9.0768,3.7448 C9.0768,3.5464 9.0768,3.3232 9.052,3.1248 C9.0024,2.604 7.9608,0.9424 7.3904,0.9424 C7.0432,0.7936 6.4232,0.496 5.8776,0.496 C5.6296,0.496 5.5552,0.5208 5.4808,0.5208 C4.96,0.5208 4.4888,0.3224 4.3152,0.3224 C3.8688,0.3224 3.6208,0.3224 3.2984,0.3968 C3.1744,0.4216 3.0008,0.4216 2.8024,0.4216 C2.2568,0.4216 1.5376,0.3472 1.24,0.2976 C1.116,0.2728 0.992,0.2728 0.4712,0.2728 C0.3224,0.2728 0.1488,0.2728 0.0496,0.4712 Z" id="Path"></path>
                    <path d="M10.9158154,2.2568 C10.9158154,2.8024 10.9406154,3.5464 10.9654154,3.7696 C11.0150154,4.0672 10.9902154,4.6624 11.0150154,5.0344 L11.0150154,5.5552 C11.0150154,6.0016 11.0150154,6.5472 11.0894154,6.8944 C11.1390154,7.1672 11.1390154,7.4896 11.1390154,7.812 C11.1390154,8.8784 11.1142154,9.2752 11.0150154,9.672 C10.9654154,9.8704 10.9406154,10.0936 10.9406154,10.292 C10.9406154,10.7632 11.0398154,11.2344 11.0398154,11.6808 C11.0398154,11.8048 10.7670154,12.0032 10.6678154,12.2016 C10.6430154,12.2264 10.6430154,12.2512 10.6430154,12.3008 C10.6430154,12.5488 10.8910154,12.9704 10.9654154,13.0944 C11.0150154,13.1688 11.0150154,13.392 11.0150154,13.6896 C11.0150154,13.9376 11.0150154,14.26 10.9902154,14.632 C10.9902154,14.8304 10.9654154,15.004 10.9654154,15.2024 C10.9654154,15.872 11.0398154,16.5168 11.0894154,16.8888 C11.1638154,17.3848 11.2134154,17.5584 11.2134154,17.7816 C11.2134154,17.98 10.8910154,17.9552 10.8910154,18.2032 C10.8910154,18.2528 10.8910154,18.3024 10.9158154,18.352 C11.0646154,18.7488 11.0150154,19.096 11.2134154,19.1952 C11.2878154,19.2448 11.3622154,19.2448 11.4614154,19.2448 C11.6102154,19.2448 11.7838154,19.1952 12.0566154,19.1456 C12.2550154,19.096 12.4534154,19.096 13.4454154,19.096 C13.7678154,19.096 14.1150154,19.1456 14.4622154,19.1456 C14.6110154,19.1456 14.7598154,19.1208 14.9086154,19.096 C15.1814154,19.0464 15.6526154,19.0464 16.0494154,19.0464 C16.3222154,19.0464 16.5950154,19.0464 16.7438154,18.9968 C17.1158154,18.8728 17.5870154,18.7736 17.7110154,18.6496 C17.7358154,18.6248 17.7606154,18.5504 17.7606154,18.476 C17.7606154,18.2776 17.6614154,18.0048 17.6366154,17.7072 C17.6118154,17.4592 17.5126154,17.3352 17.3886154,17.3352 C17.3142154,17.3352 17.2398154,17.3848 17.1654154,17.4344 C16.9670154,17.608 16.8182154,17.6576 16.4958154,17.9056 C16.1734154,18.1536 15.8510154,18.104 15.5286154,18.2032 C15.4294154,18.228 15.3302154,18.2528 15.2062154,18.2528 C14.9086154,18.2528 14.5862154,18.1784 14.3134154,18.1784 C13.9662154,18.1784 13.2470154,18.104 13.1726154,18.0296 C13.1478154,18.0048 13.1230154,17.9304 13.1230154,17.8312 C13.1230154,17.7072 13.1478154,17.5336 13.1478154,17.36 C13.1478154,17.1368 13.1230154,17.0624 13.1230154,16.9632 C13.1230154,16.5664 13.1974154,15.9216 13.2470154,15.4504 L13.2470154,15.1776 C13.2470154,14.7064 13.1726154,14.2104 13.1726154,13.5408 C13.1726154,12.9704 13.3462154,12.5736 13.5198154,12.3504 C13.5942154,12.2512 13.7182154,12.2264 13.8422154,12.2264 C14.1646154,12.2264 14.2638154,12.2264 14.3382154,12.2016 C14.4126154,12.1768 14.5118154,12.1768 15.5286154,12.1768 L16.2726154,12.1768 C16.7190154,12.152 16.8926154,12.0776 16.8926154,11.8792 C16.8926154,11.8296 16.8926154,11.78 16.8678154,11.7304 C16.7686154,11.408 16.6694154,11.284 16.1486154,11.2592 C15.8014154,11.2592 15.6526154,11.3584 15.4046154,11.3832 C15.1318154,11.408 14.9086154,11.408 14.1150154,11.408 C13.8918154,11.408 13.6934154,11.3832 13.5446154,11.2592 C13.3958154,11.1352 13.3462154,10.8128 13.3462154,10.416 C13.3462154,10.168 13.3710154,9.8704 13.3958154,9.5728 C13.3958154,9.4488 13.4206154,9.3496 13.4206154,9.2504 C13.4206154,8.9032 13.3462154,8.7792 13.3462154,8.6056 C13.3462154,8.432 13.4206154,8.2832 13.4206154,8.0848 C13.4206154,7.8864 13.3710154,7.7624 13.3462154,7.3904 C13.3462154,7.1424 13.3710154,6.7456 13.4454154,5.6792 C13.4702154,5.5056 13.4702154,5.3072 13.4702154,5.1088 C13.4702154,3.844 13.2222154,2.5296 13.2222154,2.1824 C13.2222154,1.7856 13.4206154,1.736 13.6686154,1.5376 C13.7926154,1.4384 13.9166154,1.4136 14.0654154,1.4136 C14.4622154,1.4136 14.8590154,1.3888 15.3550154,1.3888 C15.5038154,1.3888 15.6526154,1.4136 15.7518154,1.4384 C16.0494154,1.5128 16.2230154,1.5376 16.2478154,1.6616 C16.2726154,1.736 16.3470154,1.7856 16.4958154,1.7856 C16.6446154,1.7856 16.9174154,1.612 16.9422154,1.5872 C17.1902154,1.364 17.3638154,1.2152 17.3638154,0.9424 C17.3638154,0.6696 17.0662154,0.4464 16.7686154,0.3968 C16.6694154,0.372 16.4958154,0.372 16.3222154,0.372 C15.9502154,0.372 15.5038154,0.3968 15.2310154,0.3968 C14.5862154,0.3968 14.2886154,0.3968 14.0654154,0.496 C13.7430154,0.62 12.9246154,0.6448 12.5526154,0.6696 C12.1806154,0.6944 11.8830154,0.9176 11.8582154,0.992 C11.8334154,1.0416 11.6350154,1.0912 11.1886154,1.0912 C10.9654154,1.0912 10.9406154,1.3144 10.9158154,1.7112 L10.9158154,2.2568 Z" id="Path"></path>
                    <path d="M26.5932308,0.1488 C26.4196308,0.1488 25.5516308,0.3472 25.2292308,0.372 C24.9068308,0.3968 24.2620308,0.3968 23.9396308,0.4464 C23.6172308,0.496 23.2204308,0.6696 23.0220308,0.6944 C22.8236308,0.7192 22.5012308,0.992 22.1788308,1.1656 C21.8564308,1.3392 21.1372308,1.8352 21.1124308,2.0336 C21.0876308,2.2568 20.8644308,2.4056 20.7156308,2.5544 C20.4924308,2.7776 20.0460308,3.224 19.8724308,3.7944 C19.5500308,4.9104 19.2276308,6.9936 19.2028308,7.4152 C19.1780308,7.8368 19.1780308,8.3328 19.1780308,8.556 C19.1780308,9.5976 19.1036308,10.5648 19.1036308,11.5568 C19.0788308,11.904 19.1036308,12.5736 19.0540308,12.7224 C18.9796308,12.9208 18.9052308,13.1936 18.9052308,13.4416 C18.9052308,13.6648 18.9548308,13.888 19.1036308,14.012 C19.1780308,14.0616 19.2028308,14.1608 19.2028308,14.26 C19.2028308,14.4088 19.1532308,14.5576 19.1284308,14.7312 C19.1284308,15.252 19.1532308,15.748 19.1532308,15.9216 C19.1532308,16.0456 19.1780308,16.244 19.1780308,16.4176 C19.1780308,16.6656 19.1036308,16.8144 19.1036308,17.0128 C19.1036308,17.2856 19.1284308,17.6824 19.1532308,17.98 C19.1780308,18.4264 19.3020308,18.7488 19.4260308,18.9224 C19.5500308,19.096 19.7484308,19.3688 19.9468308,19.3688 C20.1452308,19.3688 20.2692308,19.1952 20.3932308,18.972 C20.5172308,18.7488 20.4428308,18.5504 20.6164308,18.476 C20.7900308,18.4016 20.9140308,18.0048 20.9388308,17.856 C20.9636308,17.7568 21.0132308,17.1864 21.0132308,16.74 C21.0132308,16.3928 20.9636308,16.2192 20.9636308,16.0208 C20.9636308,15.748 21.1124308,15.5496 21.1124308,15.3016 C21.1124308,15.1776 21.0876308,15.0288 21.0876308,14.7808 C21.0876308,14.4832 21.1620308,14.2104 21.2364308,13.9624 C21.2364308,13.6152 21.7572308,13.6152 21.9804308,13.5656 C22.2532308,13.4912 22.6252308,13.4912 23.2452308,13.4912 C23.4684308,13.4912 23.5180308,13.392 23.6420308,13.392 C23.6916308,13.392 24.2372308,13.3424 24.6588308,13.3176 C24.9316308,13.3176 25.1548308,13.392 25.3036308,13.4664 C25.4524308,13.4664 25.5020308,13.7144 25.5020308,13.9624 C25.5020308,14.1608 25.4772308,14.384 25.4276308,14.4336 C25.3780308,14.508 25.3532308,14.632 25.3532308,14.8304 C25.3532308,15.0536 25.3780308,15.3512 25.4276308,15.6488 C25.4524308,15.9464 25.4772308,16.492 25.4772308,16.988 C25.4772308,17.484 25.4524308,17.9552 25.4524308,18.0296 C25.4772308,18.2528 25.6012308,18.4016 25.6012308,18.6 C25.6012308,18.848 25.4772308,19.0216 25.4772308,19.22 C25.4772308,19.4432 25.6012308,19.592 25.7004308,19.716 C25.7252308,19.7408 25.8988308,19.8152 25.9732308,19.8152 C26.1468308,19.8152 26.3700308,19.7408 26.4940308,19.6664 C26.6428308,19.5672 27.1884308,19.1952 27.2876308,19.0216 C27.3868308,18.848 27.3868308,18.476 27.4364308,18.228 C27.4612308,18.104 27.4612308,18.0048 27.4612308,17.8808 C27.4612308,16.864 27.4116308,16.5168 27.4116308,16.1696 C27.4116308,15.9712 27.4116308,15.7728 27.4612308,15.5496 C27.4860308,15.4256 27.4860308,15.1528 27.4860308,14.8552 C27.4860308,14.2352 27.4612308,13.4416 27.4612308,12.9208 C27.4612308,12.152 27.5356308,10.8128 27.5356308,10.7632 C27.5356308,10.7136 27.4612308,10.3912 27.4612308,9.8704 C27.4612308,9.672 27.5356308,9.672 27.5356308,9.2256 C27.5356308,8.7048 27.4612308,8.432 27.3868308,7.8616 C27.3620308,7.6384 27.3620308,7.1424 27.3620308,6.6216 C27.3620308,5.7784 27.3124308,4.836 27.3124308,4.3896 C27.3124308,3.9928 27.4612308,3.6456 27.4612308,3.2984 C27.4612308,3.1 27.4364308,2.9016 27.4364308,2.604 C27.4364308,1.9344 27.1388308,1.4384 27.1388308,0.868 C27.1388308,0.496 26.9652308,0.1488 26.5932308,0.1488 Z M24.8324308,1.3392 C25.2044308,1.5128 25.2044308,2.2072 25.2044308,2.6536 C25.2044308,3.1 25.1796308,3.3232 25.1796308,3.5216 C25.1796308,3.8936 25.2788308,4.1664 25.2788308,4.464 C25.2788308,5.1088 25.1052308,5.7288 25.1052308,6.3488 C25.1548308,6.9936 25.1548308,7.936 25.2044308,8.2832 C25.2540308,8.6552 25.3284308,9.0272 25.3284308,9.4736 C25.3036308,9.6472 25.2788308,9.9448 25.2788308,10.2176 C25.2788308,10.416 25.3036308,10.5648 25.3036308,10.664 C25.3036308,10.788 25.3284308,11.0856 25.3284308,11.408 C25.3284308,11.7304 25.3036308,12.0528 25.3036308,12.1768 C25.2788308,12.4 25.2044308,12.648 24.9316308,12.648 C24.7580308,12.6232 24.5596308,12.6232 24.3364308,12.6232 C23.4932308,12.6232 22.8484308,12.6976 22.1788308,12.6976 L21.7324308,12.6976 C21.5340308,12.6976 21.4844308,12.6976 21.4348308,12.524 C21.3604308,12.3008 21.4100308,11.532 21.3604308,11.0608 C21.3356308,10.7136 21.3108308,9.3 21.3108308,8.3328 L21.3108308,7.5392 C21.3108308,6.9936 21.5588308,6.3488 21.5588308,6.076 C21.5588308,5.8528 21.5340308,5.6544 21.5340308,5.1832 C21.5588308,4.8112 21.5340308,4.4888 21.6580308,4.092 C21.7820308,3.6952 22.0796308,3.1248 22.0796308,2.9512 C22.0796308,2.7776 22.3524308,2.4056 22.5012308,2.1328 C22.6500308,1.86 22.9724308,1.5376 23.3196308,1.4384 C23.5676308,1.364 24.0884308,1.2896 24.4604308,1.2896 C24.6092308,1.2896 24.7580308,1.3144 24.8324308,1.3392 Z" id="Shape"></path>
                    <path d="M28.9282462,1.7112 C28.9282462,2.0336 29.2754462,2.9264 29.3002462,3.4968 C29.3250462,4.0672 29.6226462,4.464 29.7466462,5.1088 C29.8954462,5.7536 29.9946462,6.0512 30.1434462,6.7704 C30.2922462,7.5144 30.4658462,8.5064 30.5650462,8.928 C30.6890462,9.3496 31.0114462,10.9368 31.1354462,11.3832 C31.2346462,11.8296 31.6314462,13.392 31.6314462,13.9624 C31.6314462,14.5824 32.6730462,17.1616 32.7226462,17.8064 C32.7722462,18.4512 33.2186462,19.2696 33.4666462,19.344 C33.4914462,19.344 33.5410462,19.3688 33.5658462,19.3688 C33.8138462,19.3688 34.1610462,19.1456 34.4586462,18.848 C34.7562462,18.5752 34.7810462,17.9056 34.9050462,17.608 C34.9794462,17.3352 35.2522462,16.7152 35.4506462,16.0952 C35.6490462,15.4752 35.6738462,14.9544 35.9218462,14.4832 C36.1946462,14.012 36.0210462,13.6648 36.1698462,12.772 C36.3434462,11.8544 36.5666462,11.0856 36.8146462,10.0936 C37.0626462,9.1016 37.1618462,8.6056 37.2610462,7.9608 C37.3850462,7.2912 37.4098462,6.8944 37.6330462,6.7952 C37.8562462,6.696 38.1042462,4.836 38.3274462,4.34 C38.5754462,3.8688 38.7490462,3.6952 38.8482462,3.0752 C38.9474462,2.4552 38.9226462,2.2072 39.1954462,1.1408 C39.2946462,0.7688 39.3442462,0.5208 39.3442462,0.3472 C39.3442462,0.0744 39.2202462,0 38.8978462,0 C38.4762462,0.0248 38.4762462,0.5456 38.4018462,0.6696 C38.3026462,0.7936 38.0546462,1.4384 38.0050462,1.6864 C37.9802462,1.9344 38.0050462,2.6784 37.9554462,2.8024 C37.9306462,2.9264 37.7570462,2.8272 37.5834462,3.3976 C37.3850462,3.968 37.0130462,5.4312 36.9634462,5.9024 C36.9634462,6.3488 36.9882462,6.5472 36.9882462,6.696 C36.9882462,6.7952 36.9634462,6.8696 36.9386462,6.9192 C36.8146462,7.0928 36.5418462,7.4648 36.4178462,8.0104 C36.3186462,8.5312 36.0458462,10.1184 35.8970462,10.664 C35.7482462,11.16 35.5002462,11.6064 35.5002462,12.028 C35.5002462,12.648 35.3266462,13.0448 35.1778462,13.5656 C35.0538462,14.1112 34.8554462,14.9048 34.8058462,15.3016 C34.7562462,15.6736 34.5578462,16.3184 34.4338462,16.3184 C34.4090462,16.3184 34.3842462,16.2936 34.3842462,16.2688 C34.3098462,16.0456 34.2354462,15.2768 34.0618462,14.5576 C33.8882462,13.8384 33.6154462,12.5488 33.4914462,11.9784 C33.3922462,11.4328 33.2434462,11.0856 32.9954462,10.54 C32.8714462,10.292 32.8466462,10.0936 32.8466462,9.8456 C32.8466462,9.672 32.8714462,9.4736 32.8714462,9.2504 C32.8714462,9.1016 32.8714462,8.928 32.8466462,8.7544 C32.7722462,8.0104 32.5490462,7.316 32.2762462,6.448 C32.0282462,5.7288 31.5818462,4.3648 31.4578462,3.4968 C31.3090462,2.5544 30.7882462,1.4632 30.5154462,0.9176 C30.4162462,0.6944 30.3170462,0.62 30.2178462,0.62 C30.0690462,0.62 29.9202462,0.7936 29.7466462,0.8432 C29.4738462,0.9424 28.9282462,1.3888 28.9282462,1.7112 Z" id="Path"></path>
                    <path d="M40.8856615,2.2568 C40.8856615,2.8024 40.9104615,3.5464 40.9352615,3.7696 C40.9848615,4.0672 40.9600615,4.6624 40.9848615,5.0344 L40.9848615,5.5552 C40.9848615,6.0016 40.9848615,6.5472 41.0592615,6.8944 C41.1088615,7.1672 41.1088615,7.4896 41.1088615,7.812 C41.1088615,8.8784 41.0840615,9.2752 40.9848615,9.672 C40.9352615,9.8704 40.9104615,10.0936 40.9104615,10.292 C40.9104615,10.7632 41.0096615,11.2344 41.0096615,11.6808 C41.0096615,11.8048 40.7368615,12.0032 40.6376615,12.2016 C40.6128615,12.2264 40.6128615,12.2512 40.6128615,12.3008 C40.6128615,12.5488 40.8608615,12.9704 40.9352615,13.0944 C40.9848615,13.1688 40.9848615,13.392 40.9848615,13.6896 C40.9848615,13.9376 40.9848615,14.26 40.9600615,14.632 C40.9600615,14.8304 40.9352615,15.004 40.9352615,15.2024 C40.9352615,15.872 41.0096615,16.5168 41.0592615,16.8888 C41.1336615,17.3848 41.1832615,17.5584 41.1832615,17.7816 C41.1832615,17.98 40.8608615,17.9552 40.8608615,18.2032 C40.8608615,18.2528 40.8608615,18.3024 40.8856615,18.352 C41.0344615,18.7488 40.9848615,19.096 41.1832615,19.1952 C41.2576615,19.2448 41.3320615,19.2448 41.4312615,19.2448 C41.5800615,19.2448 41.7536615,19.1952 42.0264615,19.1456 C42.2248615,19.096 42.4232615,19.096 43.4152615,19.096 C43.7376615,19.096 44.0848615,19.1456 44.4320615,19.1456 C44.5808615,19.1456 44.7296615,19.1208 44.8784615,19.096 C45.1512615,19.0464 45.6224615,19.0464 46.0192615,19.0464 C46.2920615,19.0464 46.5648615,19.0464 46.7136615,18.9968 C47.0856615,18.8728 47.5568615,18.7736 47.6808615,18.6496 C47.7056615,18.6248 47.7304615,18.5504 47.7304615,18.476 C47.7304615,18.2776 47.6312615,18.0048 47.6064615,17.7072 C47.5816615,17.4592 47.4824615,17.3352 47.3584615,17.3352 C47.2840615,17.3352 47.2096615,17.3848 47.1352615,17.4344 C46.9368615,17.608 46.7880615,17.6576 46.4656615,17.9056 C46.1432615,18.1536 45.8208615,18.104 45.4984615,18.2032 C45.3992615,18.228 45.3000615,18.2528 45.1760615,18.2528 C44.8784615,18.2528 44.5560615,18.1784 44.2832615,18.1784 C43.9360615,18.1784 43.2168615,18.104 43.1424615,18.0296 C43.1176615,18.0048 43.0928615,17.9304 43.0928615,17.8312 C43.0928615,17.7072 43.1176615,17.5336 43.1176615,17.36 C43.1176615,17.1368 43.0928615,17.0624 43.0928615,16.9632 C43.0928615,16.5664 43.1672615,15.9216 43.2168615,15.4504 L43.2168615,15.1776 C43.2168615,14.7064 43.1424615,14.2104 43.1424615,13.5408 C43.1424615,12.9704 43.3160615,12.5736 43.4896615,12.3504 C43.5640615,12.2512 43.6880615,12.2264 43.8120615,12.2264 C44.1344615,12.2264 44.2336615,12.2264 44.3080615,12.2016 C44.3824615,12.1768 44.4816615,12.1768 45.4984615,12.1768 L46.2424615,12.1768 C46.6888615,12.152 46.8624615,12.0776 46.8624615,11.8792 C46.8624615,11.8296 46.8624615,11.78 46.8376615,11.7304 C46.7384615,11.408 46.6392615,11.284 46.1184615,11.2592 C45.7712615,11.2592 45.6224615,11.3584 45.3744615,11.3832 C45.1016615,11.408 44.8784615,11.408 44.0848615,11.408 C43.8616615,11.408 43.6632615,11.3832 43.5144615,11.2592 C43.3656615,11.1352 43.3160615,10.8128 43.3160615,10.416 C43.3160615,10.168 43.3408615,9.8704 43.3656615,9.5728 C43.3656615,9.4488 43.3904615,9.3496 43.3904615,9.2504 C43.3904615,8.9032 43.3160615,8.7792 43.3160615,8.6056 C43.3160615,8.432 43.3904615,8.2832 43.3904615,8.0848 C43.3904615,7.8864 43.3408615,7.7624 43.3160615,7.3904 C43.3160615,7.1424 43.3408615,6.7456 43.4152615,5.6792 C43.4400615,5.5056 43.4400615,5.3072 43.4400615,5.1088 C43.4400615,3.844 43.1920615,2.5296 43.1920615,2.1824 C43.1920615,1.7856 43.3904615,1.736 43.6384615,1.5376 C43.7624615,1.4384 43.8864615,1.4136 44.0352615,1.4136 C44.4320615,1.4136 44.8288615,1.3888 45.3248615,1.3888 C45.4736615,1.3888 45.6224615,1.4136 45.7216615,1.4384 C46.0192615,1.5128 46.1928615,1.5376 46.2176615,1.6616 C46.2424615,1.736 46.3168615,1.7856 46.4656615,1.7856 C46.6144615,1.7856 46.8872615,1.612 46.9120615,1.5872 C47.1600615,1.364 47.3336615,1.2152 47.3336615,0.9424 C47.3336615,0.6696 47.0360615,0.4464 46.7384615,0.3968 C46.6392615,0.372 46.4656615,0.372 46.2920615,0.372 C45.9200615,0.372 45.4736615,0.3968 45.2008615,0.3968 C44.5560615,0.3968 44.2584615,0.3968 44.0352615,0.496 C43.7128615,0.62 42.8944615,0.6448 42.5224615,0.6696 C42.1504615,0.6944 41.8528615,0.9176 41.8280615,0.992 C41.8032615,1.0416 41.6048615,1.0912 41.1584615,1.0912 C40.9352615,1.0912 40.9104615,1.3144 40.8856615,1.7112 L40.8856615,2.2568 Z" id="Path"></path>
                    <path d="M48.9246769,0.4712 C48.8750769,0.5704 48.8750769,0.6696 48.8750769,0.7688 C48.8750769,1.24 49.2718769,1.5872 49.3462769,2.108 C49.3462769,2.1824 49.3710769,2.2568 49.3710769,2.356 C49.3710769,2.6536 49.3214769,3.0504 49.3214769,3.3728 C49.3214769,3.4968 49.3462769,3.596 49.3462769,3.8688 C49.3462769,4.3152 49.2470769,5.1088 49.2470769,5.7536 C49.2718769,6.6464 49.3958769,7.9856 49.4950769,8.3576 C49.5942769,8.7296 49.6190769,10.292 49.6190769,11.1352 C49.6190769,11.7304 49.6934769,12.4744 49.6934769,12.896 C49.6934769,13.0696 49.6686769,13.1936 49.6438769,13.2432 C49.5446769,13.4168 49.4206769,14.136 49.3958769,14.632 L49.3958769,15.1032 C49.3958769,15.5744 49.4206769,16.1448 49.4454769,16.4424 C49.4454769,16.8144 49.2966769,16.9632 49.2966769,17.2608 C49.2966769,17.3352 49.3214769,17.4592 49.3462769,17.5584 C49.4950769,18.104 49.4206769,18.228 49.5446769,18.6992 C49.6438769,19.096 49.7926769,19.2944 50.0654769,19.2944 C50.4870769,19.2944 51.0574769,18.8976 51.2806769,18.5504 C51.3798769,18.4016 51.4294769,18.0048 51.4294769,17.608 C51.4294769,17.36 51.3798769,17.1368 51.3798769,16.7152 C51.3798769,16.3928 51.4046769,16.0456 51.4046769,15.6488 L51.4046769,15.0288 C51.4046769,14.0616 51.4790769,12.1272 51.5286769,11.8296 C51.5534769,11.7056 51.5534769,11.4576 51.5534769,11.1848 C51.5534769,10.6144 51.5286769,9.8952 51.5286769,9.5976 C51.5286769,9.176 51.3798769,8.928 51.3798769,8.184 L51.3798769,7.7128 C51.3798769,6.9192 51.3054769,6.1008 51.3054769,5.2328 C51.3054769,4.6376 51.2558769,4.0672 51.2558769,3.5216 C51.2558769,3.0256 51.2806769,2.5544 51.3302769,2.1576 C51.4046769,1.6368 51.4294769,1.5376 51.5038769,1.5376 C51.9502769,1.5376 52.3470769,1.2896 52.8926769,1.2648 L53.2150769,1.2648 C53.9590769,1.2648 54.4550769,1.4384 55.0502769,1.9096 C55.4966769,2.2568 55.6206769,3.1992 55.6950769,3.3728 C55.7198769,3.4472 55.7446769,3.6456 55.7446769,3.9184 C55.7446769,4.34 55.6950769,4.8856 55.6454769,5.2328 C55.5462769,5.8032 55.2734769,6.5968 55.2734769,6.944 C55.2734769,7.2912 55.0006769,7.3408 54.8766769,7.7624 C54.7526769,8.184 54.1326769,9.4488 53.9838769,9.6472 C53.8350769,9.8456 53.7854769,10.3168 53.7358769,10.5896 C53.6862769,10.8624 53.4382769,10.9864 53.2398769,11.036 C53.0414769,11.0856 52.5950769,12.0528 52.3718769,12.3504 C52.2726769,12.4744 52.2478769,12.5984 52.2478769,12.7224 C52.2478769,12.896 52.2974769,13.0696 52.3718769,13.2432 C52.4958769,13.5656 52.9174769,14.0864 53.2398769,14.3592 C53.5622769,14.632 53.7110769,15.0288 54.0582769,15.4008 C54.4054769,15.7728 54.4798769,15.8224 54.7526769,16.244 C55.0254769,16.6656 55.5462769,16.9632 55.6702769,17.1368 C56.2158769,17.8808 55.8686769,17.9056 56.6870769,18.6 C57.0094769,18.8728 57.4806769,19.3192 57.6542769,19.3192 C57.8526769,19.3192 58.1998769,18.972 58.2246769,18.6744 C58.2494769,18.476 58.3734769,18.228 58.3734769,17.9552 C58.3734769,17.7816 58.2494769,17.608 58.1998769,17.4344 C58.0510769,17.0376 57.5798769,16.3928 57.3318769,15.996 C57.0838769,15.5992 56.7118769,15.2024 56.4638769,15.0288 C56.2158769,14.8552 55.8438769,13.9624 55.4966769,13.5656 C55.1494769,13.1688 53.7854769,12.1768 53.7854769,12.0776 C53.7854769,12.0032 53.9342769,11.8792 54.2318769,11.6064 C54.5542769,11.3088 54.5046769,11.1104 54.8766769,10.7384 C55.2486769,10.3664 55.4222769,10.1432 55.6206769,9.796 C55.9430769,9.2504 56.3894769,8.6552 56.5630769,7.9608 C56.6622769,7.5392 57.1086769,6.944 57.2574769,6.7704 C57.4062769,6.5968 57.7286769,5.8032 57.8030769,5.456 C57.8526769,5.1832 57.9518769,4.4888 57.9518769,3.7448 C57.9518769,3.5464 57.9518769,3.3232 57.9270769,3.1248 C57.8774769,2.604 56.8358769,0.9424 56.2654769,0.9424 C55.9182769,0.7936 55.2982769,0.496 54.7526769,0.496 C54.5046769,0.496 54.4302769,0.5208 54.3558769,0.5208 C53.8350769,0.5208 53.3638769,0.3224 53.1902769,0.3224 C52.7438769,0.3224 52.4958769,0.3224 52.1734769,0.3968 C52.0494769,0.4216 51.8758769,0.4216 51.6774769,0.4216 C51.1318769,0.4216 50.4126769,0.3472 50.1150769,0.2976 C49.9910769,0.2728 49.8670769,0.2728 49.3462769,0.2728 C49.1974769,0.2728 49.0238769,0.2728 48.9246769,0.4712 Z" id="Path"></path>
                    <path d="M66.1892923,5.0096 C66.5116923,5.0344 66.7100923,4.0672 66.7348923,3.8192 C66.7348923,3.596 66.6108923,3.1992 66.6108923,2.5792 C66.6108923,2.1576 66.4868923,1.736 66.3628923,1.5128 C66.2636923,1.2648 65.6188923,0.6448 65.1724923,0.4712 C64.7260923,0.2976 63.9820923,0.1488 63.5604923,0.1488 C63.1388923,0.1488 62.5436923,0.4712 61.9484923,0.8432 C61.3284923,1.2152 61.3284923,1.3392 61.0556923,1.736 C60.7580923,2.1328 60.8076923,2.356 60.3860923,2.852 C59.9892923,3.348 59.8900923,4.1664 59.7412923,5.0344 C59.7164923,5.1584 59.7164923,5.2576 59.7164923,5.3568 C59.7164923,5.9768 59.9892923,6.324 60.1628923,6.5472 C60.3860923,6.7704 60.3860923,7.0928 60.4852923,7.3408 C60.5596923,7.564 61.1300923,8.1096 61.4028923,8.3328 C61.7004923,8.556 62.3700923,9.1512 62.6924923,9.4984 L63.5852923,10.5896 C63.8580923,10.9616 64.2796923,11.16 64.5276923,11.7304 C64.7756923,12.3008 65.0236923,12.5736 65.0980923,13.2432 C65.0980923,13.392 65.1228923,13.4416 65.1228923,13.4912 C65.1724923,13.8384 65.1972923,14.2352 65.1972923,14.6072 C65.1972923,14.9048 65.1724923,15.1776 65.0980923,15.376 C64.9244923,15.8472 64.8004923,16.244 64.7012923,16.3432 C64.6020923,16.4424 64.4532923,16.616 64.4284923,16.9384 C64.3788923,17.2608 63.9324923,17.7072 63.6100923,17.9552 C63.4116923,18.1288 63.0644923,18.2528 62.6924923,18.2528 C62.5188923,18.2528 62.3204923,18.228 62.1468923,18.1536 C61.5764923,17.9304 61.2044923,17.484 60.9068923,17.2112 C60.6340923,16.9384 60.5596923,16.4424 60.4108923,15.7728 C60.3612923,15.5496 60.3364923,15.376 60.3364923,15.2272 C60.3364923,14.9296 60.4108923,14.756 60.4852923,14.4832 C60.5844923,14.1608 60.8324923,13.888 60.8324923,13.6152 C60.8324923,13.2432 60.3612923,12.9952 60.0636923,12.9952 C59.5676923,12.9952 59.2452923,13.392 59.1708923,13.764 C59.1460923,13.8384 59.1460923,13.9376 59.1460923,14.0616 C59.1460923,14.632 59.3196923,15.5248 59.3196923,15.9464 C59.3444923,16.4424 59.5180923,17.36 59.6668923,17.6576 C59.7908923,17.9552 60.3612923,18.6248 60.7084923,18.7736 C61.0804923,18.9224 61.6508923,19.096 62.1220923,19.1208 C62.3700923,19.1456 62.6180923,19.1704 62.8908923,19.1704 C63.1388923,19.1704 63.3868923,19.1456 63.6100923,18.9968 C64.0564923,18.6992 65.0980923,18.1536 65.4452923,17.856 C65.8172923,17.5584 65.9164923,17.5336 66.2140923,17.112 C66.5116923,16.6904 66.7596923,16.2688 66.8092923,15.9712 C66.8836923,15.6736 67.0572923,15.2768 67.1812923,14.7808 C67.3052923,14.1856 67.4044923,13.5904 67.4044923,13.0448 C67.4044923,12.3752 67.2060923,11.3088 66.9084923,10.5896 C66.5364923,9.7216 65.9164923,9.2256 65.0980923,8.4816 C64.3044923,7.7376 63.9324923,7.2416 63.3372923,6.8696 C62.7668923,6.4976 62.6924923,6.5472 62.5436923,6.2 C62.4196923,5.8528 62.4692923,5.3072 62.3204923,5.084 C62.1716923,4.8856 62.0724923,4.6872 62.0724923,4.0672 C62.0724923,3.6456 61.9732923,3.2736 61.9732923,2.9512 C61.9732923,2.7776 61.9980923,2.604 62.0972923,2.48 C62.3204923,2.108 62.7916923,1.4384 63.1884923,1.2648 C63.4612923,1.1408 63.9324923,1.0416 64.2548923,1.0416 C64.3788923,1.0416 64.4780923,1.0664 64.5524923,1.0912 C64.8004923,1.2152 65.0732923,1.612 65.1724923,2.0584 C65.2468923,2.4304 65.4700923,2.604 65.4700923,2.9512 C65.4700923,3.2736 65.3956923,3.5216 65.3956923,3.7696 C65.3956923,4.216 65.4452923,4.6376 65.4452923,4.7368 C65.4452923,4.8856 65.8668923,4.9848 66.1892923,5.0096 Z" id="Path"></path>
                </g>
            </g>
        </g>
    </g>
</svg>