<?xml version="1.0" encoding="UTF-8"?>
<svg width="31px" height="31px" viewBox="0 0 31 31" version="1.1" xmlns="http://www.w3.org/2000/svg" xmlns:xlink="http://www.w3.org/1999/xlink">
    <title>Group 7 Copy 3</title>
    <g id="Page-1" stroke="none" stroke-width="1" fill="none" fillRule="evenodd">
        <g id="Layer-nav" transform="translate(-19, -14,25)">
            <g id="Group-7-Copy-3" transform="translate(19, 14,25)">
                <circle id="Oval-Copy-2" fill="#000000" cx="15.4046154" cy="15.6907692" r="10.4446154"></circle>
                <circle id="Oval-Copy-3" fill="#000000" cx="15.4523077" cy="15.5476923" r="13.7353846"></circle>
                <path d="M15.5,0 C6.93958638,0 0,6.93958638 0,15.5 C0,24.0604136 6.93958638,31 15.5,31 C24.0604136,31 31,24.0604136 31,15.5 C31,6.93958638 24.0604136,0 15.5,0 Z M15.4201031,2.2371134 C22.7891189,2.2371134 28.7628866,8.21088106 28.7628866,15.5798969 C28.7628866,22.9489128 22.7891189,28.9226804 15.4201031,28.9226804 C8.05108724,28.9226804 2.07731959,22.9489128 2.07731959,15.5798969 C2.07731959,8.21088106 8.05108724,2.2371134 15.4201031,2.2371134 Z" id="Oval-Copy-3" fill="#000000" fillRule="nonzero"></path>
                <path d="M15.5,1.04923077 C7.51906053,1.04923077 1.04923077,7.51906053 1.04923077,15.5 C1.04923077,23.4809395 7.51906053,29.9507692 15.5,29.9507692 C23.4809395,29.9507692 29.9507692,23.4809395 29.9507692,15.5 C29.9507692,7.51906053 23.4809395,1.04923077 15.5,1.04923077 Z M15.5,1.74152454 C23.0985962,1.74152454 29.2584755,7.90140382 29.2584755,15.5 C29.2584755,23.0985962 23.0985962,29.2584755 15.5,29.2584755 C7.90140382,29.2584755 1.74152454,23.0985962 1.74152454,15.5 C1.74152454,7.90140382 7.90140382,1.74152454 15.5,1.74152454 Z" id="Oval-Copy-3" fill="#FFFFFF" fillRule="nonzero"></path>
                <path d="M15.4046154,4.96 C21.3310556,4.96 26.1353846,9.75933784 26.1353846,15.6796211 C26.1353846,19.5987808 24.0299891,23.0267099 20.8874185,24.8962977 C21.0210087,24.5308806 21.2713071,24.1365328 21.6363258,23.7136864 L21.6146354,23.7409189 C24.0303257,21.8811006 25.5866521,18.9619218 25.5866521,15.6796211 C25.5866521,10.0620796 21.027999,5.50816244 15.4046154,5.50816244 C9.78123179,5.50816244 5.22257867,10.0620796 5.22257867,15.6796211 C5.22257867,19.1771475 6.98969839,22.2623698 9.68068575,24.0929119 C9.95188911,24.3156047 10.063646,24.6153901 10.0177959,24.9907692 L10.0195927,24.9537718 C6.82299132,23.0975228 4.67384615,19.6392911 4.67384615,15.6796211 C4.67384615,9.75933784 9.47817518,4.96 15.4046154,4.96 Z" id="Combined-Shape-Copy-2" fill="#FFFFFF" fillRule="nonzero"></path>
                <path d="M19.5169067,9.85402428 C19.942307,9.9992748 20.5917516,10.7449869 21.4652406,12.0911605 C21.4583128,11.9412139 22.1177474,14.6537459 21.9686638,14.7099414 C21.851106,14.8768085 21.7976231,15.0748679 21.808215,15.3041195 C21.8128879,15.40526 21.843834,15.5643033 21.8931698,15.756274 L21.9249151,15.8752078 L21.9606954,16.0008454 L22.0001325,16.1319879 L22.0539947,16.301831 L22.1122402,16.4760608 L22.1614959,16.6170297 L22.2127055,16.7581088 L22.2654906,16.8980992 C22.2743984,16.9212736 22.2833561,16.9443527 22.2923557,16.9673115 L22.3467946,17.1034212 C22.3559307,17.1257989 22.365093,17.1480065 22.3742737,17.1700188 L22.4295149,17.2995503 L22.4571824,17.3621845 C22.6661646,17.8294862 22.7410999,18.1689907 22.6819883,18.380698 L22.4249208,18.8799118 L22.2691348,19.1770882 L22.1450756,19.4080642 L22.0799954,19.5252701 L22.0088143,19.645912 C21.916618,19.7918147 21.7354268,19.8477173 21.4652406,19.8136199 L19.7716874,19.2506557 L19.5169067,19.1653189 C18.9999565,18.9919029 18.2114994,18.9315581 17.5153705,19.1770882 L17.0148462,19.3407692 L17.9979471,19.3026757 L18.759307,19.3597452 L19.5634015,19.4647517 L19.4897259,20.0036292 L19.4690471,20.5957927 L19.385299,20.8249789 L19.3361146,20.9553839 L19.1885989,20.7446917 L19.0706037,20.6139477 L18.9272488,20.6089416 L18.77905,20.7303899 L18.8562839,20.733087 L18.9964081,20.8673733 L18.9868194,21.1419563 L19.1600282,21.4705524 L19.069946,21.804312 L19.0323438,22.8810966 L18.9515932,23.1412959 L18.6556692,22.5209672 L18.6792324,21.8462055 L18.2989724,20.9907295 L18.0944971,20.9835891 L18.0896994,21.1209777 L18.1958166,21.5649017 L18.2642639,21.9846491 L18.3920587,22.3678404 L18.5161239,22.9093024 L18.6047377,23.4292116 L18.6159818,23.4967998 L18.4713782,23.6146888 L18.0580583,23.7794524 L17.9393085,23.9054331 L17.8784158,23.7731791 L17.915124,22.7219942 L17.733973,21.6719474 L17.7422601,21.4346355 L17.6585126,20.9683642 L17.4536417,21.1116422 L17.4982917,21.426116 L17.5874213,21.5734413 L17.6322565,22.2674034 L17.5855021,23.6062744 L17.6856504,24.1777465 L17.4115934,24.4737627 L17.1144763,24.617172 L17.0684614,24.6595004 L17.0369283,24.5769045 L17.078202,23.3949796 L16.9728739,22.6515063 L16.9977055,21.9404199 L16.9154706,21.2059645 L16.7931445,21.2016928 L16.8423373,21.6838609 L16.7707275,23.7344978 L16.8105107,24.2116241 L16.8005509,24.4968352 L16.8492617,24.8619737 L16.6695357,25.0293653 L16.3202504,25.1887851 L16.2035251,25.2156533 L16.234696,24.3312588 L16.1665689,24.0714541 L16.2604556,21.3828898 L16.0749576,21.3764121 L16.0596425,21.814978 L15.9938619,22.035754 L15.9664661,22.8202664 L15.8614816,23.5460703 L15.8345502,24.3172854 L15.8984144,24.7690145 L15.8799287,25.2844018 L15.672093,25.3274186 L15.3250273,25.6107698 L15.2584762,25.5171953 L15.2959428,24.4442931 L15.4648444,23.6076542 L15.5449576,23.1619247 L15.6078786,21.3601013 L15.4038939,21.352978 L15.3534027,22.7988578 L15.2307441,23.330465 L15.1177682,23.7961589 L14.9924466,24.2024101 L14.9490706,25.4360077 L14.8826401,25.419224 L14.5078833,25.1254958 L14.3432463,24.9905934 L14.5782319,24.5153396 L14.6187981,23.353676 L14.6929001,23.0514635 L14.9110851,22.5218802 L14.9524546,21.3372134 L14.7530062,21.3302485 L14.7498727,21.4199805 L14.6747488,21.7514566 L14.657778,22.2374365 L14.5873445,22.510575 L14.405891,23.0414409 L14.3384139,23.3438847 L14.3047435,24.3080796 L14.1360647,24.8202591 L14.0988114,24.7897445 L13.7578159,24.5629017 L13.8862758,23.6337705 L14.0539295,22.9821644 L14.069553,22.5347659 L14.1885122,22.2210494 L14.2070625,21.6898395 L14.33508,21.4602557 L14.3470921,21.1162748 L14.1193655,21.1083224 L14.1073534,21.4523033 L13.9204897,21.8329611 L13.8923228,22.6395547 L13.7761098,22.9724627 L13.768182,23.1994862 L13.6958287,23.4141534 L13.6821507,23.8058394 L13.5770792,24.0912275 L13.5055094,24.4240117 L13.308411,24.3304764 L13.070968,24.2027116 L13.215869,23.677947 L13.329752,23.084568 L13.4111518,22.6248411 L13.5090769,22.375694 L13.6493229,22.0224403 L13.6817782,21.0930415 L13.5540239,21.0885802 L13.4594764,21.241007 L13.4347794,21.9482353 L13.2303828,22.2869288 L13.2061021,22.5287624 L13.1943781,22.8644932 L13.0655184,23.2458403 L12.9663508,23.601646 L12.9611853,23.7495656 L12.8532848,23.9319496 L12.8276884,23.8789614 L12.6457042,23.5904488 L12.7646613,22.9914649 L12.8450375,22.4887494 L12.9584925,22.076739 L13.0436565,21.3878997 L13.06391,20.8079171 L12.9039286,20.8023305 L12.8836752,21.382313 L12.8064757,21.7940589 L12.708094,22.0954964 L12.6186175,22.3821093 L12.6064953,22.7292447 L12.5278462,22.9717692 L12.4896372,22.8048989 L12.3361811,22.6651312 L12.4085821,22.2792969 L12.424714,21.8173395 L12.5079002,21.429004 L12.5844138,21.1190042 L12.6811081,20.5926126 L12.4703643,20.5100857 L12.4677426,20.5851617 L12.3451282,20.7607086 L12.2198364,21.2249278 L12.1415603,21.4800087 L12.1182073,22.1487527 L12.0606602,22.4173648 L12.0506279,22.4075599 L12.0654667,21.9826308 L11.841113,21.6583346 L11.7133002,21.169048 L11.7185571,21.0185078 L11.6651759,20.7624249 L11.7201637,20.6323895 L13.3275209,19.737621 L13.3918462,19.4517692 L13.2698526,19.4006248 L10.6281185,20.8652879 L10.2253593,20.8892308 L9.99716677,20.7782015 L9.71900368,20.5119005 L9.08991487,19.6496015 L8.95944115,18.6496226 L8.94412905,18.3182061 L9.24535639,18.1475902 L9.6158059,18.2782768 L9.93462715,19.4245873 L10.3377156,19.4006248 L9.55448352,16.9510086 L9.13286485,15.7128113 L8.95770162,15.0836503 L8.92429342,14.3605596 L8.75051037,14.1275026 L8.58603699,13.6761192 L8.39384615,13.2184187 L8.50557849,12.9891841 L8.94593545,12.8232387 L8.93663347,12.6219055 L9.0732646,12.4170736 L12.0518476,9.27839927 L12.4727775,9.03497852 L13.0864185,10.6348981 L14.106737,12.4611079 L14.3519026,13.748195 L14.4217325,14.4145676 L14.4351549,14.1853441 L14.4812408,14.4267364 L14.4544238,13.8496863 L14.5556622,12.0911605 L13.5965272,10.6207114 L12.8494618,9.07320253 L12.8494618,8.98547548 C12.9069418,9.08670845 14.9355175,8.2897349 19.5169067,9.85402428 Z M14.9296523,16.9124965 L14.9130633,16.9397129 L14.0661762,18.9393488 C13.9583666,19.2609869 14.023807,19.4147113 14.2624974,19.4005218 C14.3461178,19.3955508 14.3705959,19.3399575 14.3876588,19.265803 L14.4058185,19.1790856 C14.4276938,19.0805052 14.4654837,18.9722839 14.6045707,18.9073428 C14.7595218,18.8349947 14.7997544,18.8525424 14.8259979,18.8926527 L14.835988,18.9097406 L14.8513092,18.93779 L14.8638365,18.9567049 C14.8802276,18.9784072 14.9038093,18.9981801 14.9448187,19.0091804 C15.0092621,19.0264667 15.0527715,18.9859806 15.0859697,18.9420946 L15.1258462,18.8852492 C15.156596,18.8430077 15.179688,18.8305368 15.2126563,18.9375856 C15.2417111,19.0319268 15.3024849,19.0832132 15.3696483,19.1274133 L15.4529691,19.1801854 C15.5296654,19.2301117 15.6014251,19.2895631 15.6321832,19.4097529 L15.6498592,19.4760099 L15.6672,19.5339586 C15.7222474,19.7047349 15.7817374,19.7566272 15.9357624,19.7474709 C16.0289881,19.7419289 16.0390919,19.6502162 16.0321994,19.5492674 L16.0255249,19.4788497 L16.0182955,19.4111537 C16.0137209,19.3610305 16.0130672,19.3185247 16.0266581,19.2956474 C16.0385358,19.2756539 16.0596466,19.2571585 16.0860422,19.2375852 L16.1526843,19.1906389 C16.2329382,19.1340396 16.327713,19.0586256 16.3753135,18.9241415 C16.4017048,18.8495793 16.3760889,18.7125997 16.3150427,18.5367429 L16.2867591,18.459064 L16.2544271,18.3770365 L16.2183366,18.291072 L16.1787776,18.2015824 L16.1360401,18.1089795 L16.0666084,17.9651382 L15.991656,17.8166082 L15.9391041,17.7156695 L15.8571255,17.5624132 L15.772236,17.408174 L15.7145092,17.3054882 L15.6290864,17.1563991 C15.357435,16.6873511 15.1242903,16.6060502 14.9296523,16.9124965 Z M14.467183,14.6097701 L14.1852453,14.6265305 C13.9997012,15.4350921 13.7126491,15.7963299 13.3240891,15.7102439 C13.1651327,15.6750268 12.9765297,15.6038278 12.7770027,15.519444 L12.6425718,15.461485 L12.2321863,15.2791787 L12.0971362,15.2206036 L11.9650131,15.1656272 C11.704516,15.0602737 11.4689781,14.9855182 11.3027791,14.9953982 C10.8457319,15.0225684 10.3370497,15.6286462 10.2052814,16.1280607 L10.163597,16.2888658 L10.147848,16.3541784 L10.1331548,16.4202014 L10.1168085,16.5038762 L10.103348,16.5889998 C10.0514774,16.9670075 10.1033496,17.3925557 10.5221946,17.9377771 C11.1187315,18.7143046 12.1347986,18.6732631 13.2121364,17.7778677 C13.721606,17.4250121 14.040137,17.0581915 14.1677294,16.6774058 C14.1965406,16.5914219 14.2239356,16.4897119 14.2499144,16.3722756 L14.2718352,16.2677646 L14.2930623,16.155551 L14.3186207,16.0044521 L14.3430953,15.8413179 L14.3618947,15.7021451 L14.3800004,15.5552696 L14.4058584,15.320514 L14.42223,15.154382 L14.437908,14.9805473 L14.4528923,14.79901 L14.467183,14.6097701 Z M18.5855437,14.3845544 L18.4651355,14.414569 C18.3647634,14.4409238 18.2644502,14.4705644 18.1652358,14.5029597 L18.0467727,14.5431223 L17.9297639,14.5857253 C17.9104059,14.5930178 17.891125,14.6004036 17.8719297,14.6078782 L17.7578514,14.6537595 C17.7390316,14.6615729 17.7203141,14.6694668 17.701707,14.6774368 L17.5914577,14.7261373 C17.5370627,14.7509107 17.4838122,14.7762933 17.4319308,14.8021704 L17.3281756,14.8555494 C17.1755966,14.9365367 17.0372348,15.0214156 16.9195057,15.1069093 L16.8810356,15.1354255 C16.3526606,15.5354045 15.9654114,15.6133881 15.719288,15.3693762 L15.6973019,15.3463062 L15.7298567,16.0480854 L15.7331117,16.0986524 L15.7379909,16.1502874 C15.7588271,16.3328313 15.8239434,16.5342538 16.0849066,16.7467393 C16.2039635,16.8436797 16.3701089,16.9543859 16.5450349,17.0562822 L16.6410897,17.1108527 L16.7375046,17.1628616 L16.7826073,17.1862181 L16.8715582,17.2303489 C17.0764871,17.3289085 17.2599182,17.3947332 17.3560092,17.3890208 L17.4454113,17.384049 L17.5503087,17.3802133 L17.628451,17.379327 L17.6698957,17.379619 L17.7573831,17.3820631 L17.8508022,17.3875072 C18.0241517,17.400381 18.2251684,17.4308662 18.4475851,17.4953331 L18.522508,17.5181031 C18.7795083,17.5998341 18.8333125,17.4854879 18.8470633,17.3457107 L18.849943,17.3070873 L18.8540197,17.1913436 L18.8563092,17.1553686 L18.8602897,17.1219788 C18.8695869,17.0636042 18.8911173,17.0221418 18.945274,17.0189223 C19.0122542,17.0149405 19.0326086,17.0603095 19.0444249,17.1275813 L19.0620325,17.2510175 L19.0689792,17.2880619 C19.0982076,17.4249496 19.1736914,17.5699289 19.4578998,17.6059161 C19.6925201,17.6356243 19.7660423,17.5835635 19.8075942,17.5088518 L19.8198037,17.4845747 L19.8529916,17.4062343 L19.8672521,17.3773521 C19.9088245,17.3010878 19.9830891,17.2328483 20.1941617,17.2203007 C20.5566917,17.1987493 20.7785077,17.4903496 20.8596098,18.0951017 L20.8665951,18.1509418 L21.264174,18.1273069 C21.3029119,17.3801352 20.9931225,17.079561 20.7365591,16.9750705 L20.6975619,16.9605083 L20.6597297,16.9488374 C20.6535394,16.9471219 20.6474113,16.9455184 20.641352,16.9440228 L20.6058767,16.9363088 L20.5723792,16.9309793 L20.5411844,16.9278316 L20.5265521,16.9270126 L20.4870035,16.9272709 C20.4183488,16.9313522 20.3750681,16.807432 20.3512916,16.6229118 L20.3432783,16.5510077 L20.3370247,16.4742123 C20.3361252,16.4610493 20.3352962,16.4477154 20.3345363,16.4342271 L20.3306484,16.3473598 L20.3285073,16.2573204 L20.3280333,16.1650231 L20.3291468,16.0713824 L20.3317681,15.9773127 L20.3358177,15.8837282 L20.3412159,15.7915433 L20.3478831,15.7016725 L20.3557397,15.61503 L20.364706,15.5325303 L20.3747024,15.4550876 L20.3856493,15.3836164 L20.3974671,15.3190311 L20.4036776,15.2896063 L20.4100761,15.2622459 C20.4792925,14.9818175 20.4273077,14.7459309 20.2541217,14.554586 C19.9324659,14.2247962 19.2672626,14.2237944 18.5855437,14.3845544 Z M13.8481294,14.399534 L13.5401353,14.4178434 C13.5033761,14.6954733 13.3290148,14.8693697 13.0170513,14.9395327 L12.9755801,14.9480961 L12.9879062,15.214883 L13.222982,15.2009084 C13.6284349,15.2479057 13.8368174,14.9807809 13.8481294,14.399534 Z" id="Combined-Shape-Copy-3" fill="#FFFFFF"></path>
                <path d="M9.26644205,24.4250568 C9.63798652,24.6238557 9.82375876,25.1985608 9.82375876,26.1491721 C9.82375876,27.0997834 9.68111683,27.7393077 9.39583298,28.0677452 C9.34053612,28.2420689 9.34053612,28.3292308 9.39583298,28.3292308 C9.45112983,28.3292308 9.75303166,27.9055414 10.3015385,27.0581627 L10.0979708,24.7415097 L8.68,23.9415385 L9.13379777,24.3590041" id="Path-5-Copy" fill="#FFFFFF"></path>
                <path d="M21.2240998,24.1308835 C21.7702495,24.8782937 22.0433243,25.6245948 22.0433243,26.3697867 C22.0433243,27.2871387 21.9861595,27.7116958 21.719975,28.0400679 C21.7165325,28.0443146 21.7165325,28.0594894 21.719975,28.0855922 C21.5951006,28.3116077 21.5594715,28.4246154 21.6130875,28.4246154 C21.6667035,28.4246154 22.0295205,27.9717732 22.7015385,27.0660887 L22.3378629,24.7679395 L20.6984615,23.56 L21.0140158,23.7360272 L21.2240998,24.1308835 Z" id="Path-5-Copy-2" fill="#FFFFFF" transform="translate(21,7, 25,9923) scale(-1, 1) translate(-21,7, -25,9923)"></path>
                <polygon id="Line-Copy" fill="#FFFFFF" fillRule="nonzero" points="5.96367246 19.5538462 6.2 20.0359388 1.76248138 22.2246154 1.52615385 21.7425227"></polygon>
                <polygon id="Line-2-Copy" fill="#FFFFFF" fillRule="nonzero" points="1.62153846 8.86520734 1.86711166 8.39384615 6.48615385 10.6886388 6.24058064 11.16"></polygon>
                <polygon id="Line-3-Copy" fill="#FFFFFF" fillRule="nonzero" points="8.48923077 1.67240133 8.97027077 1.43076923 11.4461538 6.24452174 10.9651138 6.48615385"></polygon>
                <polygon id="Line-4-Copy" fill="#FFFFFF" fillRule="nonzero" points="21.9444015 1.62153846 22.4153846 1.86726705 20.1202139 6.48615385 19.6492308 6.24042526"></polygon>
                <polygon id="Line-5-Copy" fill="#FFFFFF" fillRule="nonzero" points="28.9513648 8.48923077 29.1876923 8.97132346 24.7501737 11.16 24.5138462 10.6779073"></polygon>
                <polygon id="Line-6-Copy" fill="#FFFFFF" fillRule="nonzero" points="24.7046154 20.1269163 24.9497821 19.6492308 29.2830769 21.8423144 29.0379102 22.32"></polygon>
                <polygon id="Path-11-Copy" fill="#FFFFFF" points="6.90622928 24.6202126 6.84446715 25.0822749 7.03813527 25.4366713 7.53062302 25.6107698 8.11626202 25.1616331 7.89303646 24.3684707 7.260005 24.338975"></polygon>
                <polygon id="Path-12-Copy" fill="#FFFFFF" points="6.29893781 23.2579493 6.76828942 23.2801809 7.09882612 24.0245671 6.62867268 24.4025647 6.02119147 24.2567348 5.95421074 23.7139042"></polygon>
                <polygon id="Path-13-Copy" fill="#FFFFFF" points="5.5228525 22.1769237 5.0957352 22.4078551 5.00036458 22.7235899 5.07084063 23.1860171 5.41511966 23.4487186 5.84575139 23.4337141 6.12123693 23.2513954 6.3357492 22.8325407 5.78163453 22.6903113 6.09374073 22.3039849"></polygon>
                <path d="M3.47883008,13.6074827 L3.91839519,14.2378348 L3.61447425,14.6946984 L4.14447425,15.6276984 L4.81638317,14.6931182 L5.78419202,16.3984227 L3.59165764,16.3984227 L3.61547425,16.3646984 L1.45247425,16.3648516 L2.67719978,14.6595471 L3.07947425,15.3696984 L3.58347425,14.6686984 L3.30935786,14.2780508 L3.47883008,13.6074827 Z M4.69818599,13.5832695 L5.13775111,14.2136216 L4.82826737,14.6795367 L4.52871378,14.2538375 L4.69818599,13.5832695 Z M2.5590026,13.5496984 L2.99856772,14.1800505 L2.68908397,14.6459656 L2.38953039,14.2202665 L2.5590026,13.5496984 Z" id="Combined-Shape-Copy-4" fill="#FFFFFF" transform="translate(3,6183, 14,9741) rotate(-86) translate(-3,6183, -14,9741)"></path>
                <polygon id="Path" fill="#FFFFFF" transform="translate(23,8338, 7,5195) rotate(-41) translate(-23,8338, -7,5195)" points="24.9186302 8.57455429 23.7647835 7.73292808 22.7366277 9.06928749 22.4730866 8.49533181 23.3123789 7.41119942 22.4068811 6.76838479 22.5545643 6.17200377 23.6482264 6.97781369 24.4353714 5.96980286 24.9392348 6.21540996 24.0999425 7.29954235 25.2607922 8.18094195"></polygon>
                <path d="M27.3159601,13.8307692 L28.4246154,14.6874721 L27.8626819,15.2575932 L28.4246154,15.8356049 L27.3159601,16.6923077 L25.8497233,15.2570154 L27.3159601,13.8307692 Z" id="Combined-Shape-Copy-5" fill="#FFFFFF"></path>
                <polygon id="Path-2" fill="#FFFFFF" points="7.56078866 8.97113732 6.46300453 8.72619015 6.58718964 8.31320218 6.68862742 7.97586234 6.81445084 7.55742604 7.01189659 6.90080367 5.54710123 6.90080367 7.56078866 6.10959886 7.62876864 7.43475273 8.70985427 7.85706852"></polygon>
                <polygon id="Path-3" fill="#FFFFFF" points="13.8137297 5.05778594 13.7353846 3.37330523 15.2779681 2.86153846 17.7415385 3.80564888 17.5508647 5.24615385"></polygon>
                <polygon id="Path-4" fill="#FFFFFF" points="22.9791226 23.1732208 23.8565633 24.0863852 23.5003613 24.1581333 24.1160765 24.3151825 23.5376442 23.0589093 24.9333196 23.8959187 24.4879274 24.0060675 25.4404229 24.1658181 25.0836155 23.2936636 25.0386013 23.7201296 23.9386974 22.4332514 25.27877 22.8160682 24.952648 22.32 24.952648 22.6566872 24.0066419 21.8695313 23.6625418 22.3813323"></polygon>
            </g>
        </g>
    </g>
</svg>