<?xml version="1.0" encoding="UTF-8"?>
<svg width="17px" height="17px" viewBox="0 0 17 17" version="1.1" xmlns="http://www.w3.org/2000/svg" xmlns:xlink="http://www.w3.org/1999/xlink">
    <title>Shape</title>
    <g id="Page-1" stroke="none" stroke-width="1" fill="none" fill-rule="evenodd">
        <g id="On-mission-&gt;-V2-&gt;-Menu" transform="translate(-180, -595)" fill="#063433" fill-rule="nonzero">
            <path d="M180.459798,597.859798 L186.059798,595.459798 L190.859798,597.859798 L195.902198,595.698758 C196.105318,595.611734 196.340438,595.70579 196.427478,595.908846 C196.448758,595.958638 196.459798,596.012246 196.459798,596.066414 L196.459798,609.059798 L190.859798,611.459798 L186.059798,609.059798 L181.017366,611.220838 C180.81431,611.307878 180.579166,611.213798 180.492142,611.010758 C180.470798,610.960998 180.459798,610.907318 180.459798,610.853158 L180.459798,597.859798 Z M183.659798,602.659798 L183.659798,604.579798 L185.579798,604.579798 L185.579798,602.659798 L183.659798,602.659798 Z M186.859798,602.659798 L186.859798,604.579798 L188.779798,604.579798 L188.779798,602.659798 L186.859798,602.659798 Z M191.659798,602.611238 L190.669878,601.621318 L189.821318,602.469878 L190.811238,603.459798 L189.821318,604.449718 L190.669878,605.298278 L191.659798,604.308358 L192.649718,605.298278 L193.498278,604.449718 L192.508358,603.459798 L193.498278,602.469878 L192.649718,601.621318 L191.659798,602.611238 Z" id="Shape"></path>
        </g>
    </g>
</svg>