<svg xmlns="http://www.w3.org/2000/svg" viewBox="0 0 500 500">
  <path fillrule="evenodd" fill="white" cliprule="evenodd" d="M 178.358 21.715 L 178.358 24.146 L 198.2 66.942 L 223.666 107.608 L 220.978 156.235 L 221.688 172.184 L 220.465 165.52 L 220.112 171.862 L 218.245 153.412 L 211.735 117.838 L 184.646 67.334 L 168.357 23.082 L 157.182 29.815 L 78.117 116.612 L 74.474 122.283 L 74.74 127.836 L 63.028 132.443 L 60.074 138.762 L 65.183 151.425 L 69.539 163.922 L 74.163 170.358 L 75.051 190.354 L 79.694 207.76 L 90.894 241.991 L 111.673 309.738 L 100.982 310.386 L 92.517 278.701 L 82.672 275.089 L 74.674 279.788 L 75.096 288.953 L 78.562 316.611 L 95.249 340.452 L 102.65 347.812 L 108.693 350.89 L 119.383 350.243 L 189.533 309.738 L 192.758 311.148 L 191.047 319.043 L 148.38 343.785 L 146.914 347.396 L 148.336 354.476 L 148.203 358.621 L 151.605 372.16 L 157.559 381.117 L 157.159 392.877 L 157.448 393.154 L 158.958 385.724 L 159.27 376.279 L 159.581 367.231 L 161.647 360.171 L 164.98 347.35 L 168.224 342.488 L 168.292 340.407 L 173.891 342.698 L 171.335 357.255 L 169.291 365.819 L 167.092 376.559 L 166.67 389.336 L 164.735 400.028 L 168.802 403.871 L 169.848 408.522 L 171.915 401.763 L 172.247 392.182 L 174.603 384.242 L 177.224 375.911 L 179.268 364.523 L 179.447 359.039 L 179.692 352.324 L 179.802 348.483 L 182.446 348.577 L 184.068 348.644 L 183.713 359.199 L 183.511 364.685 L 181.268 383.736 L 178.246 395.12 L 176.113 409.032 L 172.958 425.581 L 177.78 433.566 L 178.47 435.047 L 181.335 429.978 L 181.467 425.905 L 184.091 416.067 L 187.514 405.512 L 187.823 396.233 L 188.467 389.544 L 193.912 380.168 L 194.024 376.536 L 194.489 362.811 L 194.557 360.609 L 197.069 356.399 L 200.467 356.538 L 200.135 366.467 L 199.935 372.348 L 199.601 382.231 L 195.868 391.996 L 193.267 398.895 L 191.112 411.601 L 188.091 428.01 L 184.247 442.523 L 190.559 446.064 L 195.8 448.655 L 197.69 439.445 L 200.467 431.552 L 200.823 420.721 L 202.755 414.77 L 202.956 408.499 L 206.046 399.286 L 206.422 388.13 L 206.801 376.998 L 211.755 366.467 L 211.978 360.103 L 212.09 356.954 L 218.134 357.163 L 217.801 366.675 L 214.399 373.04 L 213.911 387.716 L 210.756 396.394 L 210.333 408.779 L 205.89 426.785 L 202.511 452.498 L 211.533 458.747 L 212.533 459.604 L 217 445.442 L 217.179 440.369 L 217.512 429.978 L 217.889 418.777 L 219.689 410.398 L 224.511 395.723 L 226.378 388.178 L 226.823 374.732 L 228.823 365.565 L 228.91 363.09 L 234.2 363.272 L 233.8 374.984 L 233.443 386.025 L 233.088 396.046 L 227.311 410.675 L 225.333 419.054 L 225.044 427.479 L 224.533 442.755 L 224.267 451.158 L 218.022 464.303 L 222.4 468.03 L 232.333 476.153 L 234.111 476.64 L 234.377 468.794 L 234.689 459.42 L 235.042 448.912 L 235.266 442.523 L 238.577 431.274 L 241.577 418.406 L 244.844 403.706 L 245.332 388.872 L 245.467 385.329 L 246.177 363.712 L 251.598 363.921 L 250.953 382.786 L 250.532 395.328 L 249.931 413.73 L 247.799 426.065 L 243.311 449.213 L 242.8 464.417 L 242.31 478.86 L 244.088 481.455 L 253.31 473.63 L 258.821 472.451 L 259.31 458.169 L 257.62 445.695 L 257.844 438.59 L 258.332 424.353 L 261.11 404.288 L 261.421 395.468 L 261.843 382.6 L 263.598 376.488 L 263.998 364.36 L 268.932 364.546 L 268.309 382.831 L 267.887 395.7 L 267.398 409.933 L 266.909 424.678 L 266.419 438.89 L 268.242 446.064 L 268.11 450.092 L 267.821 458.493 L 267.42 470.529 L 270.51 469.789 L 279.774 465.391 L 284.574 460.762 L 283.264 450.647 L 283.531 442.779 L 282.463 429.563 L 282.954 414.935 L 283.199 407.688 L 283.488 399.473 L 284.02 383.247 L 284.375 372.88 L 283.064 359.523 L 286.309 359.662 L 288.485 379.959 L 288.219 388.039 L 287.842 399.633 L 290.641 420.188 L 290.064 437.339 L 289.53 452.869 L 290.375 455.161 L 291.597 453.98 L 299.486 450.022 L 306.775 441.851 L 304.107 426.02 L 304.286 420.673 L 304.707 408.221 L 305.352 389.012 L 304.151 369.823 L 301.774 365.748 L 300.597 357.047 L 306.041 353.09 L 308.262 365.981 L 308.041 372.53 L 312.841 401.58 L 312.307 417.828 L 311.884 430.651 L 313.507 434.328 L 316.64 430.81 L 327.618 426.252 L 331.461 423.012 L 331.151 421.136 L 328.817 406.764 L 325.507 391.787 L 322.128 381.188 L 320.306 369.57 L 317.486 357.303 L 317.617 353.504 L 323.04 353.69 L 333.128 377.345 L 332.819 386.58 L 332.507 396.025 L 340.372 413.174 L 342.507 405.975 L 343.061 389.869 L 343.506 376.187 L 345.905 367 L 341.306 357.88 L 341.55 350.287 L 337.84 346.586 L 335.796 346.492 L 339.727 343.136 L 343.528 343.275 L 346.663 346.886 L 350.593 352.741 L 351.883 349.107 L 354.107 342.791 L 354.483 331.704 L 354.66 326.401 L 356.616 311.498 L 335.262 308.604 L 315.041 307.029 L 288.974 308.095 L 302.24 303.557 C 320.73 296.752 341.661 298.42 355.373 303.211 L 362.149 305.572 L 407.104 321.148 C 414.281 322.097 419.081 320.546 421.526 316.52 L 423.413 313.186 L 425.147 309.946 L 428.436 303.557 L 432.592 295.341 L 439.411 281.524 C 440.969 275.667 438.991 266.294 433.436 253.355 L 432.701 251.62 L 431.235 248.056 C 430.99 247.431 430.745 246.829 430.501 246.202 L 429.057 242.431 L 428.345 240.534 L 426.946 236.644 L 425.592 232.755 L 424.282 228.844 L 422.724 224.03 L 421.302 219.331 L 420.259 215.722 L 419.303 212.248 L 418.459 208.964 C 417.147 203.639 416.325 199.24 416.213 196.44 C 415.924 190.098 417.346 184.638 420.458 180.008 C 424.435 178.457 406.925 103.466 407.104 107.608 C 407.104 107.608 372.325 51.76 355.373 45.742 C 255.777 10.305 201.622 18.684 184.444 21.322 C 180.625 21.924 178.647 22.227 178.358 21.715 Z M 233.154 241.667 L 233.6 240.926 C 238.756 232.454 244.954 234.7 252.155 247.662 L 254.422 251.781 L 255.954 254.629 L 258.221 258.886 L 260.398 263.146 L 261.776 265.924 L 263.775 270.043 L 265.621 274.002 L 266.754 276.571 L 267.797 279.046 L 268.755 281.43 L 269.619 283.698 L 270.377 285.852 C 271.997 290.711 272.665 294.484 271.977 296.546 C 270.71 300.271 268.198 302.355 266.066 303.927 L 264.287 305.224 C 263.598 305.755 263.021 306.265 262.709 306.822 C 262.353 307.469 262.377 308.626 262.489 310.017 L 262.688 311.889 L 262.865 313.833 C 263.042 316.635 262.776 319.158 260.309 319.319 C 256.221 319.575 254.643 318.139 253.176 313.419 L 252.711 311.823 L 252.242 309.993 C 251.421 306.66 249.511 305.015 247.488 303.626 L 245.267 302.17 C 243.488 300.942 241.865 299.528 241.111 296.916 C 240.222 293.976 239.622 294.3 238.8 295.481 L 237.733 297.053 C 236.866 298.256 235.711 299.391 233.999 298.907 C 232.911 298.606 232.289 298.051 231.845 297.447 L 231.511 296.937 L 231.11 296.151 L 230.844 295.689 C 230.133 294.578 229.066 294.091 224.956 296.082 C 221.267 297.887 220.266 300.874 219.689 303.605 L 219.199 306.012 C 218.755 308.049 218.089 309.599 215.889 309.714 C 209.535 310.109 207.801 305.872 210.668 296.986 L 233.154 241.667 Z M 213.823 177.716 L 221.311 177.252 L 220.934 182.486 L 220.533 187.506 L 220.112 192.298 L 219.689 196.905 L 218.999 203.385 L 218.511 207.459 L 218.022 211.3 L 217.376 215.814 L 216.691 220.004 L 216.134 223.103 L 215.534 225.973 C 214.844 229.237 214.134 232.04 213.357 234.423 C 209.979 244.955 201.513 255.093 188.002 264.859 C 159.382 289.625 132.425 290.759 116.582 269.28 C 105.45 254.19 104.072 242.431 105.45 231.969 L 105.804 229.631 L 106.248 227.318 L 106.649 225.49 L 107.049 223.685 L 108.16 219.238 C 111.673 205.421 125.16 188.663 137.292 187.9 C 141.716 187.647 147.958 189.706 154.891 192.621 L 158.381 194.148 L 161.98 195.77 L 172.868 200.793 L 176.447 202.412 C 181.735 204.726 186.735 206.694 190.956 207.69 C 201.289 210.05 208.911 200.073 213.823 177.716 Z M 297.263 184.034 L 300.019 182.575 C 301.397 181.859 302.819 181.141 304.263 180.471 L 307.196 179.127 C 307.684 178.896 308.174 178.687 308.685 178.457 L 311.707 177.183 C 312.217 177 312.73 176.791 313.242 176.583 L 316.351 175.402 L 319.484 174.289 C 322.128 173.388 324.795 172.578 327.462 171.862 L 330.64 171.027 C 348.75 166.584 366.416 166.606 374.95 175.725 C 379.549 181.004 380.925 187.53 379.082 195.285 L 378.926 196.048 C 378.86 196.302 378.816 196.58 378.749 196.856 L 378.437 198.642 L 378.148 200.629 L 377.883 202.759 L 377.638 205.049 L 377.439 207.436 L 377.259 209.934 L 377.125 212.48 L 377.015 215.073 L 376.949 217.665 L 376.905 220.257 L 376.926 222.805 L 376.97 225.304 L 377.082 227.709 L 377.15 228.797 L 377.327 230.927 L 377.526 232.918 C 378.148 238.01 379.305 241.434 381.126 241.342 L 382.171 241.321 L 382.572 241.342 L 383.393 241.434 L 384.283 241.573 L 385.236 241.803 C 385.393 241.83 385.548 241.875 385.726 241.92 L 386.726 242.244 L 387.748 242.66 C 394.571 245.556 402.792 253.866 401.771 274.512 L 391.214 275.182 L 391.015 273.63 C 388.859 256.898 382.97 248.843 373.349 249.443 C 367.749 249.792 365.771 251.665 364.682 253.773 L 364.305 254.582 L 363.415 256.734 L 363.082 257.406 C 361.994 259.491 360.037 260.923 353.816 260.09 C 346.262 259.095 344.262 255.093 343.484 251.319 L 343.306 250.278 L 342.839 246.876 C 342.528 245.022 341.971 243.748 340.195 243.867 C 338.774 243.957 338.196 245.092 337.952 246.713 L 337.84 247.64 L 337.773 248.635 L 337.663 251.829 L 337.595 252.917 C 337.218 256.782 335.796 259.929 328.972 257.661 L 326.996 257.036 C 321.083 255.253 315.751 254.421 311.151 254.048 L 308.663 253.911 L 306.33 253.841 L 305.241 253.841 L 303.173 253.866 L 300.375 253.957 L 297.997 254.097 C 295.464 254.257 290.596 252.429 285.154 249.721 L 282.775 248.495 L 281.597 247.847 L 279.02 246.41 L 276.488 244.907 C 271.843 242.083 267.42 239.029 264.264 236.345 C 257.331 230.464 255.598 224.886 255.044 219.84 L 254.932 218.43 L 254.843 217.018 L 253.977 197.62 L 254.554 198.245 C 261.087 205.005 271.375 202.852 285.398 191.788 L 286.421 191.002 C 289.553 188.641 293.219 186.28 297.263 184.034 Z M 196.689 171.929 L 204.867 171.444 C 204.579 187.506 199.046 194.89 188.291 193.595 L 182.045 193.988 L 181.713 186.604 L 182.826 186.373 C 191.091 184.43 195.735 179.614 196.689 171.929 Z" style=""></path>
</svg>