<?xml version="1.0" encoding="UTF-8"?>
<svg id="Layer_1" data-name="Layer 1" xmlns="http://www.w3.org/2000/svg" viewBox="0 0 27.86 17.59">
  <defs>
    <style>
      .cls-1 {
        fill: #f3b654;
      }

      .cls-1, .cls-2, .cls-3, .cls-4, .cls-5, .cls-6, .cls-7, .cls-8, .cls-9, .cls-10, .cls-11, .cls-12, .cls-13, .cls-14, .cls-15, .cls-16, .cls-17, .cls-18, .cls-19, .cls-20, .cls-21, .cls-22, .cls-23, .cls-24, .cls-25, .cls-26, .cls-27, .cls-28, .cls-29, .cls-30, .cls-31, .cls-32, .cls-33 {
        stroke-width: 0px;
      }

      .cls-2 {
        fill: #d793b4;
      }

      .cls-3 {
        fill: #c0681e;
      }

      .cls-4 {
        fill: #dda019;
      }

      .cls-5 {
        fill: #f6ec30;
      }

      .cls-6 {
        fill: #931b4d;
      }

      .cls-7 {
        fill: #a5cbcd;
      }

      .cls-8 {
        fill: #f0a3c7;
      }

      .cls-9 {
        fill: #f6c366;
      }

      .cls-10 {
        fill: #a2065a;
      }

      .cls-11 {
        fill: #e38282;
      }

      .cls-12 {
        fill: #edb01f;
      }

      .cls-13 {
        fill: #8f3c0b;
      }

      .cls-14 {
        fill: #f9ce7f;
      }

      .cls-15 {
        fill: #6983ae;
      }

      .cls-16 {
        fill: #f4b01c;
      }

      .cls-17 {
        fill: #881646;
      }

      .cls-18 {
        fill: #ef9822;
      }

      .cls-19 {
        fill: #f1a91e;
      }

      .cls-20 {
        fill: #c4d7dc;
      }

      .cls-21 {
        fill: #e47b26;
      }

      .cls-22 {
        fill: #b31e46;
      }

      .cls-23 {
        fill: #ee9f3c;
      }

      .cls-24 {
        fill: #a41d4c;
      }

      .cls-25 {
        fill: #414b9d;
      }

      .cls-26 {
        fill: #e41e7f;
      }

      .cls-27 {
        fill: #31387b;
      }

      .cls-28 {
        fill: #c12146;
      }

      .cls-29 {
        fill: #f6c942;
      }

      .cls-30 {
        fill: #f8e04e;
      }

      .cls-31 {
        fill: #813403;
      }

      .cls-32 {
        fill: #515fa5;
      }

      .cls-33 {
        fill: #f2cf34;
      }
    </style>
  </defs>
  <path class="cls-23" d="M27.86,14.09s0,.1-.03.17c-.03.07-.07.11-.1.13-.05.06-.1.12-.15.17l-.03.16-.06.19-.14.1-.18.09-.22.14-.16.16s-.05.01-.07.04c-.04.04-.04.09-.04.09v.07s0,.06-.01.09c.01.02.01.05-.01.08-.01.05-.05.07-.06.08-.03.02-.06.05-.11.07-.08.04-.15.04-.19.04-.04-.01-.12-.03-.23-.01-.09.02-.15.06-.18.09-.13.02-.26.05-.39.08l-.78.12-.38.05-.28.04-.16.12-.18.16-.04.02-.13.08-.51-.05h-.38s-.37.1-.37.1h-.42l-.43.04h-.55l-.26-.02-.18.1s-.26.04-.27.04h-.34l-.12.03-.1.1-.12.15-.11.09-.11.1-.11.07s-.14-.01-.16,0c-.02.02-.31.03-.31.03,0,0-.2-.01-.21,0h-.26l-.22-.02h-.52s-.21,0-.21,0l-.21-.04-.2-.04-.15-.06-.11-.1-.14-.11-.18-.07h-.17s-.25.01-.25.01c0,0-.14.07-.15.07s-.25.05-.26.05-.19.01-.19.01h-.24s-.14-.02-.15-.02-.17.01-.17.01l-.23.07-.21.08s-.19.05-.2.06c0,0-.22.03-.23.03s-.18.03-.18.03c0,0-.22.03-.23.03s-.24.02-.24.02l-.25.02h-.38l-.33.03-.2.02h-.25s-.21.03-.23.03h-1.36l-.39-.02h-.39s-.37-.02-.39-.02h-.24l-.24-.02-.23-.05-.12-.05-.19-.18-.21-.12-.22-.13-.19-.1-.22-.05-.42-.02-.49-.03-.41-.02-.58-.02-.3-.02-.19.05-.14.06-.09.07-.12.07-.15.03-.31.03h-.29s-.23,0-.23,0h-.35s-.27-.02-.27-.02l-.2-.03-.24-.03-.23-.05-.24-.07-.22-.07-.18-.06-.2-.05-.25-.05-.16-.03-.28-.11-.17-.12-.16-.14-.13-.15-.05-.08-.04-.07v-.02s-.04-.12-.04-.12v-.19l.07-.21.06-.14.12-.18.09-.13.07-.09.03-.12S-.06,13.82,0,13.63c.07-.18.15-.25.15-.25,0,0,.55-.43.61-.5,0,0,.67-.67.72-.69,0,0,.48-.45,1.17-.53,0,0,.84-.08,1-.13,0,0,.56-.17.68-.25,0,0,.38-.1.52-.12,0,0,.08-.02.15-.08,0,0,.65-1.15,2.3-1.09,0,0,.96-.47,1.24-1.06.28-.59,1.05-1.09,1.05-1.09,0,0,1.23-.26,1.99-.28,0,0,.86-.17,1.28-.98,0,0,.29-.36,1.34-.36h.46l.42-.15.36-.13h.4l.39.06h.07s.43.15.43.15l.39.19.31.18.3.09.38.27.46.41.66.65.64.6.6.46.59.47.3.24.18.16.4.09.7.09.47.12.33.15.36.25.3.25.29.29.19.18.26.1.31.17.26.24.26.2.25.21.25.17.25.19.29.33.29.31.28.27.22.19.24.19s.06.04.09.1c.03.06.02.11.02.13Z"/>
  <path class="cls-1" d="M23.68,16.63l-.13.08-.51-.05h-.38s-.37.1-.37.1h-.42l-.43.04h-.55l-.26-.02-.18.1s-.26.04-.27.04h-.34l-.12.03-.1.1-.12.15-.11.09-.11.1-.11.07s-.14-.01-.16,0c-.02.02-.31.03-.31.03,0,0-.2-.01-.21,0h-.26l-.22-.02h-.52s-.21,0-.21,0l-.21-.04-.2-.04-.15-.06-.11-.1-.14-.11-.18-.07h-.17s-.25.01-.25.01c0,0-.14.07-.15.07s-.25.05-.26.05-.19.01-.19.01h-.24s-.14-.02-.15-.02-.17.01-.17.01l-.23.07-.21.08s-.19.05-.2.06c0,0-.22.03-.23.03s-.18.03-.18.03c0,0-.22.03-.23.03s-.24.02-.24.02l-.25.02h-.38l-.33.03-.2.02h-.25s-.21.03-.23.03h-1.36l-.39-.02h-.39s-.37-.02-.39-.02h-.24l-.24-.02-.23-.05-.12-.05-.19-.18-.21-.12-.22-.13-.19-.1-.22-.05-.42-.02-.49-.03-.41-.02-.58-.02-.3-.02-.19.05-.14.06-.09.07-.12.07-.15.03-.31.03h-.29s-.23,0-.23,0h-.35s-.27-.02-.27-.02l-.2-.03-.24-.03-.23-.05-.24-.07-.22-.07-.18-.06-.2-.05-.25-.05-.16-.03-.28-.11-.17-.12-.16-.14-.13-.15-.05-.08-.04-.07v-.02c.5.14,3.68.97,4.06.58.4-.42,2.44-.82,2.76-.98.31-.17,3.64-.35,4.22-.23.59.12,1.04.17,2.68-.43,1.64-.6,1.12-2.26,1.12-2.26,0,0-.92-1.34.92-1.74,1.84-.4.8-2.67.8-2.67,0,0-.21-.57-.09-.7.13-.13.15-.69.15-.69-.03-.17-.86-.82-.86-.82l.02-.02.39.06v.13s.9.77.9.93c0,.15.06.33.06.33.46.65.66,1.44.66,1.44-.09,1.05.65,2.34,1.19,3.02.55.68-.3,2.65-.3,2.65-.37,1.69,1.1,1.6,1.1,1.6,0,0,.84-.3,1.07-.14.24.16,2.53.46,2.6.44.08-.02.15.2.15.2v.03Z"/>
  <path class="cls-9" d="M15.79,5.93l.42.4s.44.26.47.44-.09.4-.09.4c0,0-.11.52-.05.64,0,0,.21.78.21.83s.11.4.12.49.11.74-.03.99-.52.48-.52.48c0,0-1.4.62-1.54.91s.05.83.05.83c0,0,.3.97.12,1.36s-.54.78-.54.78c0,0-1.24.78-1.96.85s-2.67-.37-3.3-.07-3.43-.04-4.39.89S.01,15.97.01,15.97"/>
  <path class="cls-9" d="M15.8,5.94L.11,15.99l-.04-.07-.04-.14v-.19l.07-.21.06-.14.12-.18.09-.13.07-.09.03-.12S-.06,13.82,0,13.63c.07-.18.15-.25.15-.25,0,0,.55-.43.61-.5,0,0,.67-.67.72-.69,0,0,.48-.45,1.17-.53,0,0,.84-.08,1-.13,0,0,.56-.17.68-.25,0,0,.38-.1.52-.12,0,0,.08-.02.15-.08,0,0,.65-1.15,2.3-1.09,0,0,.96-.47,1.24-1.06.28-.59,1.05-1.09,1.05-1.09,0,0,1.23-.26,1.99-.28,0,0,.86-.17,1.28-.98,0,0,.29-.36,1.34-.36h.46l.42-.15.36-.13h.35Z"/>
  <path class="cls-14" d="M14.82,6.5s.42-.19.61-.13.56.29.45.79c0,0-.38.86-.39,1.06,0,0-.08.71.03.89,0,0,.03.35-.22.68s-1.19,1.22-1.3,1.28-1.02.37-1.08.68.54.78.54.78c0,0,1.07,1.09-.3,1.38,0,0-1.78.08-2.34-.15s-2.4-.6-2.77-.31-.87.98-.87.98c0,0-1.3,1.04-1.79.99s-1.21.49-1.21.49c0,0-2.72.53-3.14-.98,0,0,.09-.43.27-.58,0,0,.13-.3.05-.39s-.1-.77.24-.95c0,0,.42-.45.89-.48s1.67-.31,1.89-.43,1.09-.52,1.42-1.21c0,0,.72-.44,1.34-.46,0,0,1.46-.65,1.74-1.02s.86-1.07,2.01-.96,2.15-1.27,2.15-1.27c0,0,.57-.52,1.03-.54s.77-.13.77-.13Z"/>
  <g>
    <path class="cls-24" d="M8.7,8.61l-.03.78-.4.71h-.01s-.54,1.27-.54,1.27l-.14.33-1.64.39-1.18-.08h-.02l-1.11-.35-.71-1.89h0s.01-.02.01-.02l1-1.5s.98-.56,1.43-.93l1.31-.22h.01l1.61.56.41.95Z"/>
    <polygon class="cls-6" points="4.76 12.01 4.74 12.01 3.63 11.66 2.92 9.77 4.13 10.51 4.21 11.4 4.76 12.01"/>
    <polygon class="cls-17" points="7.72 11.37 7.58 11.7 5.94 12.09 4.76 12.01 6.12 11.49 7.72 11.37"/>
    <polygon class="cls-22" points="8.27 10.1 8.26 10.11 7.72 11.37 6.13 11.5 5.97 10.81 6.17 10.22 5.77 9.76 6.58 8.64 8.27 10.1"/>
    <polygon class="cls-11" points="8.26 7.65 8.22 8.75 7.85 9.73 6.61 8.64 6.68 7.1 8.26 7.65"/>
    <path class="cls-28" d="M6.68,7.1l-.09,1.54-.83,1.1-.58.02-1.04.75-1.21-.76,1-1.5s.98-.56,1.43-.93l1.31-.22h.01Z"/>
  </g>
  <path class="cls-14" d="M4.65,12.54c-.03-.19-.05-.38-.08-.57.26-.03.52-.06.77-.09.41-.12.81-.24,1.22-.36.27-.04.55-.07.82-.11.11-.2.22-.4.32-.61l.72-.22c.1-.23.21-.46.31-.69.04-.07.08-.15.11-.22.28-.24.55-.48.83-.72.23.08.46.16.69.24l-1.51,3.52c-.51.22-1.77.68-3.2.28-.41-.12-.75-.28-1.03-.44Z"/>
  <g>
    <polygon class="cls-27" points="21.31 12.96 25.01 11.82 22.69 11.95 21.31 12.96"/>
    <polygon class="cls-15" points="24.68 9.96 24.99 11.74 25.01 11.82 22.88 12.29 21.31 12.96 20.99 10.49 20.98 10.4 21.31 8.97 23.15 8.99 24.68 9.96"/>
    <path class="cls-25" d="M22.94,12.27l-.07.02-1.56.67-.33-2.47.03-.03c.64.6,1.28,1.21,1.92,1.81Z"/>
    <path class="cls-32" d="M24.97,11.74s.02.05.04.08l-2.06.45c.15-.37.31-.75.46-1.12.37-.08.74-.16,1.12-.25.15.28.3.56.45.84Z"/>
    <path class="cls-20" d="M23.4,11.15l1.11-.24c-.02-.36-.04-.73-.06-1.09-.4-.25-.79-.5-1.19-.75l-.97.14-.21.73,1.31,1.21Z"/>
    <path class="cls-7" d="M20.98,10.4c.37-.15.74-.31,1.11-.46.07-.24.14-.49.21-.73-.33-.08-.66-.16-.99-.24-.11.48-.22.96-.33,1.43Z"/>
  </g>
  <polyline class="cls-23" points="20.48 11.59 21.64 12.09 22.77 12.82 23.98 12.01 25.18 11.71 25.18 12.52 22.83 13.74 20.48 13.74 20.48 11.71"/>
  <path class="cls-12" d="M17.34,9.06c-.03.24-1.05.32-2.28.16s-2.21-.49-2.18-.73l4.45.57Z"/>
  <path class="cls-12" d="M17.34,9.06l-4.45-.57c.03-.23,1.06-.3,2.29-.15s2.19.49,2.16.72Z"/>
  <path class="cls-12" d="M17.51,8.3l-.16.77c.03-.23-.93-.56-2.16-.72s-2.26-.08-2.29.15l.07-.78,4.54.58Z"/>
  <ellipse class="cls-30" cx="15.24" cy="8" rx=".42" ry="2.29" transform="translate(5.37 22.1) rotate(-82.71)"/>
  <polygon class="cls-19" points="16.97 8.1 16.94 8.13 16.89 8.16 16.62 8.23 16.21 8.24 15.49 8.2 15.25 8.18 14.9 8.14 13.78 7.85 13.59 7.74 13.52 7.68 14.35 7.04 14.84 6.36 15.04 5.08 16.23 5.23 16.07 6.46 16.33 7.2 16.97 8.1"/>
  <polygon class="cls-18" points="16.97 8.1 16.94 8.13 16.89 8.16 16.62 8.23 16.21 8.24 15.49 8.2 15.88 5.18 16.23 5.23 16.07 6.46 16.33 7.2 16.97 8.1"/>
  <path class="cls-3" d="M16.65,4.82c-.04.32-.49.53-1.01.46-.08,0-.15-.02-.23-.05-.4-.1-.67-.38-.64-.65s.37-.47.78-.47c.08-.02.16,0,.23,0,.52.07.91.37.86.7Z"/>
  <path class="cls-21" d="M16.19,4.76c-.03.27-.37.47-.78.47-.4-.1-.67-.38-.64-.65s.37-.47.78-.47c.4.1.67.37.64.65Z"/>
  <path class="cls-16" d="M19.54,1.56s-.44,2.74-3.23,2.89c-.17,0-.34,0-.52,0-3.24-.18-2.9-3.74-2.9-3.74l6.65.85Z"/>
  <path class="cls-4" d="M19.54,1.56s-.44,2.74-3.23,2.89c.75-.83,1.43-2.09,1.87-3.06l1.36.17Z"/>
  <path class="cls-29" d="M19.82,2.04c-.04.28-1.71.3-3.75.04s-3.67-.71-3.64-.98l7.39.95Z"/>
  <path class="cls-29" d="M19.82,2.04l-7.39-.95c.03-.26,1.73-.28,3.77-.02s3.65.7,3.62.96Z"/>
  <path class="cls-29" d="M20.04,1.17l-.22.87c.03-.26-1.58-.7-3.62-.96s-3.73-.24-3.77.02l.07-.89,7.53.96Z"/>
  <path class="cls-31" d="M20.04,1.16c-.02.18-.75.24-1.84.19-.5-.03-1.08-.09-1.72-.16l-.27-.03c-2.08-.27-3.74-.7-3.71-.96s1.75-.27,3.83,0l.27.03c.68.1,1.3.21,1.83.31.99.22,1.63.45,1.61.62Z"/>
  <path class="cls-13" d="M18.43.55c-.06.25-.14.52-.23.81-.5-.03-1.08-.09-1.72-.16.1-.35.11-.69.12-.96.68.1,1.3.21,1.83.31Z"/>
  <polygon class="cls-5" points="16.61 3.36 15.76 4.11 15.2 3.18 16 2.41 16.61 3.36"/>
  <polygon class="cls-33" points="16.61 3.36 15.76 4.11 16 2.41 16.61 3.36"/>
  <polygon class="cls-26" points="16.42 3.34 15.77 3.96 15.33 3.2 15.98 2.56 16.42 3.34"/>
  <polygon class="cls-10" points="16.42 3.34 15.77 3.96 15.33 3.2 16.42 3.34"/>
  <polygon class="cls-8" points="16.21 3.3 15.82 3.69 15.55 3.22 15.93 2.83 16.21 3.3"/>
  <polygon class="cls-2" points="16.21 3.3 15.82 3.69 15.55 3.22 16.21 3.3"/>
  <path class="cls-14" d="M12.08,8l1.19-.29,1.1.78c.24-.01.49-.03.73-.04.13.27.25.55.38.82-.15.11-.8.53-1.63.39-.83-.14-1.52-.78-1.78-1.65Z"/>
  <path class="cls-9" d="M15.11,8.45c.26.1.53.2.79.3l.6-.3c.15.02.29.03.44.05l-.05.76c-.22.14-.43.29-.65.43-.25-.14-.49-.28-.74-.42-.02-.05-.05-.1-.07-.15-.1-.22-.21-.45-.31-.67Z"/>
  <path class="cls-1" d="M16.93,8.39l.32-.13c.17.09.34.18.51.26,0,.42,0,.83,0,1.25l-.78-.53-.05-.85Z"/>
</svg>