<?xml version="1.0" encoding="UTF-8"?>
<svg width="31px" height="36px" viewBox="0 0 31 36" version="1.1" xmlns="http://www.w3.org/2000/svg" xmlns:xlink="http://www.w3.org/1999/xlink">
    <title>arrr symbol</title>
    <g id="Page-1" stroke="none" stroke-width="1" fill="none" fill-rule="evenodd">
        <g id="On-mission-&gt;-V2-&gt;-Sidebar-states" transform="translate(-1148, -199)" fill="#FFFFFF">
            <g id="Group-15" transform="translate(1096, 178.875)">
                <g id="Group-12" transform="translate(12, 20.5978)">
                    <g id="arrr-symbol" transform="translate(40.656, 0)">
                        <path d="M23.2560995,2.05579005 C24.1455266,2.35947989 25.5033857,3.91861502 27.3296769,6.73319543 C27.3151922,6.41968689 28.6939382,12.09105 28.3822341,12.2085436 C28.1364444,12.5574294 28.0246222,12.971532 28.0467677,13.4508514 C28.0565378,13.6623159 28.1212399,13.9948437 28.2243914,14.396216 L28.2907643,14.644883 L28.3655739,14.9075662 L28.448029,15.1817589 L28.5606441,15.5368669 L28.6824237,15.9011467 L28.7854076,16.1958845 L28.8924767,16.4908527 L29.0028398,16.7835447 C29.0214642,16.8319978 29.0401929,16.8802516 29.0590094,16.9282539 L29.1728302,17.212832 L29.2302836,17.3520743 L29.3457819,17.6228989 L29.403629,17.7538545 C29.8405692,18.7308891 29.997244,19.4407253 29.8736534,19.883363 L29.3361765,20.9271193 L29.010459,21.5484559 L28.751076,22.0313806 L28.6150064,22.2764348 L28.4661808,22.5286728 C28.2734168,22.8337262 27.8945822,22.9506075 27.3296769,22.8793167 L23.7887951,21.7022709 L23.2560995,21.5238485 C22.1752597,21.1612703 20.5267534,21.0351015 19.0712868,21.5484559 L18.026,21.892 L20.0802581,21.8110343 L21.6721097,21.9303551 L23.3533109,22.1499029 L23.1992698,23.276588 L23.1560345,24.5146838 L22.9809341,24.9938664 L22.8783435,25.2677918 L22.5696735,24.8260018 L22.3229691,24.5526422 L22.0232425,24.5421755 L21.7133885,24.7960997 L21.8748691,24.8017387 L22.1678408,25.0825046 L22.1477928,25.6566028 L22.5095047,26.3455761 L22.3215938,27.0414565 L22.2429752,29.2927981 L22.0744075,29.836518 L21.4554238,28.5398394 L21.5046897,27.1290474 L20.7096419,25.3404179 L20.2821249,25.3254887 L20.2720939,25.6127407 L20.4939639,26.5408973 L20.6370735,27.4185052 L20.9042668,28.2196819 L21.1636623,29.3517709 L21.3489361,30.4387972 L21.3730159,30.580493 L21.0701081,30.8265929 L20.2059386,31.1710807 L19.958275,31.4366408 L19.8303421,31.1579646 L19.9070916,28.9601467 L19.5283409,26.7647086 L19.5456676,26.2685367 L19.3705683,25.2936564 L18.9422242,25.5932221 L19.0355784,26.250724 L19.2219306,26.5587518 L19.3156721,28.009688 L19.2179179,30.8090001 L19.4291339,32.00452 L18.8543096,32.622745 L18.233097,32.9225853 L18.1372197,33.0110459 L18.0709595,32.838394 L18.1572547,30.367225 L17.9370346,28.8127706 L17.9889527,27.3260308 L17.8170158,25.7904313 L17.5612563,25.7815 L17.6641088,26.7896172 L17.5143869,31.0770897 L17.5975656,32.0746656 L17.5767416,32.670985 L17.6791338,33.4353174 L17.3028151,33.7843991 L16.5725292,34.1177142 L16.3285442,34.1736323 L16.3936519,32.3247979 L16.2512118,31.781598 L16.4475102,26.1603467 L16.0596708,26.146803 L16.0276501,27.063757 L15.890116,27.5253556 L15.8328369,29.1656144 L15.6133352,30.6831253 L15.557027,32.2955823 L15.6905542,33.2400576 L15.6520549,34.3191118 L15.2173614,34.4075691 L14.4917163,35 L14.3525713,34.8043542 L14.4309065,32.56113 L14.784046,30.811885 L14.9515466,29.8799536 L15.083102,26.1127005 L14.6566107,26.0978071 L14.5510436,29.1208532 L14.294589,30.2323377 L14.0583788,31.2060107 L13.7963564,32.0554009 L13.7058317,34.6353822 L13.5667731,34.599516 L12.7832313,33.985389 L12.4396131,33.7026236 L12.9303162,32.709674 L13.015132,30.2808672 L13.1700645,29.6490012 L13.6262458,28.5417484 L13.7127411,26.0648465 L13.2957344,26.0502843 L13.2891829,26.2378961 L13.1321138,26.9309464 L13.0966312,27.9470333 L12.9493688,28.5181113 L12.5699858,29.628046 L12.4289047,30.2603957 L12.3585066,32.2763347 L12.00675,33.3473005 L11.9279436,33.2833998 L11.2170061,32.8104118 L11.483574,30.866489 L11.8341045,29.5041106 L11.8667701,28.5686897 L12.1154901,27.9127711 L12.154275,26.8021173 L12.4219342,26.3221034 L12.4470491,25.6029079 L11.9709181,25.5862811 L11.9458033,26.3054766 L11.5551085,27.101356 L11.4962172,28.7877821 L11.2532391,29.4838263 L11.2366636,29.9584872 L11.0853872,30.4073135 L11.0567893,31.2262506 L10.8371058,31.8229402 L10.687862,32.5187672 L10.2753741,32.323162 L9.77843228,32.0567471 L10.0818874,30.9588533 L10.3199938,29.7182162 L10.4901847,28.7570191 L10.6949265,28.2361021 L10.9881528,27.4975192 L11.0560104,25.5543318 L10.7889017,25.5450042 L10.5912217,25.8636981 L10.5395853,27.3423713 L10.1122327,28.0505119 L10.0614667,28.5561376 L10.0369542,29.2580837 L9.76753431,30.0554044 L9.56019456,30.7993231 L9.5493946,31.1085934 L9.32388085,31.4915392 L9.27027905,31.3791343 L8.88978649,30.775912 L9.13850211,29.5235561 L9.30655275,28.4724784 L9.54376433,27.6110469 L9.7218254,26.1708213 L9.76417129,24.9581936 L9.42968217,24.946513 L9.38733628,26.1591407 L9.22592754,27.0200192 L9.02023104,27.6502649 L8.83315361,28.2495153 L8.80780843,28.9753061 L8.644,29.483 L8.56348161,29.1334839 L8.2426482,28.8431914 L8.39401153,28.0345551 L8.42774014,27.0686942 L8.60166581,26.2567622 L8.76164051,25.6086147 L8.96380898,24.5080348 L8.52318581,24.3354876 L8.51770434,24.4924565 L8.26134205,24.8594901 L7.99938192,25.8300797 L7.83572231,26.3634031 L7.78689573,27.7616132 L7.66749409,28.3218012 L7.6456007,28.3027273 L7.67662578,27.4142855 L7.207547,26.7362468 L6.94031577,25.7132463 L6.95130707,25.3984968 L6.8396975,24.8630785 L6.95466607,24.5912004 L10.3153292,22.7204181 L10.449,22.123 L10.1947563,22.0158263 L4.67141749,25.0781444 L3.82932846,25.1282042 L3.35222339,24.8960642 L2.77063988,24.339282 L1.45534074,22.5363868 L1.18254624,20.4456306 L1.15053171,19.7527048 L1.78033795,19.395981 L2.55487393,19.6692206 L3.22146553,22.065927 L4.06424296,22.0158263 L2.42666107,16.8941676 L1.5451406,14.3053443 L1.17890923,12.9898941 L1.10905935,11.478056 L0.745713695,10.9907802 L0.401832679,10.0470276 L0,9.09006723 L0.233610004,8.61078337 L1.15430853,8.2638248 L1.13485993,7.84287725 L1.42052837,7.41461453 L7.64815097,0.852273041 L8.52823134,0.34332885 L9.81123205,3.68844131 L11.9445144,7.5066816 L12.4571069,10.1977238 L12.6031073,11.5909758 L12.6311708,11.1117154 L12.7275272,11.6164184 L12.6714581,10.4099218 L12.8831276,6.73319543 L10.8777676,3.65877987 L9.31580294,0.42324763 L9.31580294,0.239827872 C9.33059423,0.265878079 9.40781267,0.263480922 9.54972581,0.245341831 L9.66832636,0.228984422 C10.8673416,0.0556246333 15.1509861,-0.711654992 23.2560995,2.05579005 Z M13.6650661,16.8136466 L13.6303819,16.8705507 L11.85971,21.0513903 C11.6343016,21.7238714 11.7711244,22.0452782 12.2701784,22.0156109 C12.4450119,22.0052175 12.4961908,21.888983 12.5318659,21.7339407 L12.5698342,21.552632 C12.615571,21.3465201 12.6945822,21.1202509 12.9853855,20.9844721 C13.3093572,20.8332065 13.3934754,20.8698954 13.4483454,20.953758 L13.4692328,20.9894853 L13.5012662,21.0481311 L13.5274584,21.0876784 C13.5617289,21.1330536 13.6110336,21.1743947 13.6967761,21.1973942 C13.8315143,21.2335363 13.9224839,21.1488879 13.9918946,21.0571312 L14.0752685,20.9382786 C14.1395601,20.8499603 14.1878408,20.823886 14.2567711,21.0477036 C14.3175188,21.2449523 14.4445848,21.3521819 14.58501,21.4445957 L14.759217,21.5549316 C14.9195738,21.6593174 15.069609,21.7836185 15.1339181,22.0349112 L15.1708749,22.1734415 L15.2071311,22.2946006 C15.3222243,22.6516598 15.446606,22.7601562 15.7686415,22.7410121 C15.9635578,22.7294249 15.9846829,22.537672 15.970272,22.3266082 L15.956317,22.1793789 L15.9412017,22.0378401 C15.9316372,21.9330425 15.9302705,21.8441713 15.9586862,21.7963395 C15.9835201,21.754537 16.0276587,21.715867 16.0828465,21.6749429 L16.222182,21.5767876 C16.3899769,21.4584498 16.5881319,21.3007742 16.6876551,21.0195949 C16.742834,20.8637001 16.6892764,20.5773031 16.5616408,20.2096216 L16.5025056,20.0472106 L16.4349058,19.8757074 L16.3594478,19.6959729 L16.2767378,19.508868 L16.1873822,19.3152537 L16.0422143,19.0145104 L15.8855039,18.7039637 L15.7756283,18.4929211 L15.6042274,18.1724926 L15.4267405,17.8500093 L15.3060452,17.6353137 L15.1274432,17.3235983 C14.5594744,16.3429126 14.0720153,16.1729287 13.6650661,16.8136466 Z M12.6981351,11.9991053 L12.1086596,12.0341479 C11.720724,13.724689 11.1205554,14.4799651 10.308154,14.2999763 C9.9758079,14.2263445 9.58147662,14.0774816 9.16430547,13.9010519 L8.88323727,13.7798711 L8.02520321,13.398705 L7.74284027,13.2762363 L7.46659733,13.1612916 C6.92194978,12.9410185 6.42948705,12.7847195 6.08199818,12.8053768 C5.12640379,12.8621842 4.06285082,14.1293719 3.78734944,15.173548 L3.70019585,15.5097594 L3.66726777,15.6463148 L3.63654712,15.7843559 L3.6023704,15.9593031 L3.57422712,16.1372797 C3.46577607,16.9276183 3.57423053,17.8173547 4.44995187,18.9573038 C5.69719137,20.5808677 7.8215848,20.4950581 10.0740831,18.6229651 C11.1392824,17.8852145 11.8052672,17.1182658 12.0720375,16.3221189 C12.1322759,16.1423438 12.1895534,15.9296883 12.2438699,15.6841525 L12.2897018,15.4656409 L12.3340835,15.2310246 L12.3875211,14.9151071 L12.4386926,14.574026 L12.4779983,14.2830434 L12.5158537,13.9759561 L12.5699176,13.485129 L12.6041474,13.13778 L12.6369269,12.7743264 L12.6682561,12.3947682 L12.6981351,11.9991053 Z M21.3088054,11.5282242 L21.0570558,11.5909787 C20.8471978,11.6460814 20.6374628,11.7080541 20.4300255,11.7757862 L20.1823427,11.859758 L19.9377007,11.9488325 C19.8972269,11.9640797 19.8569145,11.9795218 19.816781,11.9951498 L19.5782659,12.0910784 C19.5389175,12.1074147 19.4997829,12.1239191 19.4608793,12.1405829 L19.2303698,12.242406 C19.1166408,12.2942022 19.0053046,12.3472721 18.8968309,12.4013759 L18.6798996,12.5129808 C18.3608874,12.6823091 18.0716005,12.8597738 17.8254524,13.0385241 L17.7450192,13.0981458 C16.6402925,13.9344221 15.8306317,14.0974702 15.3160368,13.58729 L15.2700683,13.5390554 L15.3381339,15.0063355 L15.3449394,15.1120611 L15.3551408,15.2200195 C15.3987051,15.6016824 15.5348503,16.0228167 16.0804722,16.4670815 C16.3293965,16.6697645 16.6767733,16.9012289 17.0425087,17.1142739 L17.2433401,17.2283698 L17.4449244,17.3371101 L17.5392251,17.3859438 L17.7252037,17.4782126 C18.1536691,17.6842809 18.537187,17.8219072 18.7380942,17.8099638 L18.925016,17.7995688 L19.1443357,17.7915491 L19.3077154,17.789696 L19.3943681,17.7903065 L19.5772869,17.7954167 L19.7726075,17.8067993 C20.1350468,17.8337156 20.5553326,17.8974542 21.0203614,18.0322416 L21.1770102,18.0798491 C21.7143465,18.2507323 21.8268405,18.0116572 21.8555906,17.719411 L21.8616115,17.6386573 L21.870135,17.3966601 L21.8749219,17.3214437 L21.8832444,17.2516324 C21.9026829,17.1295827 21.9476988,17.042893 22.0609295,17.0361617 C22.2009717,17.0278366 22.2435288,17.1226941 22.2682344,17.263346 L22.3050483,17.5214265 L22.3195724,17.598879 C22.3806833,17.8850838 22.5385047,18.1882066 23.1327277,18.2634486 C23.6232721,18.3255626 23.7769923,18.2167138 23.8638689,18.0605066 L23.8893966,18.0097479 L23.9587859,17.8459539 L23.9886018,17.785567 C24.0755214,17.6261135 24.2307939,17.4834384 24.6721046,17.4572037 C25.4300824,17.4121441 25.8938554,18.0218222 26.0634236,19.286238 L26.0780284,19.4029886 L26.9092866,19.3535727 C26.9902799,17.7913859 26.342572,17.1629451 25.8061491,16.9444764 L25.7246138,16.9140296 L25.6455142,16.8896281 L25.6070901,16.8795618 L25.5329185,16.8634333 L25.4628817,16.8522904 L25.3976596,16.8457092 L25.3670665,16.8439968 L25.2843782,16.8445368 C25.1408351,16.8530701 25.0503436,16.5939777 25.0006318,16.2081828 L24.9838775,16.0578457 L24.9708024,15.8972818 C24.9689219,15.8697606 24.9671886,15.8418821 24.9655997,15.8136807 L24.9574709,15.6320586 L24.9529943,15.4438041 L24.9520032,15.250829 L24.9543313,15.055045 L24.9598121,14.8583639 L24.968279,14.6626974 L24.9795655,14.4699573 L24.9935053,14.2820553 L25.0099318,14.1009032 L25.0286786,13.9284127 L25.0495791,13.7664956 L25.0724669,13.6170635 L25.0971755,13.4820284 C25.101436,13.4608285 25.1057656,13.4403081 25.1101605,13.4205071 L25.1235384,13.3633019 C25.268256,12.7769821 25.1595662,12.2837903 24.7974689,11.8837264 C24.1249508,11.1942018 22.7341435,11.1921073 21.3088054,11.5282242 Z M11.4038176,11.5595436 L10.7598634,11.5978249 C10.6830073,12.1782935 10.3184525,12.5418763 9.66619923,12.6885731 L9.57949115,12.7064775 L9.60526251,13.2642755 L10.0967591,13.2350575 C10.9444803,13.3333195 11.3801665,12.7748149 11.4038176,11.5595436 Z" id="Combined-Shape-Copy-3"></path>
                    </g>
                </g>
            </g>
        </g>
    </g>
</svg>