<?xml version="1.0" encoding="UTF-8"?>
<svg width="27px" height="30px" viewBox="0 0 27 30" version="1.1" xmlns="http://www.w3.org/2000/svg" xmlns:xlink="http://www.w3.org/1999/xlink">
    <title>Shape</title>
    <g id="Page-1" stroke="none" stroke-width="1" fill="none" fill-rule="evenodd">
        <g id="On-mission-&gt;-V2-&gt;-Sidebar-states" transform="translate(-1289, -202)" fill="#FFFFFF">
            <g id="Group" transform="translate(1289.7097, 202.0978)">
                <path d="M8.7852349,0.998322148 C8.7852349,0.446964799 9.23218372,0 9.78355705,0 L12.7785235,0 L15.7734899,0 C16.3248433,0 16.7718121,0.446964799 16.7718121,0.998322148 C16.7718121,1.5496795 16.3248433,1.9966443 15.7734899,1.9966443 L13.7768456,1.9966443 L13.7768456,4.23132852 C15.9698399,4.40078372 18.0077748,5.12382852 19.7508453,6.26091745 C19.7899795,6.20658876 19.8339057,6.15469597 19.8826238,6.10585805 L21.8792681,4.10921376 C22.366649,3.62187282 23.1567211,3.62187282 23.644102,4.10921376 C24.1314829,4.5965547 24.1314829,5.38666678 23.644102,5.87400772 L21.6975735,7.82049631 C24.0785718,10.1414555 25.5570869,13.3837862 25.5570869,16.9714366 C25.5570869,24.0288154 19.8359023,29.75 12.7785235,29.75 C5.72112466,29.75 0,24.0288154 0,16.9714366 C0,10.2499931 5.18939832,4.74063255 11.7802013,4.23132852 L11.7802013,1.9966443 L9.78355705,1.9966443 C9.23218372,1.9966443 8.7852349,1.5496795 8.7852349,0.998322148 Z M1.9966443,16.9714366 C1.9966443,11.0167644 6.82385134,6.18955738 12.7785235,6.18955738 C18.7331557,6.18955738 23.5604426,11.0167644 23.5604426,16.9714366 C23.5604426,22.9260688 18.7331557,27.7533557 12.7785235,27.7533557 C6.82385134,27.7533557 1.9966443,22.9260688 1.9966443,16.9714366 Z M12.7785235,16.9714366 L12.7785235,8.18620168 C7.92655805,8.18620168 3.99328859,12.1194711 3.99328859,16.9714366 C3.99328859,21.8233221 7.92655805,25.7567114 12.7785235,25.7567114 C15.2044862,25.7567114 17.400795,24.7733641 18.9905232,23.1834362 L12.7785235,16.9714366 Z" id="Shape"></path>
            </g>
        </g>
    </g>
</svg>