<?xml version="1.0" encoding="UTF-8"?>
<svg id="Layer_1" xmlns="http://www.w3.org/2000/svg" viewBox="0 0 18.21 23.9">
  <defs>
    <style>
      .cls-1 {
        fill: #fff;
        fill-rule: evenodd;
      }
    </style>
  </defs>
  <path class="cls-1" d="M2.29,5.26S5.21.29,9.04,0c0,0,1.39.08,2.2.61l-.29,1.3-4.5.85-1.51,2.4-2.65.09h0Z"/>
  <path class="cls-1" d="M11.79.92s2.71,1.74,3.92,4.08l-.86.64-3.36-.77-1.43,2.66-1.78.35-2.65-2.63,1.54-2.06,4.14-.91.47-1.37h0Z"/>
  <path class="cls-1" d="M15.95,5.39s.97,1.71,1.37,2.86l-1.6,2.15,1.34,5-1.23,1.88-2.78-.11-2.09-2.34,1.63-2.81-1.99-4.27,1.3-2.27,3.16.63.89-.71h0Z"/>
  <path class="cls-1" d="M17.45,8.69s2.03,5.64-.53,10.06l-.64-1.07,1.25-2.19-1.33-5.05,1.26-1.75h0Z"/>
  <path class="cls-1" d="M16.63,19.27s-1.99,3.86-6.16,4.52l-.89-.89.25-1.75,2.57-.36.71-3.05,2.61.12.92,1.41Z"/>
  <path class="cls-1" d="M9.98,23.84s-3.27.58-6.24-1.96l1.49-.44,2.38,1.7,1.68-.14.68.84h0Z"/>
  <path class="cls-1" d="M3.39,21.56s-1.41-1.36-2.35-3.27l.53-.4,2.33.29,1.6-3.2,4.89.18,2.05,2.23-.53,2.97-2.46.41-.32,1.81-1.41.1-2.52-1.62-1.81.51h0Z"/>
  <path class="cls-1" d="M.85,17.91s-1.64-3.54-.37-8.26l1.33,3.19,3.06,1.81s-.74,2.73-1.44,2.93l-2.03-.17s-.55.5-.55.5Z"/>
  <path class="cls-1" d="M.63,9.13s.65-2.12,1.46-3.45l2.77-.17,2.99,2.8,2.25-.24,1.81,4.04-1.55,2.64-4.94-.26-3.15-1.99-1.66-3.36h0Z"/>
</svg>