<?xml version="1.0" encoding="UTF-8"?>
<svg id="Layer_1" data-name="Layer 1" xmlns="http://www.w3.org/2000/svg" viewBox="0 0 23.75 23.75">
  <defs>
    <style>
      .cls-1, .cls-2, .cls-3 {
        fill: #7a7977;
      }

      .cls-1, .cls-4, .cls-3, .cls-5, .cls-6 {
        stroke-width: 0px;
      }

      .cls-1, .cls-5, .cls-6 {
        fill-rule: evenodd;
      }

      .cls-2 {
        stroke: #fff;
        stroke-miterlimit: 10;
      }

      .cls-4, .cls-5 {
        fill: #c4c4c4;
      }

      .cls-6 {
        fill: #f1f2f2;
      }
    </style>
  </defs>
  <circle class="cls-3" cx="11.88" cy="11.88" r="11.88"/>
  <circle class="cls-2" cx="11.88" cy="11.88" r="9.71"/>
  <path class="cls-6" d="M16.33,17.44l2-2,2.22,2.92-.04.04c-.3.04-.59.18-.82.41-.23.23-.37.52-.41.82l-.04.04-2.92-2.22ZM17.15,13.97C13.82,10.61,7.47,2.02,2.97,2.08c-.07,4.5,8.53,10.85,11.89,14.18l-.76.76-.31,2.13,1.19.17.25-1.74,3.25-3.25,1.74-.25-.17-1.19-2.13.31-.76.76h0ZM20.1,19.21c.56-.56,1.48-.56,2.04,0s.56,1.48,0,2.04-1.48.56-2.04,0-.56-1.48,0-2.04Z"/>
  <path class="cls-4" d="M14.99,19.33l.25-1.74.9-.9L3.33,3.85s.38.86.58,1.21.73,1.12.73,1.12l.71.93,1.7,1.91,2.86,2.76,4.96,4.48-.76.76-.31,2.13,1.19.17Z"/>
  <path class="cls-1" d="M12.1,7.92c-1,1.08-1.99,2.17-2.99,3.25,1.19,1.11,2.38,2.21,3.57,3.32,1.01-.92,2.02-1.83,3.03-2.75-1.2-1.27-2.41-2.55-3.61-3.82Z"/>
  <polygon class="cls-3" points="16.25 14.71 15.75 15.25 4.97 4.4 16.25 14.71"/>
  <path class="cls-6" d="M5.4,19.66l-.04-.04c-.04-.3-.18-.59-.41-.82-.23-.23-.52-.37-.82-.41l-.04-.04,2.22-2.92,2,2-2.92,2.22ZM7.49,13.97l-.76-.76-2.13-.31-.17,1.19,1.74.25,3.25,3.25.25,1.74,1.19-.17-.31-2.13-.76-.76c3.36-3.32,11.96-9.67,11.89-14.18-4.5-.07-10.85,8.53-14.18,11.89h0ZM4.55,21.25c-.56.56-1.48.56-2.04,0s-.56-1.48,0-2.04,1.48-.56,2.04,0,.56,1.48,0,2.04Z"/>
  <polygon class="cls-3" points="8.39 14.71 8.89 15.25 19.67 4.4 8.39 14.71"/>
  <polygon class="cls-5" points="11.24 6.54 12.28 7.72 13.43 6.54 13.43 4.4 11.24 4.4 11.24 6.54"/>
  <polygon class="cls-5" points="11.59 15.44 12.34 14.75 13.05 15.44 12.34 17.32 11.59 15.44"/>
  <path class="cls-4" d="M4.95,19.97s-1.44-.73-2.44,1.28c0,0,.35.36.91.41.35.03.61-.07.68-.1.62-.26.81-.88.82-.94.08-.27.05-.51.03-.64Z"/>
  <path class="cls-4" d="M19.7,19.98s1.44-.73,2.44,1.28c0,0-.35.36-.91.41-.35.03-.61-.07-.68-.1-.62-.26-.81-.88-.82-.94-.08-.27-.05-.51-.03-.64Z"/>
  <polygon class="cls-4" points="5 18.86 7.57 16.7 8.32 17.44 5.4 19.66 5 18.86"/>
  <polygon class="cls-4" points="19.64 18.86 17.07 16.7 16.33 17.44 19.25 19.66 19.64 18.86"/>
  <path class="cls-4" d="M9.66,19.33l-.25-1.74-.9-.9L21.32,3.85s-.38.86-.58,1.21-.73,1.12-.73,1.12l-.71.93-1.7,1.91-2.86,2.76-4.96,4.48.76.76.31,2.13-1.19.17Z"/>
  <circle class="cls-4" cx="5.85" cy="10.71" r=".88"/>
  <circle class="cls-4" cx="18.44" cy="10.71" r=".88"/>
</svg>