<?xml version="1.0" encoding="UTF-8"?>
<svg id="Layer_1" xmlns="http://www.w3.org/2000/svg" viewBox="0 0 21.57 23.23">
  <defs>
    <style>
      .cls-1 {
        fill: #fff;
      }
    </style>
  </defs>
  <path class="cls-1" d="M14.63.29l3.48,3.22-6.44,6.98s-.11.16-.1.34l.69.67s.87,1.25,2.24.33l.38.73s.27.31-.11.65-1.18,1.08-1.18,1.08l-2.55-2.4s-.22-.21-.51.01-2.62,2.47-2.62,2.47l-1.29-1.36s-.11-.11.1-.47.33-.67.33-.67c0,0,1.23.78,2.21-.26s.87-.91.87-.91L3.7,3.78s-.31-.24.12-.62S7.28,0,7.28,0h-.2L.41,3.29s-.81.28-.15,1.12,3.77,4.29,3.77,4.29c0,0,.37.2.02.84s-2.17,4.29-2.17,4.29c0,0-.15.32.15.59s8.51,8.69,8.51,8.69c0,0,.17.27.51,0s8.56-8.77,8.56-8.77c0,0,.28-.22,0-.7s-2.19-4.32-2.19-4.32c0,0-.16-.3.02-.51s3.56-4,3.56-4c0,0,.56-.69.56-1.07s-.68-.58-.68-.58L14.69.2l-.07.09Z"/>
  <path class="cls-1" d="M10.99,9.27l3.79-3.71-3.79-3.75s-.17-.25-.42,0-3.54,3.52-3.54,3.52c0,0-.15.21,0,.38s3.58,3.59,3.58,3.59c0,0,.17.17.38-.03Z"/>
</svg>