<?xml version="1.0" encoding="UTF-8"?>
<svg id="Layer_1" xmlns="http://www.w3.org/2000/svg" viewBox="0 0 23.98 23.98">
  <defs>
    <style>
      .cls-1 {
        fill: #fff;
        stroke: transparent;
        stroke-miterlimit: 10;
        stroke-width: .25px;
      }
    </style>
  </defs>
  <path class="cls-1" d="M10.88,14.65h0s-1.74-.87-1.74-.87h0c-.06-.03-.12-.05-.19-.05-.24,0-.44.2-.44.44,0,.17.1.32.24.39h0s.66.33.66.33c-.02.05-.03.1-.03.15,0,.24.19.44.44.44.15,0,.29-.08.37-.2l.31.16h0c.06.03.12.05.19.05.24,0,.44-.2.44-.44,0-.17-.1-.32-.24-.39Z"/>
  <path class="cls-1" d="M21.66,10.1c-.55-.49-1.3-.87-2.11-1.27-.45-.23-.91-.46-1.33-.71-.6-.36-1.22-1.41-1.87-2.52-1.12-1.9-2.39-4.05-4.36-4.07h0c-1.97.01-3.24,2.17-4.36,4.07-.65,1.11-1.27,2.15-1.87,2.52-.42.25-.88.48-1.33.71-.8.4-1.56.78-2.11,1.27-.68.61-.92,1.33-.71,2.12.17.64.5,1.12.98,1.42.42.26.94.39,1.61.39.63,0,1.36-.11,2.13-.27.06,2.23,1.02,4.28,2.24,5.72-.04.12-.06.24-.06.35,0,.99,2.77,2.6,3.48,2.61.71-.01,3.48-1.62,3.48-2.61,0-.11-.02-.23-.06-.35,1.22-1.44,2.18-3.49,2.24-5.72.77.15,1.49.27,2.12.27h0c.67,0,1.2-.13,1.62-.39.48-.3.81-.78.98-1.42.21-.8-.03-1.51-.71-2.12ZM13.44,20.83c-.67.44-1.25.69-1.45.73-.2-.05-.78-.29-1.45-.73-.79-.52-1.09-.9-1.16-1.04.02-.1.13-.43.66-1.08.2-.25.41-.47.56-.62h.95c-.24,0-.44.19-.44.44s.19.44.44.44h.87c.24,0,.44-.2.44-.44s-.19-.44-.44-.44h.95c.15.15.35.37.55.61.54.66.65.99.67,1.1-.07.13-.37.52-1.16,1.04ZM13.73,17.21h-3.48s-.73.68-1.25,1.43c-.54-.69-.99-1.5-1.3-2.32-.34-.91-.51-1.83-.52-2.74.09-.02.18-.04.27-.06,1.1-.24,2.31-.51,3.52-.61l1.25,1.25c-.39.67-.3,1.54.27,2.12.34.34.79.51,1.23.51.31,0,.61-.08.88-.24l1.06,1.06c-.21.37-.44.72-.69,1.04-.52-.75-1.25-1.43-1.25-1.43ZM14.34,15.65c-.16.16-.38.26-.62.26s-.45-.09-.62-.26c-.16-.16-.25-.38-.25-.62s.09-.45.25-.62c.16-.16.38-.25.62-.25s.45.09.62.25c.16.16.25.38.25.62,0,.23-.09.45-.25.62ZM16.27,16.32c-.06.16-.12.31-.19.46l-.86-.86c.4-.67.31-1.54-.27-2.12-.34-.34-.79-.51-1.23-.51-.31,0-.61.08-.88.24l-.68-.67c1.47.03,2.99.36,4.34.66.1.02.19.04.29.06,0,.91-.18,1.83-.52,2.74ZM21.53,12c-.22.82-.72,1.16-1.75,1.16h0c-.84,0-1.94-.24-3.09-.49-1.45-.32-3.09-.68-4.71-.68s-3.26.36-4.71.68c-1.15.25-2.24.49-3.08.49-1.02,0-1.53-.34-1.74-1.16-.27-1.02.72-1.57,2.36-2.4.46-.23.94-.47,1.39-.74.79-.48,1.47-1.62,2.18-2.82,1-1.7,2.14-3.63,3.61-3.64,1.48.01,2.61,1.94,3.61,3.64.71,1.21,1.38,2.34,2.18,2.82.45.27.93.51,1.39.74,1.64.82,2.63,1.38,2.36,2.4Z"/>
  <path class="cls-1" d="M11.98,5.46c-1.44,0-2.61,1.17-2.61,2.61,0,.77.34,1.47.87,1.95v1.1h3.48v-1.1c.53-.48.87-1.17.87-1.95,0-1.44-1.17-2.61-2.61-2.61ZM13.14,9.37l-.29.26v.62c0-.24-.2-.44-.44-.44s-.44.19-.44.44c0-.24-.19-.44-.44-.44s-.44.19-.44.44v-.62l-.29-.26c-.37-.33-.58-.8-.58-1.3,0-.96.78-1.74,1.74-1.74s1.74.78,1.74,1.74c0,.49-.21.97-.58,1.3Z"/>
  <path class="cls-1" d="M11.33,7.63c-.24,0-.44.19-.44.44s.19.44.44.44.44-.19.44-.44-.2-.44-.44-.44Z"/>
  <path class="cls-1" d="M12.64,7.63c-.24,0-.44.19-.44.44s.19.44.44.44.44-.19.44-.44c0-.24-.19-.44-.44-.44Z"/>
</svg>