<?xml version="1.0" encoding="UTF-8"?>
<svg id="Layer_1" xmlns="http://www.w3.org/2000/svg" viewBox="0 0 19.21 23.21">
  <path d="M0,18.41v4c0,.44.36.8.8.8h17.61c.44,0,.8-.36.8-.8v-4c0-2.77-1.59-5.27-4.03-6.46.53-.93.83-2,.83-3.14v-2.4c0-3.53-2.87-6.4-6.4-6.4C6.55,0,4,2.15,3.36,5.01l-1.31-.88c-.37-.25-.87-.15-1.11.22-.24.37-.15.87.22,1.11l1.4.93-1.4.93c-.37.24-.47.74-.22,1.11.25.37.74.47,1.11.22l1.16-.77v.91c0,1.14.3,2.21.83,3.14-2.44,1.2-4.03,3.69-4.03,6.46ZM9.61,1.6c1.52,0,2.88.71,3.76,1.82l-8.45,1.95c.47-2.15,2.39-3.77,4.69-3.77ZM6.8,8.01c-.7,0-1.29-.45-1.51-1.08l3.08-.71c.12,1.03-.68,1.79-1.58,1.79ZM6.8,9.61c1.94,0,3.5-1.74,3.15-3.75l4.21-.97c.16.48.25.99.25,1.52v2.4c0,2.65-2.15,4.8-4.8,4.8s-4.75-2.11-4.8-4.72c.55.44,1.24.72,2,.72ZM5.02,13.27c1.16,1.2,2.79,1.94,4.58,1.94s3.42-.75,4.58-1.94c2.06.87,3.42,2.89,3.42,5.14v3.2h-1.6v-3.2c0-.44-.36-.8-.8-.8s-.8.36-.8.8v3.2H4.8v-3.2c0-.44-.36-.8-.8-.8s-.8.36-.8.8v3.2h-1.6v-3.2c0-2.26,1.37-4.27,3.42-5.14Z" style="fill: #fff;"/>
  <path d="M7.22,11.35c-.08-.43.21-.85.64-.93.5-.09.89-.28,1.18-.58.3-.3.84-.3,1.14,0,.29.3.68.48,1.18.58.43.08.72.5.64.93-.08.43-.49.72-.93.64-.55-.1-1.04-.29-1.45-.56-.42.27-.91.46-1.45.56-.44.08-.85-.21-.93-.64Z" style="fill: #fff;"/>
  <path d="M11.21,7.2c0-.44.36-.8.8-.8s.8.36.8.8-.36.8-.8.8-.8-.36-.8-.8Z" style="fill: #fff;"/>
</svg>