<?xml version="1.0" encoding="UTF-8"?>
<svg id="Layer_1" xmlns="http://www.w3.org/2000/svg" viewBox="0 0 21.43 15.5" fill="#ffff">
  <path d="M3.43,15.5c-.94,0-1.74-.33-2.4-1-.66-.67-1-1.48-1.02-2.43,0-.14,0-.28.02-.42.01-.14.04-.28.07-.42L2.19,2.83c.22-.84.66-1.53,1.34-2.05.67-.52,1.44-.78,2.3-.78h9.75c.86,0,1.63.26,2.3.78.67.52,1.12,1.21,1.34,2.05l2.1,8.4c.03.14.06.29.08.43.02.15.03.29.03.43,0,.96-.34,1.76-1.01,2.42-.67.66-1.49.99-2.44.99-.66,0-1.26-.17-1.82-.52-.56-.34-.98-.81-1.26-1.4l-.71-1.46c-.1-.21-.26-.36-.46-.47s-.42-.16-.65-.16h-4.75c-.23,0-.44.05-.65.15-.21.1-.36.26-.46.47l-.71,1.46c-.28.6-.7,1.06-1.26,1.4-.56.34-1.17.51-1.82.51ZM3.5,14c.36,0,.69-.1.99-.29s.53-.45.68-.77l.7-1.43c.23-.47.57-.84,1.01-1.11s.93-.4,1.44-.4h4.75c.52,0,1,.14,1.44.42.44.28.79.64,1.04,1.1l.7,1.43c.15.32.38.58.68.77.3.19.63.29,1,.29.54,0,1-.18,1.38-.54.38-.36.58-.8.59-1.34,0,0-.02-.19-.06-.53l-2.1-8.38c-.13-.5-.39-.91-.79-1.23-.4-.32-.86-.48-1.37-.48H5.83c-.52,0-.99.16-1.39.48-.4.32-.66.73-.77,1.23L1.56,11.59c-.03.09-.05.26-.06.51,0,.54.2.99.59,1.35.39.36.86.55,1.41.55ZM12.2,6.63c.24,0,.45-.09.63-.26.17-.17.26-.38.26-.63s-.09-.45-.26-.63c-.17-.17-.38-.26-.63-.26s-.45.09-.63.26c-.17.17-.26.38-.26.63s.09.45.26.63c.17.17.38.26.63.26ZM14.2,4.63c.24,0,.45-.09.63-.26.17-.17.26-.38.26-.63s-.09-.45-.26-.63c-.17-.17-.38-.26-.63-.26s-.45.09-.63.26c-.17.17-.26.38-.26.63s.09.45.26.63c.17.17.38.26.63.26ZM14.2,8.63c.24,0,.45-.09.63-.26.17-.17.26-.38.26-.63s-.09-.45-.26-.63c-.17-.17-.38-.26-.63-.26s-.45.09-.63.26c-.17.17-.26.38-.26.63s.09.45.26.63c.17.17.38.26.63.26ZM16.2,6.63c.24,0,.45-.09.63-.26.17-.17.26-.38.26-.63,0-.24-.09-.45-.26-.63-.17-.17-.38-.26-.63-.26s-.45.09-.63.26c-.17.17-.26.38-.26.63s.09.45.26.63c.17.17.38.26.63.26ZM7.2,8.1c.17,0,.31-.06.43-.17.11-.11.17-.26.17-.43v-1.15h1.15c.17,0,.31-.06.43-.17.11-.11.17-.25.17-.43s-.06-.31-.17-.43c-.11-.11-.26-.17-.43-.17h-1.15v-1.15c0-.17-.06-.31-.17-.43-.11-.11-.25-.17-.43-.17s-.31.06-.43.17c-.11.11-.17.26-.17.43v1.15h-1.15c-.17,0-.31.06-.43.17-.11.11-.17.25-.17.43s.06.31.17.43c.11.11.26.17.43.17h1.15v1.15c0,.17.06.31.17.43.11.11.25.17.43.17Z"/>
</svg>