<?xml version="1.0" encoding="UTF-8"?>
<svg id="Layer_1" xmlns="http://www.w3.org/2000/svg" viewBox="0 0 20.55 19.77" fill="#fff">
  <path d="M18.99,12.57c.1-.47.1-.94-.02-1.4-.12-.46-.29-.91-.51-1.34-.37.31-.69.66-.97,1.05s-.47.82-.57,1.29c-.1.47-.09.93.03,1.39.12.46.29.9.5,1.33.38-.3.7-.64.98-1.03.27-.39.46-.81.56-1.28ZM3.46,6.62c.34.34.75.56,1.21.64.47.08.9.02,1.3-.18l-.63-.63c-.34-.34-.75-.57-1.23-.66-.47-.1-.92-.05-1.34.14l.69.69ZM5.29,2.12l-2.24,2.22c.59-.11,1.19-.08,1.78.09.59.17,1.12.49,1.58.95l.63.63c.21-.4.28-.84.22-1.31-.06-.47-.28-.88-.64-1.23l-1.33-1.35ZM18.72,19.77L7.07,8.17c-.73.47-1.53.67-2.41.59-.88-.08-1.63-.44-2.27-1.07L0,5.27,5.29,0l2.39,2.4c.65.65,1.01,1.41,1.08,2.29.07.88-.13,1.68-.62,2.41l7.51,7.51c-.15-.44-.25-.89-.29-1.36-.04-.47-.01-.94.08-1.41.09-.46.25-.9.47-1.3.22-.41.48-.79.78-1.14.3-.35.64-.67,1.02-.96.38-.29.78-.55,1.19-.78.59.76,1.04,1.58,1.35,2.46.31.89.38,1.79.19,2.71-.16.81-.49,1.53-.99,2.16-.49.63-1.09,1.18-1.79,1.63l2.1,2.1-1.05,1.04ZM13.99,9.87l-1.05-1.07,5.35-5.35v-1.18h-1.18l-5.35,5.35-1.07-1.05L16.5.77h3.29v3.29l-5.79,5.8ZM2.1,19.49l-1.04-1.04c-.18-.18-.27-.39-.27-.63s.09-.45.27-.63l2.98-2.99-2.2-2.2.49-.49c.34-.34.77-.52,1.28-.52s.94.17,1.28.52l.43.44,1.22-1.22,1.07,1.05-1.22,1.22,1.18,1.18,1.22-1.22,1.05,1.07-1.22,1.22.43.42c.34.34.52.77.52,1.28s-.17.94-.52,1.28l-.49.49-2.2-2.2-2.99,2.98c-.18.18-.39.27-.63.27-.24,0-.45-.09-.63-.27Z"/>
</svg>