<?xml version="1.0" encoding="UTF-8"?>
<svg id="Layer_1" data-name="Layer 1" xmlns="http://www.w3.org/2000/svg" viewBox="0 0 23.75 23.75">
  <defs>
    <style>
      .cls-1 {
        fill-rule: evenodd;
      }

      .cls-1, .cls-2, .cls-3, .cls-4 {
        stroke-width: 0px;
      }

      .cls-1, .cls-3 {
        fill: #f9c675;
      }

      .cls-2 {
        fill: #cc9d46;
      }

      .cls-5 {
        fill: none;
        stroke: #f9c675;
        stroke-miterlimit: 10;
      }

      .cls-4 {
        fill: #ffd597;
      }
    </style>
  </defs>
  <circle class="cls-2" cx="11.88" cy="11.88" r="11.88"/>
  <circle class="cls-5" cx="11.88" cy="11.88" r="9.71"/>
  <g>
    <path class="cls-3" d="M18.99,12.78v.86s-1.16.51-1.58,1.28-1.29,2.4-2.34,2.41-6.44,0-6.44,0c0,0-3.35-.34-3.36-3.88h3.45s.01.43.01.43c0,0,.21.94,1.02.94s1.7-.01,1.7-.01v-1.27h-1.69s2.89-2.93-.03-7.66l1.74.45-.02-.9s.69-1.11,1.28.05v1.17s5.68,3.4.99,6.91h-.99s0,1.26,0,1.26h1.5s.84-.29,1.25-1.03c0,0,3.52-1,3.52-1Z"/>
    <path class="cls-3" d="M9.18,12.16h-3.17l3.07-4.82s1.83,2.86.1,4.82Z"/>
  </g>
  <path class="cls-4" d="M6.01,12.16l3.07-4.82s.37,1.82-.35,3.17-2.72,1.65-2.72,1.65Z"/>
  <path class="cls-4" d="M17.75,13.13l-2.29.65s-.56.84-1.25,1.03h-4.57s-.75-.13-.92-.93v-.42s-3.46-.01-3.46-.01c0,0,0,1.26.48,2.03,3.44.03,6.89.06,10.33.1.56-.81,1.12-1.62,1.68-2.43Z"/>
  <polygon class="cls-1" points="11.14 18.58 11.88 17.9 12.59 18.58 11.88 20.47 11.14 18.58"/>
</svg>