<?xml version="1.0" encoding="UTF-8"?>
<svg id="Layer_1" xmlns="http://www.w3.org/2000/svg" viewBox="0 0 23.98 23.98">
  <defs>
    <style>
      .cls-1 {
        fill: none;
      }

      .cls-1, .cls-2 {
        stroke: #fff;
        stroke-miterlimit: 10;
      }

      .cls-2 {
        fill: #fff;
        stroke-width: .25px;
      }
    </style>
  </defs>
  <g>
    <path class="cls-2" d="M2.81,18.96l8.47,4.4c.45.23.97.23,1.42,0l8.47-4.4c.51-.26.83-.79.83-1.37V6.39c0-.57-.32-1.1-.83-1.37L12.7.62c-.44-.23-.97-.23-1.42,0L2.81,5.02c-.51.26-.83.79-.83,1.37v11.2c0,.57.32,1.1.83,1.37h0ZM2.75,6.39c0-.29.16-.55.41-.68L11.63,1.3h0c.22-.12.49-.12.71,0l8.47,4.4h0c.26.13.41.4.41.68v11.2c0,.29-.16.55-.41.68l-8.47,4.4h0c-.22.12-.49.12-.71,0l-8.47-4.4h0c-.26-.13-.41-.4-.41-.68V6.39Z"/>
    <path class="cls-2" d="M4.15,17.92l7.31,3.8h0c.33.17.73.17,1.07,0l7.31-3.8c.38-.2.62-.59.62-1.02V7.09c0-.43-.24-.83-.62-1.02l-7.31-3.8h0c-.33-.17-.73-.17-1.07,0l-7.31,3.8c-.38.2-.62.59-.62,1.02v9.8c0,.43.24.83.62,1.02ZM4.29,7.09c0-.14.08-.28.21-.34l1.72-.89v3.44c0,.21.17.39.39.39s.38-.17.38-.39v-3.84l1.54-.8v2.72c0,.21.17.39.39.39s.38-.17.38-.39v-3.12l1.92-1v4.12c0,.1.04.2.11.27s.17.11.27.11h1.92c.21,0,.38-.17.38-.39s-.17-.39-.38-.39h-1.54V2.9c.06,0,.12.01.18.04l3.29,1.71v3.1c0,.21.17.38.39.38s.38-.17.38-.38v-2.7l1.54.8v3.44c0,.21.17.39.39.39s.38-.17.38-.39v-3.04l.95.49c.13.07.21.2.21.34v9.8c0,.14-.08.28-.21.34l-1.72.89v-3.44c0-.21-.17-.39-.39-.39s-.38.17-.38.39v3.84l-1.54.8v-2.72c0-.21-.17-.39-.39-.39s-.38.17-.38.39v3.12l-1.92,1v-4.12c0-.1-.04-.2-.11-.27s-.17-.11-.27-.11h-1.92c-.21,0-.38.17-.38.39s.17.39.38.39h1.54v4.09c-.06,0-.12-.01-.18-.04l-3.29-1.71v-3.1c0-.21-.17-.38-.39-.38s-.38.17-.38.38v2.7l-1.54-.8v-3.44c0-.21-.17-.39-.39-.39s-.38.17-.38.39v3.04l-.95-.49h0c-.13-.07-.21-.2-.21-.34V7.09Z"/>
  </g>
  <polyline class="cls-1" points="10.05 13.91 10.05 10.43 14.37 13.91 14.37 10.43"/>
</svg>