<?xml version="1.0" encoding="UTF-8"?>
<svg id="Layer_1" xmlns="http://www.w3.org/2000/svg" viewBox="0 0 23.98 23.27">
  <defs>
    <style>
      .cls-1 {
        fill: #ffffff;
      }
    </style>
  </defs>
  <path class="cls-1" d="M1.35,6.18S3.07,2.79,6.53,1.28l1.21,2.3-2.1,1.43-.55-.22v-1.13s-1.74.71-1.74.71l1.2.02-.49,1.51.59.12-.95,1.32-2.34-1.16h0Z"/>
  <path class="cls-1" d="M10.43,2.76v-1.39l1.35-.44,2.11.78-.09,1.16s1.71.46,1.85.57,1.31-2.37,1.31-2.37c0,0-4.11-2.36-9.96-.04l1.22,2.35s1.87-.62,2.21-.57"/>
  <path class="cls-1" d="M17.39,1.26l-1.19,2.44s1.37.81,1.53.98h1.06v-1.12l.48-.12v1.13l1.32-.04v.47l-1.24.06.02,1.29s.63.85.72,1.01l2.49-1.16s-2.05-3.72-5.18-4.95h0Z"/>
  <path class="cls-1" d="M22.81,6.67l-2.47,1.15s.91,1.9.9,3.33l1.02-.95.98.75-.48.46.48.44-.95.8-1.06-.97s.02,2.05-.65,3.61l2.25,1.12s2.58-3.92-.03-9.73h0Z"/>
  <path class="cls-1" d="M22.63,16.87l-2.3-1.15s-.62,1.12-.81,1.33l.6.51.1-.14.34.38-.52-.06.06-.09-.76-.16.91.98.05-.2h.14s0,.2,0,.2l.27.44-.83-.06.27-.09-1.12-.7.36.75.1.22-.56-.02.25-.2-.64-.62-.56.5-.43.57s-.39.76-.42,1.01v1.81s3.89-1.44,5.51-5.2h0Z"/>
  <path class="cls-1" d="M6.67,22.07s.35-.43.33-1.44-.14-1.09-.42-1.37-2.44-1.73-3.19-3.54l-2.2,1.05s1.99,3.91,5.48,5.3h0Z"/>
  <path class="cls-1" d="M.99,16.3l2.17-1.02s-.55-1.62-.57-2.26l-1.32-1.01-.43.18-.52-.18.5-.34.43.26.53-.26-.43-.42-.42.17-.55-.17.55-.32.42.18.79-.33-.71-.59-.43.2-.58-.2.58-.36.42.27,1.37-.59s.43-1.42.65-1.7l-2.3-1.13s-2.45,4.41-.15,9.62h0Z"/>
  <path class="cls-1" d="M20.74,11.74s.16-7.37-7.93-8.5v2.78c.29.02.6.07.94.14.81.18,1.46.47,1.94.75,0,0,1.21,1.11,1.52,1.89l.4,1.71v.5s-.32.49,0,.96c.32.47.6,1.62.6,1.62v.56s-.42.97-.76,1.19l-2.02-.6h-1.73s.01.18.01.18l1.77.05-.11,1.21-.52-.22.29.75-.22,1.39-.27-.57v-.57l-.38-.64h-.15l.18.55.18.63.14.9-1.31,1.01-.05-1.96h-.23l.04,2.09-1.26.68-.12-.08.1-1.21.23-.84v-1.5h-.14l-.1,1.47-.24.87v1.17s-1.11-.79-1.11-.79l.52-2.87h-.21s-.18.59-.18.59l-.02.78-.13.5-.19.94-.38-.21-.41-.52.37-1.49v-.85s-.13.01-.13.01v.75l-.28,1-.49-.57.02-.31-.27-.44v-.54l1.39-.84.09-.25h-.25l-2.1,1.19-.44.11s-.87-.73-.99-1.13c-.11-.41-.33-1.21.1-1.27s.63,1.01.63,1.01h.32s-1.18-3.57-1.18-3.57v-.69s-.44-.76-.44-.76c0,0-.18-.27.34-.47l.1-.22,1.65-1.69s.69-1.42,2.13-1.42c.49,0,.75,0,.88-.02,0-.02,0-.03,0-.05l-.05-2.73s-7.61.77-7.79,8.61c0,0-.2,4.4,3.65,6.88,0,0,.66.42.64,1.24v.59s.09.9.09.9l-.43.73s1.96,1.09,4.97,1.06c0,0,2.07.28,5.02-1.12l-.49-.66.21-2.01s.3-.66.66-.93c0,0,3.44-2.33,3.38-6.78h0Z"/>
  <path class="cls-1" d="M8.35,11.2c.26.08.53.15.79.23.3.14.61.28.91.42h.23s.52-.38.56-.94h.23l-.25,1.66s-.97,1.56-2.21,1.57-1.38-1.29-1.38-1.48-.02-1.17,1.1-1.45h0Z"/>
  <path class="cls-1" d="M12.16,11.56l.05.85s.81.72,1.14.77c.34.05.9,0,.9,0l.51.16.35-.08.73-.15.35-.44v-1.07l.09-.6s-.35-.38-.91-.4-2.02.44-2.69,1.04h-.35s-.17-.06-.17-.06h0Z"/>
  <path class="cls-1" d="M11.7,12.64l.95,1.5.08.33-.4.5h-.23l-.41-.5-.19.12-.17-.14h-.16s-.19.19-.19.19v.22s-.28.1-.3-.06.39-1.03.39-1.03l.62-1.12h0Z"/>
</svg>