<?xml version="1.0" encoding="UTF-8"?>
<svg id="Layer_1" xmlns="http://www.w3.org/2000/svg" viewBox="0 0 23.26 23.23">
  <defs>
    <style>
      .cls-1 {
        fill: #ffff;
      }
    </style>
  </defs>
  <path class="cls-1" d="M23.26,14.35v1.45s-1.96.87-2.68,2.16-2.19,4.07-3.97,4.09-10.91,0-10.91,0c0,0-5.68-.58-5.69-6.58l5.84.02.02.71s.36,1.59,1.73,1.59,2.88-.02,2.88-.02v-2.15l-2.87-.02s4.9-4.95-.05-12.96l2.94.76-.04-1.52s1.17-1.88,2.16.09l.02,1.98s9.6,5.76,1.66,11.7l-1.67-.02v2.15h2.54s1.42-.49,2.12-1.74l5.97-1.69Z"/>
  <path class="cls-1" d="M6.65,13.29H1.28L6.48,5.13s3.1,4.84.17,8.16Z"/>
</svg>