<?xml version="1.0" encoding="UTF-8"?>
<svg id="Layer_1" xmlns="http://www.w3.org/2000/svg" viewBox="0 0 24 24">
  <defs>
    <style>
      .cls-1 {
        fill: #ffff;
        fill-rule: evenodd;
      }
    </style>
  </defs>
  <path class="cls-1" d="M4.92,19.61L.66,23.87c-.07.08-.17.13-.27.13s-.21-.04-.28-.11c-.07-.07-.11-.17-.11-.28,0-.1.05-.2.13-.27l4.26-4.26c.14.21.32.39.53.53h0ZM5.93,16.77l-.7.7h0c-.36.36-.36.94,0,1.3.36.36.94.36,1.3,0l.7-.7c-.55-.3-1-.75-1.3-1.3,0,0,0,0,0,0ZM17.11,4.3l-.79-.79c-.18-.18-.48-.18-.67,0l-.53.53c-.18.18-.18.48,0,.67l.02.02,4.15,4.14.02.02h0c.18.18.48.18.67,0l.53-.53c.18-.18.18-.48,0-.67l-3.38-3.39h0ZM24,4.12l-1.35,1.35-4.12-4.12,1.35-1.35,4.12,4.12ZM21.09,4.97l-1.13,1.13-2.06-2.06,1.13-1.13,2.06,2.06ZM10.07,17.41c-1,.55-2.24.37-3.04-.43-.81-.81-.98-2.05-.43-3.04l3.47,3.48ZM7.05,13.33l.86-.86,1.25,1.25h0c.15.14.38.14.52,0,.14-.14.15-.38,0-.52l-1.25-1.25.45-.45.49.49h0c.15.15.38.15.53,0,.15-.15.15-.38,0-.53l-.49-.49.45-.45,1.25,1.25h0c.15.15.39.15.53,0,.15-.15.15-.38,0-.53l-1.25-1.25.45-.45.49.49c.15.14.38.14.53,0,.14-.14.15-.38,0-.53l-.49-.49.45-.45,1.25,1.25h0c.15.15.38.15.53,0,.15-.15.15-.38,0-.53l-1.25-1.25.45-.45.49.49c.15.15.38.15.53,0,.15-.15.15-.38,0-.53l-.49-.49.45-.45,1.25,1.25c.07.07.17.12.27.12.1,0,.2-.04.27-.11.07-.07.11-.17.11-.27s-.04-.2-.12-.27l-1.25-1.25.56-.56,3.61,3.61-7.82,7.82-3.61-3.61h0Z"/>
</svg>