<?xml version="1.0" encoding="UTF-8"?>
<svg id="Layer_1" xmlns="http://www.w3.org/2000/svg" viewBox="0 0 23.98 23.98" fill="#ffffff">
  <defs>
    <style>
      .cls-1, .cls-2 {
        fill: none;
        stroke: #ffffff;
        stroke-miterlimit: 10;
      }

      .cls-3 {
        fill: #ffffff;
      }

      .cls-2 {
        stroke-width: .5px;
      }
    </style>
  </defs>
  <circle class="cls-1" cx="11.99" cy="11.99" r="10.47"/>
  <circle class="cls-2" cx="12.02" cy="12.01" r="6.99"/>
  <path class="cls-3" d="M3.95,11.31l.03-.31-.41-.14-.3.66v.06l.47.37s.05.1.21,0,.58-.34.58-.34c0,0,.07-.02.07-.18s0-.6,0-.6l-1.81-1.72,2.49-.38.33-.45v-.34l-.29-.65-.72.05-.16.67.02.09.36.11.19-.26-.08-.02-.18.05-.02-.26.07-.13h.41s.18.54.18.54l-.28.4-2.58.43s-.09.05,0,.14.44.57.44.57l1.37,1.15.02.52-.41.34s-.04.03-.16-.02-.27-.22-.27-.22l.15-.29s.04-.01.09,0,.18.15.18.15Z"/>
  <polygon class="cls-3" points="7.02 17.34 6.6 19.28 6.65 19.32 8.44 18.37 8.12 18.18 7.03 18.84 6.96 18.81 7.3 17.6 7.02 17.34"/>
  <path class="cls-3" d="M14.92,18.8l.6-.23s.11-.05.28.06,2.04,1.01,2.04,1.01h.04l-.52-2.39s-.05-.05.09-.22.32-.47.32-.47l.87.05.24.68v.04l-.59.36s-.07.02-.11-.03-.21-.27-.21-.27l.16-.24.13.26.32-.16-.17-.45-.56.08-.27.38.45,1.63.05.97h-.06s-1.48-.46-1.64-.69l-.7-.38-.47.17-.18.51.31.25s.03.08.11,0,.2-.24.2-.24l-.23-.13v-.05l.25-.11.26.31-.5.53h-.11l-.54-.38.16-.86Z"/>
  <polygon class="cls-3" points="19.18 10.76 20.65 9.41 20.6 9.34 18.71 9.12 18.84 9.44 20.08 9.56 19.13 10.35 19.18 10.76"/>
  <path class="cls-3" d="M13.74,4.13l-.1-.21.37-.06.14.42-.46.33-.44-.14-1.22-2.36s-.53.66-.68.97-.6,1.41-.6,1.41l-.42.13-.48-.3.13-.46.35.06v.1l-.1.16.06.04.25-.11v-.38l-.77-.09-.23.63v.08l.66.58.68-.22,1.09-2.23h.06l1.02,2.11s.04.09.22.14.54.21.54.21l.64-.6-.25-.71-.74.1v.41h.28Z"/>
  <polygon class="cls-3" points="10.48 19.13 10.91 20.62 11.76 19.27 10.48 19.13"/>
  <polygon class="cls-3" points="18.71 14.77 19.68 15.99 18.24 15.79 18.71 14.77"/>
  <polygon class="cls-3" points="16.76 6.42 18.05 5.94 17.41 7.09 16.76 6.42"/>
  <polygon class="cls-3" points="8.02 4.38 8.99 5.38 8.09 5.83 8.02 4.38"/>
  <polygon class="cls-3" points="4.91 13.73 3.54 13.39 4.75 12.76 4.91 13.73"/>
  <path class="cls-3" d="M16.88,9.48l-.14.1-.18.39-.15.14h-.11l-.09.09s-.32.08-.4.19h-.12s-.12.09-.12.09l-.14.05-.18.11-.18.06s-.09.08,0,.21.13.18.13.18l.1.07.32.6s-.01.18.24.2c0,0,.02.05.02.09s.25.29.3.45.25.39.25.39l.13.19s-.34-.02-.59.32c0,0-.37.17-.38.26,0,0-.09-.06-.21-.02,0,0-.21-.04-.22-.06,0,0-.17.02-.1.11s.15.22.15.22c0,0,.13.09.13.12s-.01.17.12.21.07.39.07.39v.1s.03.12.09,0,.27-.32.27-.32c0,0,.24-.31.28-.4,0,0,.09-.04.18,0s.19-.17.19-.17h.17s.4-.18.58-.22.26-.21.26-.28-.18-.2-.18-.2l-.19-.23s-.26-.45-.35-.49l-.03-.25-.33-.37-.11-.19-.09-.12-.07-.2-.17-.19v-.17l.17-.19.47-.09h.12s.13-.11.13-.11l.26.02.13.04.09-.15-.32-.39-.03-.14-.09-.06.04-.13-.08-.11-.03-.16Z"/>
  <path class="cls-3" d="M13.15,8.18l-.2.15-.26.56-.22.2h-.15l-.13.13s-.46.11-.57.27l-.17.02-.18.11-.21.08-.26.16-.26.09s-.13.12,0,.3.19.25.19.25l.14.1.45.86s-.02.26.34.28c0,0,.03.07.03.14s.36.41.43.65.36.55.36.55l.18.27s-.48-.02-.84.46c0,0-.53.24-.55.37,0,0-.13-.09-.3-.03,0,0-.3-.06-.31-.08,0,0-.24.02-.15.15s.22.31.22.31c0,0,.18.13.19.17s-.02.24.17.31.1.56.1.56v.14s.04.17.13,0,.39-.45.39-.45c0,0,.35-.44.4-.58,0,0,.13-.05.25,0s.28-.24.28-.24h.24s.58-.26.83-.31.37-.3.37-.4-.26-.29-.26-.29l-.27-.32s-.38-.65-.5-.71l-.04-.35-.48-.53-.15-.27-.13-.17-.1-.29-.24-.27v-.24l.24-.27.68-.13h.17s.18-.15.18-.15l.38.03.19.06.13-.21-.45-.56-.04-.2-.13-.09.06-.19-.11-.15-.04-.23Z"/>
  <path class="cls-3" d="M6.36,11.3l.22-.23s-.03-.11.32-.07.42-.01.42-.01c0,0,.15-.03.05.35,0,0,0,.36.04.47s-.05.15-.05.15c0,0,.03.19.06.23s-.09.31-.09.31c0,0-.03.14.09.19,0,0-.11.7-.04,1.1,0,0-.02.17-.12.3s.41.05.41.05c0,0,.29-.04.36.08s.1-.18-.07-.42l.03-.14-.05-.09.02-.25-.05-.1.03-.1-.04-.11.05-.11-.05-.34.04-.32-.02-.27v-.25s-.06-.16-.06-.16l.04-.12-.02-.32s-.06-.18.11-.19.2.03.2.03l.24-.03.21.05.23.03.16.07s.1.09.14.09.17.02.19-.13,0-.16,0-.16l.07-.16.07-.14s.02-.13-.13-.13-.37.05-.37.05c0,0-.15-.11-.26-.11s-.32.09-.32.09l-.14-.05h-.71s-.51.08-.71-.01l-.2.03-.21-.09s-.1.03-.09.13,0,.31,0,.31l-.06.2v.23l.06.05Z"/>
</svg>