<?xml version="1.0" encoding="UTF-8"?>
<svg id="Layer_1" xmlns="http://www.w3.org/2000/svg" viewBox="0 0 19 15" fill="#ffffff">
  <path d="M3.5,15c-.97,0-1.79-.34-2.47-1.03-.68-.68-1.03-1.51-1.03-2.47V3.5c0-.97.34-1.79,1.03-2.47C1.71.34,2.53,0,3.5,0h12c.97,0,1.79.34,2.47,1.03s1.03,1.51,1.03,2.47v8c0,.97-.34,1.79-1.03,2.47-.68.68-1.51,1.03-2.47,1.03H3.5ZM3.5,3.75h12c.38,0,.74.05,1.07.16.34.11.65.27.93.5v-.91c0-.55-.2-1.02-.59-1.41s-.86-.59-1.41-.59H3.5c-.55,0-1.02.2-1.41.59s-.59.86-.59,1.41v.91c.28-.22.59-.39.93-.5.34-.11.69-.16,1.07-.16ZM1.59,6.74l11.23,2.73c.14.03.28.03.42,0,.14-.03.27-.09.38-.19l3.6-3.03c-.16-.3-.4-.55-.71-.73-.31-.19-.64-.28-1.02-.28H3.5c-.47,0-.88.14-1.23.41-.35.28-.57.63-.68,1.08Z"/>
</svg>